<?xml version="1.0" encoding="UTF-8"?><svg id="Layer_2" xmlns="http://www.w3.org/2000/svg" viewBox="0 0 1000 1000"><defs><style>.cls-1{fill:none;stroke:#000;stroke-miterlimit:10;stroke-width:10px;}</style></defs><path class="cls-1" d="M299.555068999919968,303.934084922359034l-114.018786872778946-1.770478057031141c-5.874253570120345-.091215117548018-10.761957829778112,4.493518998211584-11.046313939075844,10.361595071922238l-20.955389570937768,432.443039327509723c-.306867282850362,6.33262483701219,4.226779073509533,11.867103716451311,10.497842113160004,12.79988086474259,32.870350886172673,4.889236795912439,139.558173907915261,18.231877870497556,324.967579269712587,18.231877870497556,185.354011436775181,0,280.699002903824294-14.668136587659319,309.444728534803289-20.050242742490809,5.477166387339821-1.025498235903797,9.336235710525216-5.953730852925219,9.03185808184935-11.517753905143763l-23.791927676495106-434.916437926301114c-.380288849097269-6.951680161500917-6.253460167426965-12.320852096439921-13.211282475785993-12.077571596147209l-88.036594532850359,3.078202606044215"/><path d="M341.361328125,326.896484375c-6.759765625,0-11.91015625-1.87939453125-15.4501953125-5.6396484375-3.5400390625-3.759765625-5.3095703125-9.099609375-5.3095703125-16.02001953125,0-3.43994140625.5400390625-6.51025390625,1.6201171875-9.2099609375,1.080078125-2.7001953125,2.5595703125-4.97998046875,4.439453125-6.84033203125,1.8798828125-1.85986328125,4.1201171875-3.27001953125,6.720703125-4.22998046875,2.599609375-.9599609375,5.4189453125-1.43994140625,8.4599609375-1.43994140625,1.759765625,0,3.359375.13037109375,4.7998046875.39013671875,1.4404296875.2607421875,2.7001953125.560546875,3.7802734375.89990234375,1.080078125.34033203125,1.9794921875.68994140625,2.69921875,1.0498046875.720703125.3603515625,1.240234375.640625,1.560546875.84033203125l-2.7001953125,7.56005859375c-1.2802734375-.6796875-2.7705078125-1.26025390625-4.4697265625-1.740234375-1.701171875-.47998046875-3.6298828125-.7197265625-5.7900390625-.7197265625-1.4404296875,0-2.8505859375.23974609375-4.23046875.7197265625s-2.6005859375,1.25048828125-3.6591796875,2.31005859375c-1.060546875,1.06005859375-1.9111328125,2.43017578125-2.55078125,4.10986328125-.6396484375,1.68017578125-.9599609375,3.72021484375-.9599609375,6.1201171875,0,1.919921875.2099609375,3.71044921875.6298828125,5.3701171875.419921875,1.66015625,1.099609375,3.08984375,2.0400390625,4.2900390625.939453125,1.19970703125,2.169921875,2.150390625,3.6904296875,2.849609375,1.51953125.70068359375,3.3603515625,1.05029296875,5.51953125,1.05029296875,1.359375,0,2.580078125-.07958984375,3.66015625-.240234375,1.080078125-.1591796875,2.0400390625-.349609375,2.8798828125-.56982421875.8408203125-.21923828125,1.580078125-.4697265625,2.220703125-.75.638671875-.279296875,1.2197265625-.5400390625,1.7392578125-.77978515625l2.580078125,7.5c-1.3193359375.80029296875-3.1796875,1.5205078125-5.580078125,2.15966796875-2.3994140625.6396484375-5.1806640625.9599609375-8.33984375.9599609375Z"/><path d="M399.3818359375,305.23681640625c0,3.560546875-.53125,6.68994140625-1.5908203125,9.3896484375-1.0595703125,2.7001953125-2.509765625,4.96044921875-4.349609375,6.7802734375-1.83984375,1.8203125-4.0302734375,3.1904296875-6.5703125,4.10986328125-2.5400390625.919921875-5.2705078125,1.3798828125-8.189453125,1.3798828125-2.8408203125,0-5.5205078125-.4599609375-8.0400390625-1.3798828125-2.5205078125-.91943359375-4.720703125-2.28955078125-6.6005859375-4.10986328125-1.8798828125-1.81982421875-3.359375-4.080078125-4.439453125-6.7802734375-1.080078125-2.69970703125-1.6201171875-5.8291015625-1.6201171875-9.3896484375,0-3.56005859375.5595703125-6.68994140625,1.6796875-9.39013671875s2.6298828125-4.9697265625,4.5302734375-6.81005859375c1.8994140625-1.83935546875,4.099609375-3.21923828125,6.599609375-4.14013671875,2.5-.91943359375,5.130859375-1.3798828125,7.890625-1.3798828125,2.83984375,0,5.51953125.46044921875,8.0400390625,1.3798828125,2.51953125.9208984375,4.71875,2.30078125,6.599609375,4.14013671875,1.8798828125,1.84033203125,3.3603515625,4.10986328125,4.4404296875,6.81005859375s1.6201171875,5.830078125,1.6201171875,9.39013671875ZM367.6416015625,305.23681640625c0,2.0400390625.2490234375,3.88037109375.75,5.52001953125.5,1.640625,1.2197265625,3.05029296875,2.16015625,4.22998046875.939453125,1.18017578125,2.08984375,2.09033203125,3.44921875,2.72998046875,1.359375.64013671875,2.919921875.9599609375,4.6806640625.9599609375,1.71875,0,3.26953125-.31982421875,4.6494140625-.9599609375,1.380859375-.6396484375,2.5400390625-1.5498046875,3.48046875-2.72998046875.939453125-1.1796875,1.6591796875-2.58935546875,2.16015625-4.22998046875.4990234375-1.6396484375.75-3.47998046875.75-5.52001953125s-.2509765625-3.8896484375-.75-5.55029296875c-.5009765625-1.6591796875-1.220703125-3.07958984375-2.16015625-4.259765625-.9404296875-1.1796875-2.099609375-2.08984375-3.48046875-2.72998046875-1.3798828125-.6396484375-2.9306640625-.9599609375-4.6494140625-.9599609375-1.7607421875,0-3.3212890625.32958984375-4.6806640625.98974609375s-2.509765625,1.58056640625-3.44921875,2.76025390625c-.9404296875,1.18017578125-1.66015625,2.6005859375-2.16015625,4.259765625-.5009765625,1.66015625-.75,3.490234375-.75,5.490234375Z"/><path d="M434.9609375,318.0166015625v8.0400390625h-27.7802734375v-41.580078125h9.3603515625v33.5400390625h18.419921875Z"/><path d="M479.361328125,305.23681640625c0,3.560546875-.53125,6.68994140625-1.5908203125,9.3896484375-1.0595703125,2.7001953125-2.509765625,4.96044921875-4.349609375,6.7802734375-1.83984375,1.8203125-4.0302734375,3.1904296875-6.5703125,4.10986328125-2.5400390625.919921875-5.2705078125,1.3798828125-8.189453125,1.3798828125-2.8408203125,0-5.5205078125-.4599609375-8.0400390625-1.3798828125-2.5205078125-.91943359375-4.720703125-2.28955078125-6.6005859375-4.10986328125-1.8798828125-1.81982421875-3.359375-4.080078125-4.439453125-6.7802734375-1.080078125-2.69970703125-1.6201171875-5.8291015625-1.6201171875-9.3896484375,0-3.56005859375.5595703125-6.68994140625,1.6796875-9.39013671875s2.6298828125-4.9697265625,4.5302734375-6.81005859375c1.8994140625-1.83935546875,4.099609375-3.21923828125,6.599609375-4.14013671875,2.5-.91943359375,5.130859375-1.3798828125,7.890625-1.3798828125,2.83984375,0,5.51953125.46044921875,8.0400390625,1.3798828125,2.51953125.9208984375,4.71875,2.30078125,6.599609375,4.14013671875,1.8798828125,1.84033203125,3.3603515625,4.10986328125,4.4404296875,6.81005859375s1.6201171875,5.830078125,1.6201171875,9.39013671875ZM447.62109375,305.23681640625c0,2.0400390625.2490234375,3.88037109375.75,5.52001953125.5,1.640625,1.2197265625,3.05029296875,2.16015625,4.22998046875.939453125,1.18017578125,2.08984375,2.09033203125,3.44921875,2.72998046875,1.359375.64013671875,2.919921875.9599609375,4.6806640625.9599609375,1.71875,0,3.26953125-.31982421875,4.6494140625-.9599609375,1.380859375-.6396484375,2.5400390625-1.5498046875,3.48046875-2.72998046875.939453125-1.1796875,1.6591796875-2.58935546875,2.16015625-4.22998046875.4990234375-1.6396484375.75-3.47998046875.75-5.52001953125s-.2509765625-3.8896484375-.75-5.55029296875c-.5009765625-1.6591796875-1.220703125-3.07958984375-2.16015625-4.259765625-.9404296875-1.1796875-2.099609375-2.08984375-3.48046875-2.72998046875-1.3798828125-.6396484375-2.9306640625-.9599609375-4.6494140625-.9599609375-1.7607421875,0-3.3212890625.32958984375-4.6806640625.98974609375s-2.509765625,1.58056640625-3.44921875,2.76025390625c-.9404296875,1.18017578125-1.66015625,2.6005859375-2.16015625,4.259765625-.5009765625,1.66015625-.75,3.490234375-.75,5.490234375Z"/><path d="M499.3408203125,283.99658203125c6.2392578125,0,11.0185546875,1.10986328125,14.33984375,3.330078125,3.3193359375,2.22021484375,4.9794921875,5.669921875,4.9794921875,10.35009765625,0,2.92041015625-.669921875,5.2900390625-2.009765625,7.10986328125-1.3408203125,1.82080078125-3.2705078125,3.25048828125-5.7900390625,4.2900390625.83984375,1.04052734375,1.7197265625,2.23046875,2.6396484375,3.56982421875.919921875,1.3408203125,1.830078125,2.740234375,2.73046875,4.2001953125.8994140625,1.46044921875,1.76953125,2.98046875,2.6103515625,4.56005859375.83984375,1.58056640625,1.619140625,3.13037109375,2.33984375,4.64990234375h-10.4638671875c-.7626953125-1.359375-1.5361328125-2.7392578125-2.3193359375-4.14013671875-.783203125-1.3994140625-1.5849609375-2.759765625-2.408203125-4.080078125-.8232421875-1.31982421875-1.63671875-2.5693359375-2.439453125-3.75-.8037109375-1.17919921875-1.607421875-2.25-2.4091796875-3.2099609375h-4.6201171875v15.18017578125h-9.3603515625v-40.97998046875c2.0400390625-.3994140625,4.1494140625-.6796875,6.330078125-.83984375,2.1796875-.15966796875,4.1298828125-.240234375,5.8505859375-.240234375ZM499.8798828125,291.9765625c-.6796875,0-1.2890625.0205078125-1.8291015625.06005859375-.5400390625.04052734375-1.05078125.08056640625-1.5302734375.1201171875v11.27978515625h2.6396484375c3.51953125,0,6.0400390625-.439453125,7.560546875-1.31982421875,1.51953125-.87939453125,2.279296875-2.37939453125,2.279296875-4.5,0-2.0400390625-.7705078125-3.4892578125-2.3095703125-4.35009765625-1.5400390625-.85986328125-3.810546875-1.2900390625-6.810546875-1.2900390625Z"/><path d="M556.935546875,326.056640625c-.462890625-1.44482421875-.9599609375-2.9287109375-1.4921875-4.451171875-.533203125-1.5224609375-1.0634765625-3.03955078125-1.5908203125-4.548828125h-16.240234375c-.5244140625,1.51708984375-1.0517578125,3.03662109375-1.578125,4.56103515625-.5283203125,1.5244140625-1.01953125,3.00439453125-1.4736328125,4.43896484375h-9.720703125c1.5654296875-4.4794921875,3.048828125-8.619140625,4.453125-12.419921875,1.404296875-3.7998046875,2.7783203125-7.3798828125,4.123046875-10.740234375,1.34375-3.35986328125,2.66796875-6.54931640625,3.9716796875-9.56982421875,1.3037109375-3.01953125,2.6591796875-5.97021484375,4.0634765625-8.85009765625h8.8720703125c1.3662109375,2.8798828125,2.7119140625,5.83056640625,4.0390625,8.85009765625,1.3251953125,3.0205078125,2.662109375,6.2099609375,4.0087890625,9.56982421875,1.345703125,3.3603515625,2.72265625,6.9404296875,4.12890625,10.740234375,1.40625,3.80078125,2.892578125,7.9404296875,4.4599609375,12.419921875h-10.0244140625ZM545.6904296875,293.896484375c-.208984375.60400390625-.5146484375,1.42626953125-.9169921875,2.46484375-.40234375,1.03955078125-.859375,2.24072265625-1.373046875,3.60302734375-.5146484375,1.36181640625-1.0888671875,2.86181640625-1.7236328125,4.5-.634765625,1.6376953125-1.279296875,3.35498046875-1.9345703125,5.15234375h11.8896484375c-.63671875-1.802734375-1.251953125-3.52587890625-1.8486328125-5.16845703125-.595703125-1.642578125-1.1630859375-3.1455078125-1.69921875-4.50830078125-.537109375-1.3623046875-1.0078125-2.5625-1.4130859375-3.60107421875-.4052734375-1.0380859375-.732421875-1.8515625-.98046875-2.4423828125Z"/><path d="M608.71875,305.23681640625c0,3.599609375-.560546875,6.740234375-1.6796875,9.419921875-1.1201171875,2.68017578125-2.7099609375,4.900390625-4.7705078125,6.65966796875-2.060546875,1.7607421875-4.5703125,3.0810546875-7.529296875,3.96044921875-2.9609375.87939453125-6.2802734375,1.31982421875-9.9599609375,1.31982421875-1.6806640625,0-3.640625-.0703125-5.8798828125-.2099609375-2.2412109375-.140625-4.4404296875-.4296875-6.6005859375-.8701171875v-40.5c2.16015625-.3994140625,4.41015625-.66943359375,6.75-.81005859375,2.33984375-.1396484375,4.3505859375-.2099609375,6.0302734375-.2099609375,3.5595703125,0,6.7890625.400390625,9.689453125,1.2001953125,2.900390625.80029296875,5.390625,2.060546875,7.470703125,3.77978515625,2.0791015625,1.72021484375,3.6796875,3.9208984375,4.7998046875,6.60009765625,1.119140625,2.68017578125,1.6796875,5.900390625,1.6796875,9.66015625ZM581.6591796875,318.4365234375c.439453125.04052734375.94921875.0703125,1.5302734375.09033203125.5791015625.0205078125,1.2685546875.02978515625,2.0693359375.02978515625,4.6806640625,0,8.150390625-1.17919921875,10.41015625-3.5400390625,2.259765625-2.35986328125,3.3896484375-5.619140625,3.3896484375-9.77978515625,0-4.359375-1.0791015625-7.65966796875-3.2392578125-9.900390625-2.16015625-2.2392578125-5.580078125-3.35986328125-10.2607421875-3.35986328125-.6396484375,0-1.2998046875.01025390625-1.9794921875.0302734375-.6806640625.0205078125-1.3203125.0703125-1.919921875.14990234375v26.27978515625Z"/><path d="M656.1201171875,305.23681640625c0,3.560546875-.53125,6.68994140625-1.5908203125,9.3896484375-1.0595703125,2.7001953125-2.509765625,4.96044921875-4.349609375,6.7802734375-1.83984375,1.8203125-4.0302734375,3.1904296875-6.5703125,4.10986328125-2.5400390625.919921875-5.2705078125,1.3798828125-8.189453125,1.3798828125-2.8408203125,0-5.5205078125-.4599609375-8.0400390625-1.3798828125-2.5205078125-.91943359375-4.720703125-2.28955078125-6.6005859375-4.10986328125-1.8798828125-1.81982421875-3.359375-4.080078125-4.439453125-6.7802734375-1.080078125-2.69970703125-1.6201171875-5.8291015625-1.6201171875-9.3896484375,0-3.56005859375.5595703125-6.68994140625,1.6796875-9.39013671875s2.6298828125-4.9697265625,4.5302734375-6.81005859375c1.8994140625-1.83935546875,4.099609375-3.21923828125,6.599609375-4.14013671875,2.5-.91943359375,5.130859375-1.3798828125,7.890625-1.3798828125,2.83984375,0,5.51953125.46044921875,8.0400390625,1.3798828125,2.51953125.9208984375,4.71875,2.30078125,6.599609375,4.14013671875,1.8798828125,1.84033203125,3.3603515625,4.10986328125,4.4404296875,6.81005859375s1.6201171875,5.830078125,1.6201171875,9.39013671875ZM624.3798828125,305.23681640625c0,2.0400390625.2490234375,3.88037109375.75,5.52001953125.5,1.640625,1.2197265625,3.05029296875,2.16015625,4.22998046875.939453125,1.18017578125,2.08984375,2.09033203125,3.44921875,2.72998046875,1.359375.64013671875,2.919921875.9599609375,4.6806640625.9599609375,1.71875,0,3.26953125-.31982421875,4.6494140625-.9599609375,1.380859375-.6396484375,2.5400390625-1.5498046875,3.48046875-2.72998046875.939453125-1.1796875,1.6591796875-2.58935546875,2.16015625-4.22998046875.4990234375-1.6396484375.75-3.47998046875.75-5.52001953125s-.2509765625-3.8896484375-.75-5.55029296875c-.5009765625-1.6591796875-1.220703125-3.07958984375-2.16015625-4.259765625-.9404296875-1.1796875-2.099609375-2.08984375-3.48046875-2.72998046875-1.3798828125-.6396484375-2.9306640625-.9599609375-4.6494140625-.9599609375-1.7607421875,0-3.3212890625.32958984375-4.6806640625.98974609375s-2.509765625,1.58056640625-3.44921875,2.76025390625c-.9404296875,1.18017578125-1.66015625,2.6005859375-2.16015625,4.259765625-.5009765625,1.66015625-.75,3.490234375-.75,5.490234375Z"/></svg>