<?xml version="1.0" encoding="UTF-8"?><svg id="Layer_2" xmlns="http://www.w3.org/2000/svg" viewBox="0 0 1000 1000"><defs><style>.cls-1{fill:none;stroke:#000;stroke-miterlimit:10;stroke-width:10px;}</style></defs><path class="cls-1" d="M466.046822908652757,212.164490625405961l11.513371151317187-.123556725408889c7.952605894899534-.0853440690762,13.15218153520982,8.305697480952404,9.535959443473985,15.389069694309001l-11.83884517612023,23.189656174705306c-1.967246762507784,3.853397468646108-1.389893643025061,8.516332029204023,1.457773159967473,11.773558710768157l20.674430019451393,23.647887812820954c2.058507678420938,2.354568353049217,5.053340594862675,3.677649607153398,8.180221630373126,3.613923779903416l9.502155040368962-.193653894642921c4.522078130436057-.092159940361853,8.60253451679273,2.700681318143324,10.153473907801526,6.949477745110016l23.242394660657737,63.672509680774056c1.081573626215686,2.962969530087321,3.428836970648263,5.288794918097665,6.401605093269609,6.343138142236967l33.751378755216138,11.970505612304805c4.147388943285478,1.470942653397287,6.951145739898493,5.355616947965245,7.040809547514073,9.755215536253672l.237421722298677,11.649742543975663c.086842938510017,4.261184973319359,2.722227929052679,8.054131625775881,6.685453252344814,9.621959457402227l20.878340386356285,8.259344464599963c2.468080636805098.976357687850395,4.47899436451371,2.844764182416839,5.633806506544715,5.234556073150088l8.970920850968469,18.564607282657562c.477108838522327.987338798925521.797812534008699,2.04285290135067.950621099087584,3.128725955671143l2.567365606319072,18.243958583542735c.449127211613813,3.191543201817694,2.328625081901919,6.004285296078706,5.105420293444695,7.640461207902263l38.881973193825615,22.910493247561135c2.725376819427765,1.605878562471844,4.589150424862964,4.347064430251521,5.080330336833867,7.472007159224631l2.08676463320262,13.276235059014653c.378419290400416,2.407546768945394,1.576457482233309,4.61061186988627,3.391628803839922,6.236845456192896l9.051540682885388,8.109383004848496c2.184063089327537,1.956728110562835,3.45799469512167,4.732194804992105,3.517744407163264,7.663976933448794l.238215260633297,11.688679660515845c.061108807989513,2.998469867716267,1.39199962843486,5.830101697907594,3.661624366144679,7.790550468980655l24.509441155700188,21.170682093403229c1.608531632198719,1.389412006830753,2.761245351033722,3.231130185269649,3.307922547850467,5.285146684467691l9.712631059464911,36.493024700750539c.857819728675167,3.223064518326282,3.185307350842777,5.852884778367297,6.280240263386077,7.096021875811857l28.875772790972405,11.598488687219287c6.696150070671138,2.689632634417649,8.793673632766513,11.146314312507457,4.130568097569267,16.653400315532053l-18.960619348044929,22.392322162157143c-.575215248674795.679324072934833-1.062394781150942,1.428528979420662-1.449990198399973,2.229855112091172l-24.727354801188994,51.122058497508988c-1.013282175586937,2.094889286430771-1.307575812670621,4.465428136190894-.837304146245515,6.744495149141585l3.734097999406004,18.096475252830714c.684662730734999,3.3180656118966-.261237772287132,6.763328156526768-2.544165513980261,9.266638641851387l-11.256093478454204,12.342702011024812c-2.318860761288306,2.542712303911685-3.256079984179451,6.054406338118497-2.512569582888318,9.414420233011697l2.983936201453616,13.484770463126551c.826716950918126,3.736034408409978-.428393913285618,7.627304959160028-3.282278242731991,10.176178877560233l-4.603348351185559,4.111363038988202c-2.804409484811913,2.504686724192652-4.068644891951408,6.309684938791179-3.320783120188935,9.99463689440563l.000004447436368.00002191393105c1.523218842581628,7.505381963281252-5.185584097207538,14.092335321849532-12.661788552422877,12.43181702896436l-52.420007093838649-11.642857176258985c-5.593938073241588-1.24245351441823-11.160207240927775,2.194665614939368-12.554980080905807,7.752582727276604l-2.621095893733582,10.444592340276358c-.280599825524405,1.118139475691351-.376558488045703,2.274624538640637-.284081126819729,3.42371987273691l2.977408351447593,36.996363207723334c.488690415972087,6.072317260948694-4.238971799743013,11.301650996740136-10.329657101296107,11.425779147130015l-.295195010863608.006016073544743c-4.477969331042914.09126100316098-8.528160047208075-2.647229569112824-10.111643979329529-6.836873532171012l-6.531366768362204-17.280946649671023c-1.491207724895503-3.945495950758414-5.183602008026355-6.628220177792173-9.396797154737214-6.827281555146328l-314.476011787750394-14.858088901957672c-2.55598397263384-.120762906148229-4.981579288049033-1.163821905447548-6.827440689419745-2.935948716594794l-16.306812297716533-15.655422046147578c-1.471072541608009-1.412309228737286-2.502608150898595-3.219691039141253-2.970437962172582-5.204585758750909l-8.493107982612855-36.034311584053285c-.422082123270229-1.790797759213092-1.303897687967037-3.44055935830329-2.558394858591782-4.786422197556021l-11.311012655602099-12.134799475008549c-2.573682956957782-2.761125599083243-3.481284883779153-6.684342737544284-2.381714387782267-10.295243353899423l12.967116814204928-42.58296331823658c.767727675010974-2.52115561939172.566801409935579-5.23808699462279-.563442037402638-7.618881229731414l-14.63036175045454-30.818033933328479c-1.514822677298071-3.190888746858036-1.337226800724238-6.92729002931992.473416865137551-9.960115156778556l25.727869375929004-43.094138394231777c.259799896539334-.435164394404637.550534705726022-.851097175671384.869958274714008-1.244584939107881l6.13803551316596-7.561251267796251c2.522498409914988-3.1073857847623,3.075454181242094-7.372256600217952,1.428806711453944-11.020187075651847l-39.699646815615779-87.949335932406029c-.372907504994146-.826127435864692-.638102005814289-1.696752883462977-.789067460214937-2.590484375103188l-48.89539544449508-289.465923698648112c-1.082752169013474-6.410007606873478,3.817577047910163-12.270997039566282,10.318014211869013-12.340757035934075"/><path d="M231.4541015625,203.55810546875c-4.0693359375.0419921875-6.9970703125,1.2021484375-8.7841796875,3.478515625-1.7880859375,2.2783203125-2.66015625,5.37646484375-2.6201171875,9.2958984375.01953125,1.904296875.26171875,3.62890625.7255859375,5.17333984375.46484375,1.544921875,1.150390625,2.8720703125,2.0576171875,3.98291015625.908203125,1.1103515625,2.037109375,1.966796875,3.38671875,2.568359375,1.3505859375.6025390625,2.9208984375.89404296875,4.712890625.87548828125.970703125-.01025390625,1.80078125-.037109375,2.4912109375-.08154296875s1.2958984375-.1259765625,1.8173828125-.2431640625l-.1396484375-13.4951171875,8.736328125-.09033203125.19921875,19.20703125c-1.0419921875.421875-2.716796875.8779296875-5.0263671875,1.36767578125-2.310546875.490234375-5.1640625.75341796875-8.560546875.7890625-2.9111328125.02978515625-5.5576171875-.39111328125-7.9375-1.26171875-2.380859375-.87158203125-4.4189453125-2.15673828125-6.1162109375-3.85693359375-1.6982421875-1.69970703125-3.017578125-3.79541015625-3.9580078125-6.287109375-.9404296875-2.4912109375-1.427734375-5.3427734375-1.4609375-8.55419921875-.033203125-3.24755859375.4404296875-6.12646484375,1.4228515625-8.63916015625.982421875-2.51025390625,2.341796875-4.64404296875,4.078125-6.3984375,1.736328125-1.75390625,3.78515625-3.09130859375,6.146484375-4.01171875,2.3623046875-.92041015625,4.8857421875-1.39453125,7.57421875-1.42236328125,1.828125-.01904296875,3.4814453125.08544921875,4.9599609375.3125,1.4765625.22802734375,2.7490234375.49462890625,3.81640625.80029296875,1.06640625.30615234375,1.947265625.6240234375,2.6416015625.95263671875.6943359375.3291015625,1.19140625.58544921875,1.4931640625.76904296875l-2.4482421875,7.02587890625c-1.2021484375-.6220703125-2.580078125-1.158203125-4.1337890625-1.609375-1.5537109375-.45068359375-3.24609375-.66650390625-5.07421875-.6474609375Z"/><path d="M252.1689453125,235.43310546875l-.4013671875-38.80615234375,26.20703125-.27197265625.076171875,7.3359375-17.4716796875.18115234375.078125,7.61572265625,15.5107421875-.16064453125.07421875,7.16748046875-15.5107421875.16064453125.09765625,9.3515625,18.7587890625-.1943359375.0751953125,7.33544921875-27.494140625.28515625Z"/><path d="M321.8525390625,215.27783203125c.0341796875,3.3232421875-.431640625,6.2490234375-1.3935546875,8.779296875-.962890625,2.52978515625-2.2958984375,4.6533203125-3.994140625,6.36962890625-1.7001953125,1.71728515625-3.73046875,3.0166015625-6.0927734375,3.8994140625s-4.904296875,1.3388671875-7.62890625,1.3671875c-2.6513671875.02734375-5.1572265625-.37646484375-7.517578125-1.2099609375-2.361328125-.833984375-4.4287109375-2.09130859375-6.2001953125-3.77197265625-1.7724609375-1.6806640625-3.173828125-3.77587890625-4.208984375-6.28515625-1.0341796875-2.50927734375-1.568359375-5.4248046875-1.6025390625-8.748046875-.0341796875-3.32177734375.4580078125-6.2490234375,1.4775390625-8.77978515625,1.01953125-2.5302734375,2.4052734375-4.66357421875,4.1611328125-6.39892578125s3.7958984375-3.044921875,6.1201171875-3.92822265625c2.32421875-.8828125,4.7744140625-1.33740234375,7.3505859375-1.36376953125,2.650390625-.02783203125,5.15625.37548828125,7.5166015625,1.20947265625,2.3603515625.83544921875,4.4267578125,2.10205078125,6.2001953125,3.80078125,1.771484375,1.69873046875,3.17578125,3.80322265625,4.208984375,6.3125,1.0341796875,2.50927734375,1.5693359375,5.42578125,1.603515625,8.74755859375ZM292.2294921875,215.58447265625c.01953125,1.904296875.2705078125,3.619140625.7529296875,5.14501953125.482421875,1.52685546875,1.16796875,2.83544921875,2.0576171875,3.92724609375.8876953125,1.091796875,1.9697265625,1.93017578125,3.24609375,2.513671875,1.2744140625.58447265625,2.7333984375.8681640625,4.376953125.85107421875,1.6044921875-.0166015625,3.048828125-.330078125,4.330078125-.94091796875,1.28125-.6103515625,2.3544921875-1.47119140625,3.2216796875-2.5810546875.865234375-1.10986328125,1.5234375-2.4326171875,1.974609375-3.96875.451171875-1.53564453125.666015625-3.25537109375.646484375-5.15966796875-.01953125-1.9033203125-.2705078125-3.62744140625-.75390625-5.171875-.482421875-1.5439453125-1.16796875-2.86279296875-2.056640625-3.955078125-.8896484375-1.091796875-1.98046875-1.93017578125-3.2744140625-2.51416015625-1.29296875-.58349609375-2.7431640625-.86767578125-4.34765625-.85107421875-1.6435546875.01708984375-3.0966796875.33984375-4.359375.96923828125-1.2626953125.62890625-2.3271484375,1.49951171875-3.1923828125,2.60888671875-.8671875,1.11083984375-1.525390625,2.44287109375-1.9755859375,3.99658203125-.451171875,1.5546875-.666015625,3.26513671875-.646484375,5.130859375Z"/><path d="M340.2939453125,195.26171875c5.8232421875-.060546875,10.294921875.92919921875,13.416015625,2.96923828125,3.119140625,2.03955078125,4.7021484375,5.24365234375,4.7470703125,9.611328125.0283203125,2.7255859375-.57421875,4.9443359375-1.806640625,6.65478515625-1.2333984375,1.71240234375-3.0205078125,3.0654296875-5.36328125,4.06005859375.794921875.962890625,1.626953125,2.06494140625,2.5,3.306640625.87109375,1.2421875,1.734375,2.5390625,2.587890625,3.89306640625.8544921875,1.3544921875,1.6806640625,2.7646484375,2.4794921875,4.23095703125.7998046875,1.466796875,1.5419921875,2.90576171875,2.2294921875,4.31689453125l-9.7666015625.10107421875c-.724609375-1.2607421875-1.4599609375-2.54150390625-2.2041015625-3.8408203125s-1.5068359375-2.56103515625-2.287109375-3.78515625c-.78125-1.2236328125-1.552734375-2.38232421875-2.3125-3.4755859375-.7607421875-1.09326171875-1.5205078125-2.0849609375-2.279296875-2.97314453125l-4.3125.044921875.146484375,14.1669921875-8.7353515625.09033203125-.3955078125-38.24609375c1.8994140625-.39208984375,3.865234375-.67431640625,5.8984375-.84521484375,2.0341796875-.16943359375,3.8525390625-.263671875,5.4580078125-.2802734375ZM340.875,202.7041015625c-.634765625.0068359375-1.203125.0322265625-1.70703125.07421875-.50390625.04248046875-.9794921875.0849609375-1.4267578125.12646484375l.1083984375,10.52783203125,2.4638671875-.025390625c3.28515625-.0341796875,5.6318359375-.46923828125,7.04296875-1.3056640625,1.41015625-.8349609375,2.10546875-2.24267578125,2.0849609375-4.2216796875-.01953125-1.904296875-.75390625-3.2490234375-2.1982421875-4.03759765625-1.4462890625-.787109375-3.5673828125-1.1669921875-6.3681640625-1.13818359375Z"/><path d="M384.26953125,201.97509765625c-4.0693359375.0419921875-6.9970703125,1.20166015625-8.7841796875,3.478515625-1.7880859375,2.27783203125-2.66015625,5.3759765625-2.6201171875,9.29541015625.01953125,1.904296875.26171875,3.62939453125.7255859375,5.17333984375.46484375,1.54541015625,1.150390625,2.8720703125,2.0576171875,3.98291015625.908203125,1.1103515625,2.037109375,1.966796875,3.38671875,2.56884765625,1.3505859375.60205078125,2.921875.8935546875,4.7138671875.875.9697265625-.009765625,1.7998046875-.03662109375,2.4912109375-.08154296875.689453125-.0439453125,1.294921875-.12548828125,1.81640625-.24267578125l-.1396484375-13.4951171875,8.736328125-.0908203125.19921875,19.20703125c-1.0419921875.421875-2.716796875.8779296875-5.0263671875,1.36767578125-2.310546875.490234375-5.1640625.75390625-8.5595703125.7890625-2.912109375.0302734375-5.55859375-.390625-7.9384765625-1.26171875-2.380859375-.87158203125-4.4189453125-2.15673828125-6.1162109375-3.85693359375-1.6982421875-1.69921875-3.017578125-3.79541015625-3.9580078125-6.28662109375-.939453125-2.49169921875-1.4267578125-5.3427734375-1.4599609375-8.55419921875-.033203125-3.24755859375.4404296875-6.126953125,1.421875-8.63916015625.982421875-2.5107421875,2.341796875-4.64404296875,4.078125-6.3984375,1.736328125-1.75390625,3.78515625-3.09130859375,6.146484375-4.01220703125,2.3623046875-.92041015625,4.88671875-1.39453125,7.5751953125-1.42236328125,1.8271484375-.0185546875,3.48046875.0859375,4.958984375.3125,1.4765625.22802734375,2.7490234375.49462890625,3.81640625.80078125,1.06640625.30615234375,1.947265625.62353515625,2.6416015625.95263671875.6943359375.32861328125,1.19140625.58544921875,1.4931640625.7685546875l-2.4482421875,7.0263671875c-1.2021484375-.62255859375-2.580078125-1.15869140625-4.1337890625-1.60986328125-1.5537109375-.4501953125-3.24609375-.666015625-5.07421875-.64697265625Z"/><path d="M404.5830078125,195.04345703125l8.7353515625-.09033203125.4013671875,38.80615234375-8.7353515625.09033203125-.4013671875-38.80615234375Z"/><path d="M448.7138671875,233.396484375c-.4462890625-1.34326171875-.9248046875-2.7236328125-1.435546875-4.13916015625-.51171875-1.41650390625-1.021484375-2.82666015625-1.529296875-4.23046875l-15.1552734375.1572265625c-.4755859375,1.42041015625-.953125,2.84423828125-1.4296875,4.27197265625-.4775390625,1.42822265625-.921875,2.81396484375-1.3330078125,4.15673828125l-9.0712890625.09423828125c1.41796875-4.1953125,2.7626953125-8.07421875,4.0361328125-11.6337890625,1.2744140625-3.56005859375,2.5205078125-6.9150390625,3.7431640625-10.06396484375s2.4267578125-6.13818359375,3.615234375-8.9697265625c1.1875-2.8310546875,2.423828125-5.59765625,3.70703125-8.29931640625l8.28125-.0859375c1.30078125,2.6748046875,2.5859375,5.41552734375,3.8525390625,8.22119140625,1.2666015625,2.80615234375,2.5458984375,5.76953125,3.8349609375,8.892578125,1.2880859375,3.12255859375,2.6083984375,6.451171875,3.95703125,9.98388671875,1.349609375,3.53271484375,2.77734375,7.3828125,4.283203125,11.5478515625l-9.3564453125.0966796875ZM437.908203125,203.4912109375c-.1884765625.56494140625-.4658203125,1.33544921875-.83203125,2.30859375-.3642578125.974609375-.779296875,2.099609375-1.24609375,3.3759765625-.4658203125,1.2763671875-.9892578125,2.68212890625-1.564453125,4.216796875-.5771484375,1.5341796875-1.162109375,3.1435546875-1.7568359375,4.8271484375l11.0966796875-.115234375c-.611328125-1.67626953125-1.2021484375-3.2783203125-1.775390625-4.80517578125-.5712890625-1.52685546875-1.1162109375-2.92431640625-1.62890625-4.19189453125-.5146484375-1.265625-.9658203125-2.38134765625-1.353515625-3.34716796875-.3876953125-.96435546875-.701171875-1.720703125-.939453125-2.26904296875Z"/></svg>