<?xml version="1.0" encoding="UTF-8"?><svg id="Layer_2" xmlns="http://www.w3.org/2000/svg" viewBox="0 0 1000 1000"><defs><style>.cls-1{fill:none;stroke:#000;stroke-miterlimit:10;stroke-width:10px;}</style></defs><path class="cls-1" d="M651.979790525172575,179.01000979096716c6.870502487150588-.272040390915208,12.594093758998497,5.035696090865713,12.594093758998497,11.679053888490671v48.713486062171796c0,2.770110622935135,1.018289321658813,5.450192975011305,2.873321894938272,7.562427630990896l24.362619769144658,27.740520855590148c1.779679092273,2.026433341047778,2.791475557532976,4.578289656509696,2.868569348416713,7.234831371150904l9.316831752634243,321.044690057155094c.124583219954729,4.292959484399034-2.197556228460599,8.306185443205322-6.04793680720104,10.452316723862168l-11.261578966634261,6.276996882696039c-5.729711728505208,3.1936358804669-7.742418650075706,10.241025684486885-4.518551105073129,15.821474376401966l16.936124790199756,29.316085140668292c1.858278393503497,3.216641839486329,2.038333534857884,7.091401055375172.485876134656792,10.455980408980395l-33.95967616586131,73.599459326878787c-1.944736446148454,4.214750172259301-6.274047134016655,6.92963167317248-11.050400710148097,6.92963167317248h-3.742134828149574c-5.724128344661949,0-10.664947993802343,3.87562472810896-11.840692609146572,9.287949031273456l-15.223056340519179,70.076542750091903c-.6205766654748,2.856710653559276-.112383805917489,5.83437320378107,1.424632827918686,8.34737391474664l2.329780769992794,3.809158991845834c4.384173158730846,7.168061829879662-.173774814931676,16.340371834998223-8.705050475979078,17.51784400289398l-16.682728756059078,2.302521870729834c-5.960390975902556.822643032850465-10.387653518897423,5.754414556391566-10.387653518897423,11.571379226639692v.000024831211704c0,7.516929944014919-7.237941500618035,13.079773647445109-14.819162178493571,11.389520488344715l-19.859578208310268-4.42774537654077c-4.360799388196028-.972251732970108-8.920924339943667.460665875991253-11.855390474847809,3.725292169025124l-14.926419751678623,16.605808396472639c-6.495971041442317,7.226840210701994-18.737066307403438,4.259806044879952-20.932694751461895-5.073730672042075l-9.974408743946697-42.400849056775769c-.522770841171223-2.222279846024321-1.706539724667891-4.248447855939958-3.405666738384753-5.829223165041185l-79.930857530658614-74.363320104799641c-2.658641326079305-2.47345520969975-4.003226686621929-5.98410745188994-3.651449820772541-9.533772177443097l8.06006012738726-81.331417433742899c.582971940981224-5.882578235776236-3.470241754312156-11.260188686168476-9.444046450975293-12.529910018729424l-35.401813323818715-7.524591089122623c-4.66920785020011-.992431643586315-8.295632502195076-4.548220278982626-9.253700367087731-9.073455471507259l-7.123372626718265-33.645775712884642c-.604323811636277-2.854398399416823-2.290226503835584-5.387860295011706-4.727299589572795-7.103869893942829l-56.122513695903763-39.517391900119037c-2.124096522831678-1.495634268654612-3.686294396238736-3.618869387930317-4.450306846025342-6.048560139463007l-22.679990734344756-72.126264104072106c-1.155062505709793-3.673297062573511-.369495475666554-7.660390683256082,2.101653788111435-10.66680511145023l22.344262414117111-27.184158356514672c1.699191135816363-2.067245723219457,2.624068726330734-4.62930531733673,2.624068726330734-7.269092174870821v-8.465548460882019c0-4.89717103104158,3.159757512321448-9.275181338529364,7.916090251193964-10.968159607054076l7.054855240447068-2.511118810518383c3.40304151737655-1.211285175388184,6.064179967375821-3.83356092845861,7.250495303116622-7.144610619990999l16.095554076389817-44.923282835597092c.848529018458066-2.368275668508431.886734497136786-4.937329388960279.108980441080348-7.328179551886024l-7.271956190063065-22.354313045892923c-1.875209656678635-5.764476929796729,1.106227170690545-11.959643778910504,6.876888574519398-14.289577337603987l56.915604404173791-22.979961469697628c2.974807720605895-1.201093575567029,5.330357238832221-3.499654258764167,6.543846991819009-6.38552885255649l11.784422632699716-28.025260035810788c.160821991512421-.382460666265615.342502500299815-.756421741679333.544277790824708-1.120311195395516l11.838371052326693-21.349781551270098c2.363240986396704-4.261961260507633,1.766567484071857-9.489765770629674-1.501081198559405-13.151847751412788l-21.134377005346323-23.685478068003249c-.143215020147181-.160502304745023-.281885873217107-.32473757138996-.415858795151507-.492523688970323l-13.679465105993586-17.132001807952292c-6.135921958777544-7.68455676276244-.46615039848075-18.828453116591845,9.579506540203511-18.828453116591845"/><path d="M411.662109375,164.755859375l8.736328125-.0908203125.400390625,38.806640625-8.734375.0908203125-.40234375-38.806640625Z"/><path d="M455.607421875,195.6064453125l.078125,7.50390625-25.927734375.2685546875-.400390625-38.806640625,8.734375-.08984375.32421875,31.302734375,17.19140625-.1787109375Z"/><path d="M487.1328125,195.2802734375l.078125,7.5029296875-25.92578125.2685546875-.40234375-38.8056640625,8.734375-.0908203125.32421875,31.302734375,17.19140625-.177734375Z"/><path d="M492.408203125,163.9189453125l8.736328125-.08984375.400390625,38.8056640625-8.734375.0908203125-.40234375-38.806640625Z"/><path d="M536.54296875,202.2724609375c-2.546875-4.416015625-5.298828125-8.7744140625-8.25390625-13.0751953125-2.95703125-4.2998046875-6.099609375-8.35546875-9.423828125-12.1669921875l.263671875,25.4228515625-8.623046875.0888671875-.40234375-38.8056640625,7.111328125-.07421875c1.24609375,1.2197265625,2.623046875,2.7177734375,4.134765625,4.494140625s3.052734375,3.673828125,4.623046875,5.69140625c1.5703125,2.0205078125,3.1328125,4.1123046875,4.685546875,6.2802734375,1.552734375,2.1689453125,3.01171875,4.2529296875,4.376953125,6.255859375l-.236328125-22.9033203125,8.6796875-.08984375.40234375,38.8056640625-7.337890625.076171875Z"/><path d="M589.595703125,182.2890625c.03515625,3.3232421875-.431640625,6.25-1.392578125,8.7802734375-.962890625,2.529296875-2.296875,4.6533203125-3.994140625,6.369140625-1.69921875,1.716796875-3.73046875,3.0166015625-6.091796875,3.8994140625-2.36328125.8828125-4.90625,1.3388671875-7.630859375,1.3671875-2.650390625.02734375-5.15625-.3759765625-7.515625-1.2099609375-2.361328125-.833984375-4.4296875-2.0908203125-6.201171875-3.7724609375-1.771484375-1.6806640625-3.173828125-3.775390625-4.208984375-6.2841796875-1.03515625-2.509765625-1.568359375-5.42578125-1.603515625-8.7490234375-.033203125-3.3212890625.458984375-6.248046875,1.478515625-8.779296875,1.01953125-2.5302734375,2.40625-4.6630859375,4.162109375-6.3994140625,1.755859375-1.734375,3.794921875-3.0439453125,6.119140625-3.927734375,2.32421875-.8828125,4.7734375-1.3369140625,7.349609375-1.3642578125,2.650390625-.02734375,5.158203125.3759765625,7.517578125,1.2099609375,2.361328125.8349609375,4.427734375,2.1025390625,6.19921875,3.80078125,1.771484375,1.69921875,3.17578125,3.8037109375,4.208984375,6.3125,1.03515625,2.509765625,1.5703125,5.42578125,1.603515625,8.7470703125ZM559.974609375,182.5966796875c.01953125,1.904296875.26953125,3.619140625.751953125,5.14453125.482421875,1.5263671875,1.16796875,2.8359375,2.05859375,3.9267578125.88671875,1.0927734375,1.96875,1.9306640625,3.244140625,2.5146484375s2.734375.8671875,4.376953125.8505859375c1.60546875-.0166015625,3.048828125-.330078125,4.33203125-.94140625,1.28125-.609375,2.353515625-1.470703125,3.220703125-2.5810546875.865234375-1.109375,1.5234375-2.4326171875,1.974609375-3.9677734375.451171875-1.5361328125.666015625-3.255859375.646484375-5.16015625-.01953125-1.9033203125-.26953125-3.626953125-.75390625-5.171875-.482421875-1.5439453125-1.16796875-2.8623046875-2.056640625-3.955078125-.888671875-1.091796875-1.98046875-1.9296875-3.2734375-2.5146484375-1.294921875-.5830078125-2.744140625-.8671875-4.349609375-.8505859375-1.642578125.0166015625-3.095703125.33984375-4.359375.9697265625-1.26171875.62890625-2.326171875,1.4990234375-3.19140625,2.6083984375-.8671875,1.111328125-1.525390625,2.443359375-1.974609375,3.9970703125-.451171875,1.5546875-.666015625,3.2646484375-.646484375,5.130859375Z"/><path d="M596.67578125,162.8388671875l8.734375-.08984375.400390625,38.8056640625-8.734375.0908203125-.400390625-38.806640625Z"/><path d="M625.28515625,194.6884765625c1.232421875-.0126953125,2.248046875-.1259765625,3.048828125-.33984375.798828125-.212890625,1.44140625-.4990234375,1.923828125-.859375.48046875-.359375.8125-.783203125.994140625-1.2705078125.181640625-.486328125.26953125-1.0283203125.263671875-1.6259765625-.013671875-1.26953125-.623046875-2.318359375-1.826171875-3.1455078125-1.203125-.828125-3.265625-1.7119140625-6.1875-2.65234375-1.2734375-.4345703125-2.548828125-.9345703125-3.822265625-1.5009765625-1.275390625-.5654296875-2.421875-1.28125-3.439453125-2.1474609375-1.015625-.8671875-1.849609375-1.921875-2.49609375-3.1669921875-.6484375-1.2431640625-.98046875-2.7626953125-1-4.5546875-.017578125-1.791015625.30078125-3.4091796875.95703125-4.853515625.658203125-1.443359375,1.59765625-2.6767578125,2.818359375-3.697265625,1.22265625-1.021484375,2.70703125-1.810546875,4.45703125-2.37109375,1.748046875-.5576171875,3.72265625-.849609375,5.92578125-.873046875,2.61328125-.0263671875,4.875.23046875,6.78515625.7705078125,1.91015625.5390625,3.484375,1.1396484375,4.72265625,1.798828125l-2.447265625,6.9140625c-1.08984375-.548828125-2.298828125-1.03125-3.62890625-1.4462890625s-2.927734375-.6142578125-4.794921875-.5947265625c-2.08984375.021484375-3.58984375.3271484375-4.498046875.9140625-.908203125.58984375-1.35546875,1.48046875-1.34375,2.673828125.0078125.7099609375.181640625,1.3056640625.521484375,1.787109375.341796875.482421875.8203125.9150390625,1.44140625,1.30078125s1.333984375.734375,2.138671875,1.0419921875c.806640625.3095703125,1.697265625.626953125,2.669921875.953125,2.025390625.7265625,3.787109375,1.4453125,5.2890625,2.1572265625,1.498046875.7119140625,2.75,1.548828125,3.75,2.5087890625.998046875.9609375,1.748046875,2.091796875,2.24609375,3.3935546875s.7578125,2.8857421875.77734375,4.751953125c.037109375,3.62109375-1.203125,6.4443359375-3.720703125,8.466796875-2.517578125,2.0234375-6.333984375,3.0615234375-11.447265625,3.115234375-1.71875.017578125-3.267578125-.0703125-4.65234375-.259765625-1.3828125-.19140625-2.607421875-.4306640625-3.67578125-.71875-1.06640625-.287109375-1.984375-.5947265625-2.75390625-.9228515625-.767578125-.328125-1.416015625-.6376953125-1.94140625-.931640625l2.392578125-6.9697265625c1.162109375.623046875,2.59765625,1.1767578125,4.302734375,1.6630859375,1.703125.486328125,3.78515625.716796875,6.25.69140625Z"/></svg>