<?xml version="1.0" encoding="UTF-8"?><svg id="Layer_2" xmlns="http://www.w3.org/2000/svg" viewBox="0 0 1000 1000"><defs><style>.cls-1{fill:none;stroke:#000;stroke-miterlimit:10;stroke-width:10px;}</style></defs><path class="cls-1" d="M64.511029793076887,513.177607211369832l-8.571845008828859-.098150897047162c-3.456141137206032-.039574135158546-5.894807203168966-3.402475890485221-4.858496238817679-6.699828958875514l62.750031420686355-199.659190883998235c.691691758824163-2.200837414442503,2.761487368484268-3.674093638424893,5.067483451714907-3.606975249307652l474.741123380934368,13.817828954954166c1.498868389862764.04362610698081,2.942438812053297-.567596313929243,3.954257350153057-1.674272839974947l28.628606002293964-31.312537815008909c1.116510579569876-1.221183446405121,2.751388079341268-1.83214357243196,4.395137656956649-1.642480159631305l19.796003157121959,2.284154210437919c2.153282011311603.248455616689171,4.231952302585341-.87672010867027,5.201318447412632-2.81545239832667l4.101205397806552-8.202410795613105c.798341427398555-1.59668285479529,2.365974255535548-2.666638475891887,4.143788731633322-2.828257973718792l38.027776571345385-3.457070597394704c1.912968723421727-.173906247584455,3.763953787700302.730286482874362,4.802671947856652,2.346070287563634l6.790733163439654,10.563362698681885c.34316566859161.533813262254625.584810008052955,1.126404908247423.71277928755444,1.747969980113339l6.494877268229175,31.546546731400667c.203213908715043.987038985182153.691293093428612,1.892863368373582,1.403873562907393,2.605443837852363l9.938159819335851,9.938159819335851c1.229018670224832,1.229018670224832,2.994650905764502,1.755908572900807,4.696211752943782,1.401416729737321l16.220004225451703-3.379167546967437c2.789716697481708-.581190978642553,5.521723940899392,1.211435217934195,6.099071786869899,4.001949806790435l3.891885707429537,18.810780919249737c.583747541024422,2.821446448286224-1.25856507840399,5.573589660816651-4.089547802395828,6.109180986977663l-56.191077127436074,10.630744321406382c-4.571396523011572.86485880165128-5.748158314985631,6.865047813969795-1.842068023692264,9.392518002452562l.000017000000298.000011000000086c3.005034448080551,1.944434054641533,3.162328735119445,6.284466282177164.305936348848263,8.441334002423901l-40.904371178114161,30.886974154900599c-1.383674592128955,1.044815508341344-2.149383078916799,2.71526145412281-2.03775462741396,4.445502452419532l1.585397374712556,24.573659308065544c.141184194861125,2.188355020347444,1.651451183181052,4.04782286173031,3.764354058561366,4.634740327113832l25.093404156059478,6.970390043348743c3.524989042185553.979163622829219,6.919648416122072-1.923113670814928,6.500301021975247-5.557457753428025l-.366567368802862-3.176917196280556c-.56609460240179-4.906153220816122,5.425176402302895-7.72307329133946,8.842292560375427-4.157386865525041l12.220482733178869,12.751808069404433c.120929904322111.126187726249555.235363623552985.258444312170468.342857712374098.396257246555251l36.807114636512779,47.188608508349716c1.238158024205404,1.587382082316253,1.438891162930304,3.750325858711221.513998865139001,5.538450967771496l-10.873090638890062,21.021308568520908c-1.398388583385895,2.703551261212851-.162023139493613,6.023716862702713,2.664068357327778,7.154153461431633l30.983850866618013,12.393540346647569c2.198878400296962.879551360118057,3.515517220970651,3.144250310553616,3.191923721869898,5.490303179036346l-2.937409310015937,21.296217497616453c-.305170185887619,2.212483847679323.849207184606712,4.369803109544591,2.859253289410844,5.343419191560315l58.65832118551225,28.412624324231729c1.25929587284736.609971438409048,2.712457729943708.681787630006511,4.025760647844436.198955674895842l61.551007938196562-22.629047036101838c2.492063448185945-.916199797125955,3.880486383150128-3.575522447295953,3.207780111129978-6.144037304100493,0,0-6.261064090984291-27.568898219826224-11.037494617688935-38.520124385571762s-29.37261846538604-24.890815827473489-32.574524496045342-27.921020996609514.235681376103457-11.98694266196253,2.016887672722078-12.508573915549277,3.233428994164569-.377260661398395,8.007317645391595.050554042507429,13.381415545150958,1.844660587737962,27.077652098188992,12.636237645821893,30.165598211944598,61.657108880574015,30.165598211944598,61.657108880574015c.348686495704897.745467680473666.513810074007779,1.56358898819235.481560939813789,2.385941910157271l-1.752234340276118,44.681975677029186c-.11025794005036,2.811577471280543-2.454812037798547,5.015275049883712-5.267824191640102,4.951342955479049l-37.820089366507091-.859547485602889c-.73210961604309-.016638854909615-1.459361877896299.1229046709268-2.133318985010192.409336441449341l-37.404082462113365,15.896735046399044c-1.0215565514427.434161534363739-2.15597066590999.526970748420354-3.23451033672427.264623260924054l-32.069676704362791-7.80073217133031c-1.986592759392806-.483225265799774-4.071015488139892.25333851938376-5.312958701504613,1.877418106088953l-9.757101626371878,12.759286742180848c-.772077407189499,1.00963968632459-1.889954904452679,1.698432792893072-3.138931326242528,1.934088721534863l-43.36100117074966,8.181320975612834c-3.640999773053409.686981089254914-6.795959365190356-2.577135331453974-5.985580368551382-6.192672393382963l9.945034573456724-44.370154250806081c.700201445137282-3.123975678303395-1.58682189620049-6.123932229846105-4.784683240064624-6.276211341459202l-12.130968054918412-.577665145472565c-1.714596277270175-.081647441773384-3.357340787257272.695568546454524-4.381604454474655,2.07302658167464l-24.47952491009346,32.920740396333713c-1.621060790854244,2.18004727045809-4.65584096159364,2.727748602510474-6.936698935938693,1.251899324992337l-9.087106067672721-5.879892161436146c-2.198628113643281-1.422641720591855-5.114555032072531-.970651387648104-6.779316250989723,1.050844378178226l-8.257234655151478,10.026642081256796c-1.621824615416699,1.96935846157794-1.559062164564239,4.828841481325071.147609363419178,6.725143179084625l2.013918158727392,2.237686843029223c2.112582551279047,2.347313945865608,1.636937623186896,6.025181145245369-1.003291592161986,7.757831567818357l-18.002085311141855,11.813868485436615c-3.615518792974399,2.372684207888597-8.369586564342171-.493197859525026-7.95958128629718-4.798253278991979l.204883183800121-2.151273429904904c.359950899653995-3.779484446366041-3.350936443550381-6.638050716095677-6.913437040488134-5.325550496170763l-4.729484224375483,1.742441556349149c-3.263425948922304,1.202314823287452-6.756549047397129-1.10590936087101-6.930225085556231-4.579430124038481l-1.458990110373634-29.179802207481771c-.113343769287894-2.266875385759704-1.696102175455962-4.192860341692722-3.898041603932143-4.743345198810857l-10.681083202765876-2.670270800692379c-1.047927788564266-.261981947140157-1.987075738195927-.846548755627737-2.684809137712364-1.67114277323526l-30.540700683251998-36.093555352936164c-.887219558502693-1.048532205502852-1.319273417622753-2.407796322235299-1.200285240274752-3.776160361741859l1.401255931672495-16.114443214240964c.233055412796602-2.680137247156381-1.634215091567967-5.088799190672944-4.287862339988351-5.531073732077857l-2.992059964733926-.498676660788988c-2.48551603568194-.414252672611838-4.307240837384597-2.564726700282336-4.307240837384597-5.084527335333405v-26.537369019644757c0-2.823819630857543-2.272008549012753-5.121992482983842-5.095643080825539-5.154324176095542l-9.914476417694459-.113524539134232"/><path d="M85.44140625,493.533203125c.673828125,1.232421875,1.44921875,2.75390625,2.330078125,4.564453125.87890625,1.8115234375,1.7958984375,3.771484375,2.7509765625,5.8798828125.9541015625,2.109375,1.8994140625,4.265625,2.8359375,6.4677734375.935546875,2.203125,1.814453125,4.275390625,2.638671875,6.2158203125.8232421875-1.9404296875,1.703125-4.0126953125,2.638671875-6.2158203125.935546875-2.2021484375,1.880859375-4.3583984375,2.8359375-6.4677734375.9541015625-2.1083984375,1.87109375-4.068359375,2.7509765625-5.8798828125.8798828125-1.810546875,1.6572265625-3.33203125,2.3310546875-4.564453125h7.951171875c.373046875,2.576171875.71875,5.4599609375,1.0361328125,8.65234375s.5966796875,6.515625.83984375,9.9677734375c.2431640625,3.4541015625.466796875,6.916015625.6728515625,10.388671875.2041015625,3.4716796875.3818359375,6.7392578125.53125,9.7998046875h-8.51171875c-.1123046875-3.7705078125-.26171875-7.876953125-.4482421875-12.3203125-.1875-4.4423828125-.466796875-8.921875-.83984375-13.439453125-.6748046875,1.5673828125-1.423828125,3.3037109375-2.2470703125,5.2080078125-.82421875,1.9033203125-1.638671875,3.8076171875-2.443359375,5.7119140625-.8056640625,1.9033203125-1.58203125,3.7236328125-2.3310546875,5.4599609375-.7490234375,1.7353515625-1.38671875,3.2197265625-1.91015625,4.451171875h-6.1044921875c-.5244140625-1.2314453125-1.1611328125-2.7158203125-1.91015625-4.451171875-.7490234375-1.736328125-1.5263671875-3.556640625-2.33203125-5.4599609375-.8046875-1.904296875-1.619140625-3.80859375-2.4423828125-5.7119140625-.82421875-1.904296875-1.5732421875-3.640625-2.2470703125-5.2080078125-.3740234375,4.517578125-.6533203125,8.9970703125-.83984375,13.439453125-.1875,4.443359375-.3359375,8.5498046875-.4482421875,12.3203125h-8.51171875c.1484375-3.060546875.326171875-6.328125.53125-9.7998046875.205078125-3.47265625.4287109375-6.9345703125.6728515625-10.388671875.2421875-3.4521484375.521484375-6.775390625.83984375-9.9677734375.31640625-3.1923828125.662109375-6.076171875,1.0361328125-8.65234375h8.34375Z"/><path d="M151.404296875,532.341796875c-.4326171875-1.3486328125-.896484375-2.7333984375-1.392578125-4.154296875-.4970703125-1.421875-.9921875-2.8369140625-1.4853515625-4.24609375h-15.15625c-.490234375,1.416015625-.982421875,2.833984375-1.4736328125,4.2568359375-.4931640625,1.4228515625-.951171875,2.8046875-1.3759765625,4.1435546875h-9.072265625c1.4609375-4.1806640625,2.845703125-8.044921875,4.15625-11.591796875,1.3115234375-3.546875,2.5927734375-6.888671875,3.84765625-10.0244140625s2.490234375-6.1123046875,3.7080078125-8.931640625c1.216796875-2.818359375,2.4814453125-5.572265625,3.7919921875-8.2607421875h8.28125c1.2744140625,2.6884765625,2.53125,5.4423828125,3.7685546875,8.2607421875,1.2373046875,2.8193359375,2.4853515625,5.7958984375,3.7421875,8.931640625,1.255859375,3.1357421875,2.541015625,6.4775390625,3.853515625,10.0244140625s2.7001953125,7.4111328125,4.1630859375,11.591796875h-9.3564453125ZM140.908203125,502.3251953125c-.1943359375.5634765625-.4794921875,1.3310546875-.85546875,2.30078125-.375.970703125-.8017578125,2.0908203125-1.28125,3.3623046875s-1.0166015625,2.671875-1.6083984375,4.2001953125c-.5927734375,1.5283203125-1.1943359375,3.1318359375-1.806640625,4.80859375h11.09765625c-.59375-1.6826171875-1.1689453125-3.2900390625-1.7255859375-4.8232421875-.5556640625-1.533203125-1.0859375-2.935546875-1.5859375-4.2080078125-.5009765625-1.271484375-.9404296875-2.3916015625-1.318359375-3.361328125-.3779296875-.9677734375-.68359375-1.7275390625-.916015625-2.279296875Z"/><path d="M177.392578125,525.677734375c1.2314453125,0,2.248046875-.1025390625,3.0517578125-.30859375.8017578125-.2041015625,1.4462890625-.484375,1.931640625-.83984375.4853515625-.3544921875.8212890625-.7744140625,1.0078125-1.259765625.1865234375-.484375.2802734375-1.0263671875.2802734375-1.6240234375,0-1.2685546875-.59765625-2.32421875-1.7919921875-3.1640625-1.1953125-.83984375-3.248046875-1.7451171875-6.16015625-2.7158203125-1.26953125-.4482421875-2.5390625-.9609375-3.8076171875-1.5400390625-1.26953125-.578125-2.408203125-1.306640625-3.416015625-2.18359375s-1.830078125-1.94140625-2.4638671875-3.1923828125c-.6357421875-1.25-.9521484375-2.7724609375-.9521484375-4.564453125s.3359375-3.40625,1.0078125-4.84375c.671875-1.4365234375,1.6240234375-2.66015625,2.8564453125-3.66796875,1.2314453125-1.0078125,2.724609375-1.7822265625,4.4794921875-2.32421875,1.7548828125-.5400390625,3.732421875-.8115234375,5.9365234375-.8115234375,2.6123046875,0,4.8720703125.2802734375,6.775390625.83984375,1.904296875.5595703125,3.47265625,1.17578125,4.7041015625,1.84765625l-2.51953125,6.888671875c-1.083984375-.560546875-2.2880859375-1.0546875-3.6123046875-1.484375-1.326171875-.4287109375-2.921875-.6435546875-4.7880859375-.6435546875-2.0908203125,0-3.59375.2890625-4.5078125.8671875-.9150390625.580078125-1.3720703125,1.4658203125-1.3720703125,2.66015625,0,.7099609375.16796875,1.3076171875.50390625,1.7919921875.3359375.486328125.8115234375.923828125,1.427734375,1.31640625.6162109375.3916015625,1.3251953125.7470703125,2.1279296875,1.0634765625.802734375.318359375,1.689453125.64453125,2.66015625.98046875,2.0166015625.7470703125,3.7705078125,1.484375,5.2646484375,2.2119140625,1.4921875.7275390625,2.734375,1.578125,3.7236328125,2.5478515625.98828125.9716796875,1.7265625,2.109375,2.2119140625,3.416015625.484375,1.3076171875.7275390625,2.8935546875.7275390625,4.759765625,0,3.6220703125-1.26953125,6.431640625-3.8076171875,8.4287109375-2.5390625,1.9970703125-6.365234375,2.99609375-11.4794921875,2.99609375-1.7177734375,0-3.267578125-.103515625-4.6484375-.30859375-1.3818359375-.205078125-2.6044921875-.45703125-3.66796875-.755859375-1.064453125-.298828125-1.9794921875-.6162109375-2.744140625-.9521484375-.765625-.3359375-1.4091796875-.65234375-1.931640625-.9521484375l2.4638671875-6.943359375c1.15625.634765625,2.5849609375,1.2041015625,4.2841796875,1.7080078125,1.6982421875.50390625,3.779296875.755859375,6.244140625.755859375Z"/><path d="M209.9833984375,525.677734375c1.2314453125,0,2.248046875-.1025390625,3.0517578125-.30859375.8017578125-.2041015625,1.4462890625-.484375,1.931640625-.83984375.4853515625-.3544921875.8212890625-.7744140625,1.0078125-1.259765625.1865234375-.484375.2802734375-1.0263671875.2802734375-1.6240234375,0-1.2685546875-.59765625-2.32421875-1.7919921875-3.1640625-1.1953125-.83984375-3.248046875-1.7451171875-6.16015625-2.7158203125-1.26953125-.4482421875-2.5390625-.9609375-3.8076171875-1.5400390625-1.26953125-.578125-2.408203125-1.306640625-3.416015625-2.18359375s-1.830078125-1.94140625-2.4638671875-3.1923828125c-.6357421875-1.25-.9521484375-2.7724609375-.9521484375-4.564453125s.3359375-3.40625,1.0078125-4.84375c.671875-1.4365234375,1.6240234375-2.66015625,2.8564453125-3.66796875,1.2314453125-1.0078125,2.724609375-1.7822265625,4.4794921875-2.32421875,1.7548828125-.5400390625,3.732421875-.8115234375,5.9365234375-.8115234375,2.6123046875,0,4.8720703125.2802734375,6.775390625.83984375,1.904296875.5595703125,3.47265625,1.17578125,4.7041015625,1.84765625l-2.51953125,6.888671875c-1.083984375-.560546875-2.2880859375-1.0546875-3.6123046875-1.484375-1.326171875-.4287109375-2.921875-.6435546875-4.7880859375-.6435546875-2.0908203125,0-3.59375.2890625-4.5078125.8671875-.9150390625.580078125-1.3720703125,1.4658203125-1.3720703125,2.66015625,0,.7099609375.16796875,1.3076171875.50390625,1.7919921875.3359375.486328125.8115234375.923828125,1.427734375,1.31640625.6162109375.3916015625,1.3251953125.7470703125,2.1279296875,1.0634765625.802734375.318359375,1.689453125.64453125,2.66015625.98046875,2.0166015625.7470703125,3.7705078125,1.484375,5.2646484375,2.2119140625,1.4921875.7275390625,2.734375,1.578125,3.7236328125,2.5478515625.98828125.9716796875,1.7265625,2.109375,2.2119140625,3.416015625.484375,1.3076171875.7275390625,2.8935546875.7275390625,4.759765625,0,3.6220703125-1.26953125,6.431640625-3.8076171875,8.4287109375-2.5390625,1.9970703125-6.365234375,2.99609375-11.4794921875,2.99609375-1.7177734375,0-3.267578125-.103515625-4.6484375-.30859375-1.3818359375-.205078125-2.6044921875-.45703125-3.66796875-.755859375-1.064453125-.298828125-1.9794921875-.6162109375-2.744140625-.9521484375-.765625-.3359375-1.4091796875-.65234375-1.931640625-.9521484375l2.4638671875-6.943359375c1.15625.634765625,2.5849609375,1.2041015625,4.2841796875,1.7080078125,1.6982421875.50390625,3.779296875.755859375,6.244140625.755859375Z"/><path d="M258.0263671875,532.341796875c-.4326171875-1.3486328125-.896484375-2.7333984375-1.392578125-4.154296875-.4970703125-1.421875-.9921875-2.8369140625-1.4853515625-4.24609375h-15.15625c-.490234375,1.416015625-.982421875,2.833984375-1.4736328125,4.2568359375-.4931640625,1.4228515625-.951171875,2.8046875-1.3759765625,4.1435546875h-9.072265625c1.4609375-4.1806640625,2.845703125-8.044921875,4.15625-11.591796875,1.3115234375-3.546875,2.5927734375-6.888671875,3.84765625-10.0244140625s2.490234375-6.1123046875,3.7080078125-8.931640625c1.216796875-2.818359375,2.4814453125-5.572265625,3.7919921875-8.2607421875h8.28125c1.2744140625,2.6884765625,2.53125,5.4423828125,3.7685546875,8.2607421875,1.2373046875,2.8193359375,2.4853515625,5.7958984375,3.7421875,8.931640625,1.255859375,3.1357421875,2.541015625,6.4775390625,3.853515625,10.0244140625s2.7001953125,7.4111328125,4.1630859375,11.591796875h-9.3564453125ZM247.5302734375,502.3251953125c-.1943359375.5634765625-.4794921875,1.3310546875-.85546875,2.30078125-.375.970703125-.8017578125,2.0908203125-1.28125,3.3623046875s-1.0166015625,2.671875-1.6083984375,4.2001953125c-.5927734375,1.5283203125-1.1943359375,3.1318359375-1.806640625,4.80859375h11.09765625c-.59375-1.6826171875-1.1689453125-3.2900390625-1.7255859375-4.8232421875-.5556640625-1.533203125-1.0859375-2.935546875-1.5859375-4.2080078125-.5009765625-1.271484375-.9404296875-2.3916015625-1.318359375-3.361328125-.3779296875-.9677734375-.68359375-1.7275390625-.916015625-2.279296875Z"/><path d="M288.662109375,533.1259765625c-6.3095703125,0-11.1162109375-1.7548828125-14.419921875-5.2646484375-3.3037109375-3.5087890625-4.9560546875-8.4921875-4.9560546875-14.9521484375,0-3.2099609375.50390625-6.0751953125,1.51171875-8.595703125,1.0087890625-2.51953125,2.3896484375-4.6474609375,4.14453125-6.3837890625,1.75390625-1.736328125,3.8447265625-3.0517578125,6.271484375-3.9482421875,2.4267578125-.8955078125,5.05859375-1.34375,7.896484375-1.34375,1.642578125,0,3.1357421875.12109375,4.4794921875.3642578125,1.3447265625.2431640625,2.5205078125.5224609375,3.5283203125.83984375s1.8486328125.6435546875,2.5205078125.9794921875,1.15625.59765625,1.4560546875.7841796875l-2.5205078125,7.0556640625c-1.1953125-.6337890625-2.5859375-1.17578125-4.171875-1.6240234375-1.5869140625-.447265625-3.3876953125-.671875-5.404296875-.671875-1.34375,0-2.66015625.224609375-3.947265625.671875-1.2880859375.4482421875-2.427734375,1.16796875-3.416015625,2.15625-.990234375.990234375-1.783203125,2.2685546875-2.380859375,3.8359375-.59765625,1.568359375-.8955078125,3.47265625-.8955078125,5.7119140625,0,1.7919921875.1962890625,3.4638671875.587890625,5.0126953125s1.0263671875,2.8837890625,1.904296875,4.00390625c.876953125,1.1201171875,2.0244140625,2.0068359375,3.443359375,2.66015625s3.13671875.9794921875,5.15234375.9794921875c1.2685546875,0,2.408203125-.07421875,3.416015625-.2236328125s1.904296875-.326171875,2.6884765625-.5322265625c.783203125-.205078125,1.4736328125-.4384765625,2.0712890625-.7001953125.5966796875-.2607421875,1.138671875-.50390625,1.6240234375-.7275390625l2.408203125,7c-1.232421875.7470703125-2.9677734375,1.4189453125-5.2080078125,2.015625s-4.8349609375.896484375-7.7841796875.896484375Z"/><path d="M330.662109375,493.533203125h8.736328125v38.80859375h-8.736328125v-16.4638671875h-14.671875v16.4638671875h-8.7353515625v-38.80859375h8.7353515625v14.8408203125h14.671875v-14.8408203125Z"/><path d="M363.5341796875,533.1259765625c-2.7255859375,0-5.078125-.3837890625-7.056640625-1.1484375s-3.611328125-1.8291015625-4.8994140625-3.1923828125c-1.2880859375-1.3623046875-2.240234375-2.986328125-2.8564453125-4.8720703125-.6162109375-1.884765625-.923828125-3.9658203125-.923828125-6.2431640625v-24.13671875h8.736328125v23.408203125c0,1.568359375.1767578125,2.9033203125.5322265625,4.00390625.353515625,1.1015625.83984375,1.998046875,1.455078125,2.6884765625.6162109375.69140625,1.36328125,1.185546875,2.240234375,1.4833984375.876953125.2998046875,1.8388671875.4482421875,2.8837890625.4482421875,2.12890625,0,3.8544921875-.65234375,5.1806640625-1.9599609375,1.32421875-1.306640625,1.9873046875-3.5283203125,1.9873046875-6.6640625v-23.408203125h8.736328125v24.13671875c0,2.27734375-.3173828125,4.3671875-.9521484375,6.271484375s-1.60546875,3.5380859375-2.912109375,4.900390625c-1.306640625,1.36328125-2.9677734375,2.4169921875-4.9833984375,3.1640625-2.0166015625.74609375-4.40625,1.1201171875-7.16796875,1.1201171875Z"/><path d="M398.533203125,525.677734375c1.2314453125,0,2.248046875-.1025390625,3.0517578125-.30859375.8017578125-.2041015625,1.4462890625-.484375,1.931640625-.83984375.4853515625-.3544921875.8212890625-.7744140625,1.0078125-1.259765625.1865234375-.484375.2802734375-1.0263671875.2802734375-1.6240234375,0-1.2685546875-.59765625-2.32421875-1.7919921875-3.1640625-1.1953125-.83984375-3.248046875-1.7451171875-6.16015625-2.7158203125-1.26953125-.4482421875-2.5390625-.9609375-3.8076171875-1.5400390625-1.26953125-.578125-2.408203125-1.306640625-3.416015625-2.18359375s-1.830078125-1.94140625-2.4638671875-3.1923828125c-.6357421875-1.25-.9521484375-2.7724609375-.9521484375-4.564453125s.3359375-3.40625,1.0078125-4.84375c.671875-1.4365234375,1.6240234375-2.66015625,2.8564453125-3.66796875,1.2314453125-1.0078125,2.724609375-1.7822265625,4.4794921875-2.32421875,1.7548828125-.5400390625,3.732421875-.8115234375,5.9365234375-.8115234375,2.6123046875,0,4.8720703125.2802734375,6.775390625.83984375,1.904296875.5595703125,3.47265625,1.17578125,4.7041015625,1.84765625l-2.51953125,6.888671875c-1.083984375-.560546875-2.2880859375-1.0546875-3.6123046875-1.484375-1.326171875-.4287109375-2.921875-.6435546875-4.7880859375-.6435546875-2.0908203125,0-3.59375.2890625-4.5078125.8671875-.9150390625.580078125-1.3720703125,1.4658203125-1.3720703125,2.66015625,0,.7099609375.16796875,1.3076171875.50390625,1.7919921875.3359375.486328125.8115234375.923828125,1.427734375,1.31640625.6162109375.3916015625,1.3251953125.7470703125,2.1279296875,1.0634765625.802734375.318359375,1.689453125.64453125,2.66015625.98046875,2.0166015625.7470703125,3.7705078125,1.484375,5.2646484375,2.2119140625,1.4921875.7275390625,2.734375,1.578125,3.7236328125,2.5478515625.98828125.9716796875,1.7265625,2.109375,2.2119140625,3.416015625.484375,1.3076171875.7275390625,2.8935546875.7275390625,4.759765625,0,3.6220703125-1.26953125,6.431640625-3.8076171875,8.4287109375-2.5390625,1.9970703125-6.365234375,2.99609375-11.4794921875,2.99609375-1.7177734375,0-3.267578125-.103515625-4.6484375-.30859375-1.3818359375-.205078125-2.6044921875-.45703125-3.66796875-.755859375-1.064453125-.298828125-1.9794921875-.6162109375-2.744140625-.9521484375-.765625-.3359375-1.4091796875-.65234375-1.931640625-.9521484375l2.4638671875-6.943359375c1.15625.634765625,2.5849609375,1.2041015625,4.2841796875,1.7080078125,1.6982421875.50390625,3.779296875.755859375,6.244140625.755859375Z"/><path d="M420.5400390625,532.341796875v-38.80859375h26.2080078125v7.3359375h-17.47265625v7.6162109375h15.51171875v7.16796875h-15.51171875v9.3525390625h18.759765625v7.3359375h-27.4951171875Z"/><path d="M483.2587890625,493.533203125v7.4482421875h-11.7041015625v31.3603515625h-8.7353515625v-31.3603515625h-11.7041015625v-7.4482421875h32.1435546875Z"/><path d="M519.0986328125,493.533203125v7.4482421875h-11.7041015625v31.3603515625h-8.7353515625v-31.3603515625h-11.7041015625v-7.4482421875h32.1435546875Z"/><path d="M535.283203125,525.677734375c1.2314453125,0,2.248046875-.1025390625,3.0517578125-.30859375.8017578125-.2041015625,1.4462890625-.484375,1.931640625-.83984375.4853515625-.3544921875.8212890625-.7744140625,1.0078125-1.259765625.1865234375-.484375.2802734375-1.0263671875.2802734375-1.6240234375,0-1.2685546875-.59765625-2.32421875-1.7919921875-3.1640625-1.1953125-.83984375-3.248046875-1.7451171875-6.16015625-2.7158203125-1.26953125-.4482421875-2.5390625-.9609375-3.8076171875-1.5400390625-1.26953125-.578125-2.408203125-1.306640625-3.416015625-2.18359375s-1.830078125-1.94140625-2.4638671875-3.1923828125c-.6357421875-1.25-.9521484375-2.7724609375-.9521484375-4.564453125s.3359375-3.40625,1.0078125-4.84375c.671875-1.4365234375,1.6240234375-2.66015625,2.8564453125-3.66796875,1.2314453125-1.0078125,2.724609375-1.7822265625,4.4794921875-2.32421875,1.7548828125-.5400390625,3.732421875-.8115234375,5.9365234375-.8115234375,2.6123046875,0,4.8720703125.2802734375,6.775390625.83984375,1.904296875.5595703125,3.47265625,1.17578125,4.7041015625,1.84765625l-2.51953125,6.888671875c-1.083984375-.560546875-2.2880859375-1.0546875-3.6123046875-1.484375-1.326171875-.4287109375-2.921875-.6435546875-4.7880859375-.6435546875-2.0908203125,0-3.59375.2890625-4.5078125.8671875-.9150390625.580078125-1.3720703125,1.4658203125-1.3720703125,2.66015625,0,.7099609375.16796875,1.3076171875.50390625,1.7919921875.3359375.486328125.8115234375.923828125,1.427734375,1.31640625.6162109375.3916015625,1.3251953125.7470703125,2.1279296875,1.0634765625.802734375.318359375,1.689453125.64453125,2.66015625.98046875,2.0166015625.7470703125,3.7705078125,1.484375,5.2646484375,2.2119140625,1.4921875.7275390625,2.734375,1.578125,3.7236328125,2.5478515625.98828125.9716796875,1.7265625,2.109375,2.2119140625,3.416015625.484375,1.3076171875.7275390625,2.8935546875.7275390625,4.759765625,0,3.6220703125-1.26953125,6.431640625-3.8076171875,8.4287109375-2.5390625,1.9970703125-6.365234375,2.99609375-11.4794921875,2.99609375-1.7177734375,0-3.267578125-.103515625-4.6484375-.30859375-1.3818359375-.205078125-2.6044921875-.45703125-3.66796875-.755859375-1.064453125-.298828125-1.9794921875-.6162109375-2.744140625-.9521484375-.765625-.3359375-1.4091796875-.65234375-1.931640625-.9521484375l2.4638671875-6.943359375c1.15625.634765625,2.5849609375,1.2041015625,4.2841796875,1.7080078125,1.6982421875.50390625,3.779296875.755859375,6.244140625.755859375Z"/></svg>