<?xml version="1.0" encoding="UTF-8"?><svg id="Layer_2" xmlns="http://www.w3.org/2000/svg" viewBox="0 0 1000 1000"><defs><style>.cls-1{fill:none;stroke:#000;stroke-miterlimit:10;stroke-width:10px;}</style></defs><path class="cls-1" d="M625.958492470035708,135h73.212560989311896c13.295310983245145,0,24.203692953866266,10.526967425714247,24.676689202537091,23.813862047481962l20.823554971153499,584.952589644230102c.211958712670821,5.954112928666291-1.736019600652071,11.784087209458448-5.484709950784236,16.414822347856898l-2.890343312239565,3.570424091591121c-5.184402775134004,6.404262251635373-13.221658592023232,9.800536939566882-21.427516886125886,9.054549821921682l-.000043999998525-.000004000001354c-15.800232695271916-1.436384790478769-28.835681972452221,12.187142193779437-26.703950090974104,27.908664819675323l2.551984220041049,18.820883622805923c3.116718611245233,22.985799757936547-24.311682825422395,37.196166389374412-41.291326129006848,21.392602275647732L246.196270573243964,465.628563520551324c-5.208914624654426-4.848124001300675-8.073031609997997-11.707773204023397-7.858145520414837-18.820502769203813l8.912923594756649-295.017770986480173c.413098339236967-13.673555028750343,11.864094609063613-24.405349738663062,25.535692122179171-23.931874500112826,0,0,28.168027855641412,1.544883823238706,65.948474417413308,3.197586386431794"/><path d="M392.5107421875,153.8271484375c-2.6806640625-4.759765625-5.580078125-9.458984375-8.7001953125-14.099609375-3.1201171875-4.6396484375-6.4404296875-9.01953125-9.9599609375-13.140625v27.240234375h-9.240234375v-41.580078125h7.6201171875c1.3203125,1.3203125,2.779296875,2.9404296875,4.3798828125,4.8603515625,1.599609375,1.919921875,3.2294921875,3.970703125,4.890625,6.150390625,1.6591796875,2.1806640625,3.30859375,4.439453125,4.94921875,6.779296875,1.6396484375,2.33984375,3.1806640625,4.58984375,4.6201171875,6.75v-24.5400390625h9.2998046875v41.580078125h-7.859375Z"/><path d="M409.9697265625,153.8271484375v-41.580078125h28.080078125v7.8603515625h-18.7197265625v8.16015625h16.6201171875v7.6796875h-16.6201171875v10.0205078125h20.099609375v7.859375h-29.4599609375Z"/><path d="M459.41796875,153.8271484375c-1.6552734375-3.4921875-3.2880859375-7.1162109375-4.8974609375-10.873046875-1.6103515625-3.755859375-3.1396484375-7.4716796875-4.587890625-11.1484375-1.4501953125-3.67578125-2.78125-7.1953125-3.99609375-10.5576171875-1.21484375-3.361328125-2.2646484375-6.361328125-3.1484375-9.0009765625h10.3203125c.7783203125,2.408203125,1.6435546875,5,2.595703125,7.775390625.953125,2.775390625,1.923828125,5.5419921875,2.912109375,8.298828125s1.935546875,5.3974609375,2.8408203125,7.9228515625c.9052734375,2.5263671875,1.7724609375,4.70703125,2.6015625,6.54296875.78125-1.82421875,1.634765625-3.9990234375,2.5615234375-6.5244140625.92578125-2.525390625,1.8837890625-5.166015625,2.8720703125-7.9228515625s1.9580078125-5.5234375,2.91015625-8.298828125,1.8193359375-5.373046875,2.6015625-7.7939453125h9.96484375c-.9326171875,2.65234375-2.00390625,5.65625-3.2158203125,9.0107421875-1.2119140625,3.35546875-2.5380859375,6.873046875-3.9775390625,10.552734375-1.4404296875,3.6806640625-2.958984375,7.400390625-4.55859375,11.16015625-1.599609375,3.7607421875-3.2236328125,7.3798828125-4.8720703125,10.8564453125h-8.9267578125Z"/><path d="M514.3037109375,153.8271484375c-.462890625-1.4443359375-.9599609375-2.9287109375-1.4921875-4.451171875-.533203125-1.5224609375-1.0634765625-3.0390625-1.5908203125-4.548828125h-16.240234375c-.5244140625,1.517578125-1.0517578125,3.037109375-1.578125,4.5615234375-.5283203125,1.5244140625-1.01953125,3.00390625-1.4736328125,4.4384765625h-9.720703125c1.5654296875-4.4794921875,3.048828125-8.619140625,4.453125-12.419921875,1.404296875-3.7998046875,2.7783203125-7.3798828125,4.123046875-10.740234375,1.34375-3.359375,2.66796875-6.548828125,3.9716796875-9.5693359375,1.3037109375-3.01953125,2.6591796875-5.970703125,4.0634765625-8.8505859375h8.8720703125c1.3662109375,2.8798828125,2.7119140625,5.8310546875,4.0390625,8.8505859375,1.3251953125,3.0205078125,2.662109375,6.2099609375,4.0087890625,9.5693359375,1.345703125,3.3603515625,2.72265625,6.9404296875,4.12890625,10.740234375,1.40625,3.80078125,2.892578125,7.9404296875,4.4599609375,12.419921875h-10.0244140625ZM503.05859375,121.6669921875c-.208984375.6044921875-.5146484375,1.4267578125-.9169921875,2.46484375-.40234375,1.0400390625-.859375,2.2412109375-1.373046875,3.603515625-.5146484375,1.361328125-1.0888671875,2.861328125-1.7236328125,4.5-.634765625,1.6376953125-1.279296875,3.3544921875-1.9345703125,5.15234375h11.8896484375c-.63671875-1.802734375-1.251953125-3.5263671875-1.8486328125-5.1689453125-.595703125-1.642578125-1.1630859375-3.1455078125-1.69921875-4.5078125-.537109375-1.3623046875-1.0078125-2.5625-1.4130859375-3.6015625-.4052734375-1.0380859375-.732421875-1.8515625-.98046875-2.4423828125Z"/><path d="M566.087890625,133.0078125c0,3.599609375-.560546875,6.740234375-1.6796875,9.419921875-1.1201171875,2.6796875-2.7099609375,4.900390625-4.7705078125,6.6591796875-2.060546875,1.7607421875-4.5703125,3.0810546875-7.529296875,3.9609375-2.9609375.87890625-6.2802734375,1.3193359375-9.9599609375,1.3193359375-1.6806640625,0-3.640625-.0703125-5.8798828125-.2099609375-2.2412109375-.140625-4.4404296875-.4296875-6.6005859375-.8701171875v-40.5c2.16015625-.3994140625,4.41015625-.6689453125,6.75-.8095703125,2.33984375-.1396484375,4.3505859375-.2099609375,6.0302734375-.2099609375,3.5595703125,0,6.7890625.400390625,9.689453125,1.2001953125s5.390625,2.060546875,7.470703125,3.779296875c2.0791015625,1.720703125,3.6796875,3.9208984375,4.7998046875,6.6005859375,1.119140625,2.6796875,1.6796875,5.900390625,1.6796875,9.66015625ZM539.0283203125,146.20703125c.439453125.041015625.94921875.0703125,1.5302734375.0908203125.5791015625.0205078125,1.2685546875.029296875,2.0693359375.029296875,4.6806640625,0,8.150390625-1.1787109375,10.41015625-3.5400390625,2.259765625-2.359375,3.3896484375-5.619140625,3.3896484375-9.779296875,0-4.359375-1.0791015625-7.66015625-3.2392578125-9.900390625-2.16015625-2.2392578125-5.580078125-3.3603515625-10.2607421875-3.3603515625-.6396484375,0-1.2998046875.0107421875-1.9794921875.0302734375-.6806640625.0205078125-1.3203125.0703125-1.919921875.150390625v26.279296875Z"/><path d="M600.2841796875,153.8271484375c-.462890625-1.4443359375-.9599609375-2.9287109375-1.4921875-4.451171875-.533203125-1.5224609375-1.0634765625-3.0390625-1.5908203125-4.548828125h-16.240234375c-.5244140625,1.517578125-1.0517578125,3.037109375-1.578125,4.5615234375-.5283203125,1.5244140625-1.01953125,3.00390625-1.4736328125,4.4384765625h-9.720703125c1.5654296875-4.4794921875,3.048828125-8.619140625,4.453125-12.419921875,1.404296875-3.7998046875,2.7783203125-7.3798828125,4.123046875-10.740234375,1.34375-3.359375,2.66796875-6.548828125,3.9716796875-9.5693359375,1.3037109375-3.01953125,2.6591796875-5.970703125,4.0634765625-8.8505859375h8.8720703125c1.3662109375,2.8798828125,2.7119140625,5.8310546875,4.0390625,8.8505859375,1.3251953125,3.0205078125,2.662109375,6.2099609375,4.0087890625,9.5693359375,1.345703125,3.3603515625,2.72265625,6.9404296875,4.12890625,10.740234375,1.40625,3.80078125,2.892578125,7.9404296875,4.4599609375,12.419921875h-10.0244140625ZM589.0390625,121.6669921875c-.208984375.6044921875-.5146484375,1.4267578125-.9169921875,2.46484375-.40234375,1.0400390625-.859375,2.2412109375-1.373046875,3.603515625-.5146484375,1.361328125-1.0888671875,2.861328125-1.7236328125,4.5-.634765625,1.6376953125-1.279296875,3.3544921875-1.9345703125,5.15234375h11.8896484375c-.63671875-1.802734375-1.251953125-3.5263671875-1.8486328125-5.1689453125-.595703125-1.642578125-1.1630859375-3.1455078125-1.69921875-4.5078125-.537109375-1.3623046875-1.0078125-2.5625-1.4130859375-3.6015625-.4052734375-1.0380859375-.732421875-1.8515625-.98046875-2.4423828125Z"/></svg>