<?xml version="1.0" encoding="UTF-8"?><svg id="Layer_2" xmlns="http://www.w3.org/2000/svg" viewBox="0 0 1000 1000"><defs><style>.cls-1{fill:none;stroke:#000;stroke-miterlimit:10;stroke-width:10px;}</style></defs><path class="cls-1" d="M470.821390284836525,918.972219077098998c-1.493298205878091,2.645314089837484-3.622015239492612,4.876991385717702-6.193899137493645,6.493481218896704l-26.807698365179021,16.849272197689061c-14.644095779891359,9.20416040658165-32.699331284287837-5.182469225372188-26.99776074617148-21.512141708297349l4.027978987123788-11.536396364492248c3.180437578026613-9.108982104904499-1.26256993350944-19.121806286870196-10.150634057557909-22.875611596415183l-73.653599327379197-31.107029423215863c-1.717530244985028-.72538564786737-3.314038217024063-1.709144910093528-4.734169529736391-2.917168724105068l-88.126927032079038-74.964494872778232c-6.829616574332249-5.809560981095274-8.440131549728903-15.713728937511405-3.803098922380741-23.387879689118563l7.593060743149181-12.566289153410253c2.743608819822839-4.540590799939309,3.380300037302732-10.048807126480824,1.744886894008232-15.095566286518078l-4.141438349808595-12.780160177444486c-2.051469114161591-6.330675882034484-.502155353482522-13.276044877191453,4.045330428227317-18.134682105352113l50.510402094672827-53.966462306185349c1.992925239910619-2.129286649455025,4.466192254956695-3.751066766446456,7.213422921717211-4.730013297688856l46.688174448145219-16.636836134310215c6.760124444859684-2.408898697925906,11.4865426879187-8.54902674011646,12.085581314857336-15.700476115611309l2.060620549678788-24.600122396837833c.551603472742499-6.585158507743472,4.612820810278208-12.360539723220427,10.623229252429155-15.107095625025977l78.216592635195411-35.742370287984158c11.608961957854262-5.304907858771912,14.350620420225823-20.56926797653432,5.313361026423081-29.582479822378446l-70.002024420402449-69.815753675442465c-2.259744804281581-2.253731773203981-3.890356082401922-5.059592420991976-4.729783083468647-8.138734476160607l-11.94536776028508-43.817370883345575c-1.758478114663376-6.450357099642133-6.896698726885006-11.427044944670342-13.399917213895606-12.978657429415762l-.000025007973818-.000005966689059c-8.424048718163249-2.009906200953992-14.283268636329012-9.653091203445001-14.036394194685272-18.310075248291469l1.166949648439186-40.920657563428904c.196326664507069-6.884458313716095,4.243788768286322-13.074811966982452,10.471595387140042-16.015685162259615l2.138263975644804-1.009723582516017c3.07217025468708-1.450729559581305,5.679488510162628-3.72857039948758,7.529605635389089-6.578116495235008l18.71277654460755-28.821374936880602c3.898722356127109-6.004803110476132,3.934958380441458-13.732380872868816.092721474176869-19.773482755957957l-9.054348355613911-14.236040680380029c-5.751646899843763-9.043243757525488-2.529510496335206-21.071683971251332,6.972511322848732-26.02882841803148l28.674645857156065-14.959380664357013c2.387189636408948-1.245381675047611,4.469937780142573-3.002515591613701,6.099504274192441-5.145915441897159l64.349509025109001-84.640134976812988c5.696732714586688-7.493021053222037,16.150637694599936-9.438181426052324,24.161249128841519-4.495688879265799l196.637487597296058,121.323986919938761c7.268016148125753,4.484316326776025,10.464793822917272,13.401817380015927,7.701068986771133,21.482348097613794l-35.875472625590191,104.892084323271774c-2.527556776192796,7.390026642078737-9.469279717935933,12.359306370984996-17.279588851337394,12.369711572100641l-8.657093084824737.011533320011949c-10.100214466971011.013455903095746-18.277147897062605,8.212205662617635-18.263691993968678,18.312420129588645l.000748167740312.561586582058226c.006124883517259,4.597434797373353-1.719555848463642,9.028520499048682-4.833403809627271,12.410885811228582l-9.119966993352136,9.906411742413184c-5.835714424320031,6.338947272572113-6.45532900571925,15.891382625752158-1.487416031332032,22.931102509779521l4.105815904775227,5.818095851120233c3.940744580442697,5.584183564373234,10.666415997597142,8.504958849747709,17.437166799736588,7.572484987254938l6.107377751768581-.8411135320639c3.187862541315553-.43903528336341,6.43513216989777-.029144387819542,9.413905567118491,1.188282657376476l21.56427389549026,8.813335809596538c7.624437511845827,3.116113645970472,12.224991686807698,10.944573069455146,11.237303779196736,19.12177822915146l-13.578543430818172,112.418644136694638c-.37669077096507,3.118675132316639-1.550359124401439,6.087743296369808-3.407886903398321,8.621045699976094"/><path d="M511.6474609375,887.62890625c-5.4619140625.03515625-10.978515625.291015625-16.5498046875.7685546875s-11.01171875,1.2568359375-16.322265625,2.3359375l23.8203125,13.212890625-4.4814453125,8.080078125-36.3603515625-20.16796875,3.6953125-6.6640625c1.794921875-.513671875,3.9189453125-1.00390625,6.3740234375-1.47265625,2.4560546875-.4677734375,5.0400390625-.8984375,7.7509765625-1.2939453125,2.7119140625-.392578125,5.4873046875-.7392578125,8.330078125-1.0390625,2.8408203125-.298828125,5.556640625-.5546875,8.142578125-.765625l-21.458984375-11.9033203125,4.5107421875-8.1328125,36.3603515625,20.1689453125-3.8115234375,6.873046875Z"/><path d="M520.1162109375,872.361328125l-36.361328125-20.1689453125,13.6201171875-24.5556640625,6.873046875,3.8125-9.080078125,16.3701171875,7.13671875,3.9580078125,8.0615234375-14.5341796875,6.7158203125,3.7255859375-8.0615234375,14.5341796875,8.76171875,4.8603515625,9.75-17.5771484375,6.873046875,3.8125-14.2890625,25.7626953125Z"/><path d="M518.8271484375,798.115234375c1.6669921875.376953125,3.541015625.8115234375,5.6240234375,1.3046875,2.08203125.4921875,4.2451171875.984375,6.48828125,1.474609375,2.2431640625.4921875,4.4921875.974609375,6.744140625,1.447265625,2.25390625.474609375,4.3564453125.88671875,6.310546875,1.240234375-1.529296875-1.447265625-3.212890625-2.9892578125-5.048828125-4.62890625-1.8359375-1.63671875-3.7548828125-3.2880859375-5.7607421875-4.951171875-2.00390625-1.6640625-4.0048828125-3.3134765625-6.0029296875-4.94921875-1.99609375-1.63671875-3.9287109375-3.203125-5.7978515625-4.7001953125l4.7158203125-8.501953125c5.4033203125,4.607421875,10.7919921875,9.4482421875,16.1640625,14.5224609375,5.3740234375,5.07421875,10.359375,10.10546875,14.95703125,15.09375l-4.1533203125,7.486328125c-4.0361328125-.640625-8.2177734375-1.4072265625-12.5478515625-2.302734375-4.3291015625-.89453125-8.658203125-1.810546875-12.984375-2.7509765625,3.0859375,3.1767578125,6.1630859375,6.349609375,9.232421875,9.5166015625,3.068359375,3.16796875,5.94140625,6.2958984375,8.619140625,9.3837890625l-4.1484375,7.4814453125c-6.6650390625-1.2607421875-13.5703125-2.8291015625-20.71875-4.705078125-7.1474609375-1.8740234375-14.10546875-3.8857421875-20.8740234375-6.03125l4.91796875-8.8671875c2.2587890625.7939453125,4.6162109375,1.595703125,7.0712890625,2.404296875,2.455078125.8115234375,4.9296875,1.609375,7.419921875,2.392578125,2.4931640625.78515625,4.919921875,1.5234375,7.28125,2.212890625,2.3623046875.6884765625,4.572265625,1.2822265625,6.62890625,1.779296875-1.36328125-1.5810546875-2.841796875-3.203125-4.4365234375-4.8671875-1.5927734375-1.6611328125-3.1962890625-3.306640625-4.8095703125-4.935546875-1.6123046875-1.626953125-3.1806640625-3.171875-4.701171875-4.634765625-1.5224609375-1.4619140625-2.875-2.7744140625-4.060546875-3.935546875l3.8701171875-6.978515625Z"/><path d="M571.130859375,751.56640625c1.7841796875.9892578125,3.3515625,2.1220703125,4.7021484375,3.3974609375s2.3369140625,2.736328125,2.955078125,4.3828125c.619140625,1.6474609375.7978515625,3.5087890625.5400390625,5.58203125-.259765625,2.076171875-1.107421875,4.4072265625-2.5419921875,6.9951171875-1.3193359375,2.37890625-2.744140625,4.265625-4.271484375,5.6591796875s-2.986328125,2.4365234375-4.376953125,3.1298828125l-4.8359375-6.25c1.158203125-.6845703125,2.2841796875-1.478515625,3.3798828125-2.380859375,1.09375-.9013671875,2.01953125-2.03515625,2.7763671875-3.3984375,1.1064453125-1.994140625,1.412109375-3.69921875.9169921875-5.1171875-.4931640625-1.41796875-1.8955078125-2.767578125-4.2041015625-4.0478515625l-23.7158203125-13.154296875,4.5400390625-8.185546875,24.1357421875,13.3876953125Z"/><path d="M587.7216796875,750.4765625l-36.3603515625-20.16796875,13.619140625-24.5556640625,6.873046875,3.8125-9.080078125,16.3701171875,7.13671875,3.9580078125,8.0615234375-14.5341796875,6.7158203125,3.7255859375-8.0615234375,14.5341796875,8.7626953125,4.859375,9.7490234375-17.576171875,6.8740234375,3.8125-14.2900390625,25.76171875Z"/><path d="M574.484375,687.62890625c3.02734375-5.4560546875,6.3154296875-9.09765625,9.8681640625-10.9248046875,3.5517578125-1.8251953125,7.3740234375-1.6044921875,11.4658203125.666015625,2.5546875,1.4169921875,4.3017578125,3.15234375,5.2431640625,5.2060546875.9423828125,2.056640625,1.255859375,4.4375.9423828125,7.14453125,1.3173828125-.2294921875,2.78515625-.421875,4.40234375-.576171875,1.619140625-.154296875,3.2841796875-.271484375,4.998046875-.3515625,1.712890625-.078125,3.4638671875-.1015625,5.25390625-.0703125,1.7890625.0322265625,3.5224609375.1025390625,5.201171875.208984375l-5.076171875,9.150390625c-1.55859375.0078125-3.140625.0146484375-4.74609375.0205078125-1.603515625.005859375-3.181640625.046875-4.7353515625.126953125-1.5537109375.0791015625-3.0400390625.1845703125-4.4619140625.314453125s-2.748046875.3134765625-3.9765625.548828125l-2.240234375,4.041015625,13.2744140625,7.36328125-4.5400390625,8.185546875-35.8359375-19.8779296875c.6396484375-1.9775390625,1.41796875-3.9580078125,2.3359375-5.9423828125.9169921875-1.984375,1.79296875-3.728515625,2.626953125-5.2333984375ZM581.724609375,691.0283203125c-.330078125.5947265625-.607421875,1.1376953125-.8349609375,1.62890625-.2255859375.4912109375-.4384765625.9580078125-.6376953125,1.396484375l9.865234375,5.4716796875,1.279296875-2.30859375c1.70703125-3.078125,2.5458984375-5.4951171875,2.513671875-7.251953125-.0322265625-1.755859375-.974609375-3.1474609375-2.830078125-4.17578125-1.783203125-.990234375-3.423828125-1.0185546875-4.923828125-.0908203125-1.4990234375.9296875-2.9765625,2.7060546875-4.431640625,5.330078125Z"/><path d="M624.025390625,670.3056640625c.640625-1.154296875,1.0732421875-2.16015625,1.296875-3.01953125.2265625-.8583984375.298828125-1.607421875.21875-2.2470703125-.0810546875-.6376953125-.2998046875-1.1708984375-.658203125-1.5986328125-.357421875-.4267578125-.81640625-.7958984375-1.375-1.1064453125-1.189453125-.66015625-2.48828125-.6484375-3.896484375.0341796875-1.408203125.68359375-3.322265625,2.13671875-5.74609375,4.3603515625-1.080078125.95703125-2.2197265625,1.8798828125-3.421875,2.767578125-1.201171875.888671875-2.4755859375,1.5771484375-3.822265625,2.06640625-1.3447265625.48828125-2.7685546875.705078125-4.2705078125.6484375-1.5009765625-.0546875-3.091796875-.548828125-4.7705078125-1.48046875-1.6796875-.9306640625-3.017578125-2.083984375-4.015625-3.4599609375-.99609375-1.3779296875-1.6484375-2.904296875-1.951171875-4.5830078125-.3046875-1.677734375-.2548828125-3.478515625.150390625-5.4052734375.404296875-1.9248046875,1.177734375-3.9189453125,2.32421875-5.9833984375,1.357421875-2.447265625,2.79296875-4.419921875,4.30859375-5.912109375,1.513671875-1.4931640625,2.90625-2.6416015625,4.17578125-3.447265625l5.14453125,5.94140625c-1.087890625.72265625-2.177734375,1.59375-3.2685546875,2.6123046875s-2.1220703125,2.40234375-3.091796875,4.1513671875c-1.0869140625,1.958984375-1.5966796875,3.517578125-1.529296875,4.67578125s.66015625,2.046875,1.779296875,2.6669921875c.6650390625.369140625,1.3115234375.5224609375,1.94140625.458984375s1.287109375-.28125,1.974609375-.654296875c.6875-.3720703125,1.3896484375-.8525390625,2.1025390625-1.4404296875.71484375-.5869140625,1.4814453125-1.248046875,2.30078125-1.9833984375,1.748046875-1.5009765625,3.349609375-2.7607421875,4.80859375-3.7822265625,1.4580078125-1.01953125,2.8994140625-1.7421875,4.322265625-2.1650390625,1.4248046875-.421875,2.873046875-.5205078125,4.3515625-.296875,1.4765625.224609375,3.087890625.8212890625,4.8369140625,1.7919921875,3.3935546875,1.8818359375,5.3662109375,4.53125,5.91796875,7.947265625.5517578125,3.4169921875-.5009765625,7.5205078125-3.1591796875,12.3134765625-.892578125,1.6083984375-1.794921875,3.0068359375-2.7041015625,4.1943359375-.9111328125,1.1875-1.7822265625,2.2021484375-2.6142578125,3.0439453125-.8330078125.8427734375-1.60546875,1.5341796875-2.318359375,2.076171875-.712890625.54296875-1.3447265625.9814453125-1.896484375,1.3154296875l-5.224609375-5.9169921875c1.1953125-.7548828125,2.470703125-1.7958984375,3.826171875-3.1259765625,1.3544921875-1.330078125,2.671875-3.1494140625,3.953125-5.4580078125Z"/><path d="M641.70703125,653.1494140625l-36.361328125-20.1689453125,13.6201171875-24.5556640625,6.873046875,3.8125-9.0791015625,16.3701171875,7.1357421875,3.9580078125,8.0615234375-14.5341796875,6.7158203125,3.7255859375-8.0615234375,14.5341796875,8.76171875,4.8603515625,9.75-17.5771484375,6.873046875,3.8125-14.2890625,25.7626953125Z"/><path d="M645.572265625,595.615234375c-1.66015625-2.8447265625-3.3603515625-5.6181640625-5.0986328125-8.3232421875-1.73828125-2.7041015625-3.5537109375-5.314453125-5.443359375-7.8291015625l5.005859375-9.0244140625c2.8115234375,4.1669921875,5.4619140625,8.3359375,7.9521484375,12.5068359375,2.48828125,4.1708984375,4.927734375,8.474609375,7.31640625,12.9091796875l13.904296875,7.7119140625-4.541015625,8.185546875-13.798828125-7.654296875c-5.02734375.3232421875-9.9912109375.5302734375-14.892578125.625-4.900390625.0947265625-9.8623046875.052734375-14.88671875-.126953125l5.267578125-9.4970703125c3.1318359375.2763671875,6.2958984375.4541015625,9.48828125.5361328125,3.193359375.0810546875,6.4375.07421875,9.7265625-.01953125Z"/></svg>