<?xml version="1.0" encoding="UTF-8"?><svg id="Layer_2" xmlns="http://www.w3.org/2000/svg" viewBox="0 0 1000 1000"><defs><style>.cls-1{fill:none;stroke:#000;stroke-miterlimit:10;stroke-width:10px;}</style></defs><path class="cls-1" d="M80.183302339375587,102.800654230481086l1.383787114892584,15.221658263820245,8.10588380948866,65.65765885685596c.252685642134566,2.046753701290072-.038336311790772,4.123956438956156-.843764368949451,6.02246543082947l-20.026131237618756,47.204452202960965c-1.569747978180203,3.700120234280803-1.137124654143918,7.946156307163619,1.146620267382787,11.253648952134427l19.374392993188849,28.059465714273756c1.041366607071723,1.508186120586288,1.715094048448918,3.239272646323116,1.967226129680967,5.054623631192044l3.012276209191441,21.688388706179467c.532100563957101,3.831124060489856,2.917424013042364,7.154194087928772,6.376978039448659,8.883971101131465l1.364256237060545.682128118531182c3.161471173535574,1.580735586768242,5.442294775248229,4.501960643010534,6.209064162355389,7.95242288499503l15.256628854634073,68.654829845854692c.33964522119004,1.528403495350176.981631407127679,2.973412550771172,1.888164989994038,4.249959840929478l39.609110119419711,55.776093841633156c.416605103527218.586648002924449.88626897346694,1.133747398585001,1.403060503243069,1.63438919305554l19.771640142333126,19.153776387885046c3.888079363377074,3.766576883272137,9.847785333127831,4.385704464924856,14.427069219002078,1.498764623830539l10.506224297255358-6.623489230878477c8.342140512947481-5.259175540772048,19.058270058502785,1.489622089455224,17.919252176431655,11.28517587526585l-.969513796282627,8.337818648027678c-.287690004995056,2.474134042957303.219117757864296,4.975645530819747,1.447115467468393,7.142700312476336l.358932348573944.633410026894126c4.877754046478003,8.607801258491236-2.428407416877235,19.018645263839971-12.181897435799328,17.358476749980582l-.000039910566557-.000006793286957c-7.748116705722168-1.318828375442536-14.578057501611511,5.20132289040157-13.620045989406208,13.002273775508002l3.035772611600805,24.71986269446279c.594024899435681,4.837059895409766,4.115123101152676,8.803927411647237,8.847542540633185,9.967637109879433l31.980613588566484,7.864085308663562c6.509260315006941,1.600637782379636,10.358573550786787,8.318124134711979,8.44836890764509,14.743357934366941l-4.520088316347028,15.203933427716038c-.843195264409587,2.836202253012743-.584141040723807,5.886219949527003.725312479416061,8.539586292967215l29.348839234378829,59.470016343348107c.584010802720513,1.183390310776304,1.36339649960064,2.259826230212639,2.305375615141202,3.18403215489343l41.271641809043103,40.492931586231862c1.51230499689791,1.483770940350951,2.594825823149222,3.34919222280223,3.13274498280407,5.398408069107973l15.291500609298055,58.253335654469993c1.06382433793533,4.052664144513983,4.207228736869183,7.230967009201777,8.247900727083106,8.339469944568918l87.966051676616189,24.132279663497684c.969435775465172.265951407427565,1.900691637181808.655334737841258,2.770904162693114,1.158590174283745l68.218900227186168,39.451894107285625c.6324422552334.365749737968144,1.229356373605697.789746569538693,1.782971741886286,1.266470914448291l57.579922780709239,49.582711283386743c1.777444527135231,1.53057723170059,3.055556560249897,3.558582668603776,3.669485022446679,5.822443872952135l9.994199920456595,36.853612206688922c1.522723662914359,5.615043506988513,6.928750288887386,9.267431209365895,12.706394107550295,8.584618758070064l160.355916484433692-18.951153766342031c8.022241954799028-.94808314011425,12.71143064701937-9.527693419790012,9.177551603752363-16.791778119835726l-6.876247452115422-14.134508651573924c-.778325469169431-1.599891242180092-1.182773505786827-3.355781748839945-1.182773505786827-5.134950802850653v-23.670257481675435c0-2.187533506541513.611292304400195-4.331542653659199,1.76491623464608-6.190158985724338l11.676987123970321-18.812923699730163c1.202578643065863-1.937487813829648,1.814760744658997-4.183314398298535,1.761743386861781-6.463060783591573l-.635626871435306-27.331955471738183c-.083540239767899-3.592230310025116,1.4828571703747-7.024842624341545,4.251039259841491-9.315751939762777l10.140129347631955-8.391831184248076c5.389269656345277-4.460085232838537,5.705681082470619-12.614304267084663.678228870889143-17.478593729405475l-405.63639426575719-392.471724269303195c-2.285551036056859-2.211374937523942-3.575983236734828-5.255504185714017-3.575983236734828-8.435743587509023V101.737950156089937"/><path d="M139.4326171875,110.79296875c-2.6806640625-4.759765625-5.580078125-9.45947265625-8.7001953125-14.10009765625-3.1201171875-4.6396484375-6.4404296875-9.01953125-9.9599609375-13.14013671875v27.240234375h-9.240234375v-41.580078125h7.6201171875c1.3203125,1.3203125,2.779296875,2.93994140625,4.3798828125,4.85986328125,1.599609375,1.92041015625,3.2294921875,3.970703125,4.890625,6.150390625,1.6591796875,2.1806640625,3.30859375,4.43994140625,4.94921875,6.77978515625,1.6396484375,2.33984375,3.1806640625,4.58984375,4.6201171875,6.75v-24.5400390625h9.2998046875v41.580078125h-7.859375Z"/><path d="M196.4921875,89.97314453125c0,3.560546875-.53125,6.68994140625-1.5908203125,9.3896484375-1.0595703125,2.7001953125-2.509765625,4.96044921875-4.349609375,6.7802734375-1.83984375,1.8203125-4.0302734375,3.1904296875-6.5703125,4.10986328125-2.5400390625.919921875-5.2705078125,1.3798828125-8.189453125,1.3798828125-2.8408203125,0-5.5205078125-.4599609375-8.0400390625-1.3798828125-2.5205078125-.91943359375-4.720703125-2.28955078125-6.6005859375-4.10986328125-1.8798828125-1.81982421875-3.359375-4.080078125-4.439453125-6.7802734375-1.080078125-2.69970703125-1.6201171875-5.8291015625-1.6201171875-9.3896484375,0-3.56005859375.5595703125-6.68994140625,1.6796875-9.39013671875s2.6298828125-4.9697265625,4.5302734375-6.81005859375c1.8994140625-1.83935546875,4.099609375-3.21923828125,6.599609375-4.14013671875,2.5-.91943359375,5.130859375-1.3798828125,7.890625-1.3798828125,2.83984375,0,5.51953125.46044921875,8.0400390625,1.3798828125,2.51953125.9208984375,4.71875,2.30078125,6.599609375,4.14013671875,1.8798828125,1.84033203125,3.3603515625,4.10986328125,4.4404296875,6.81005859375s1.6201171875,5.830078125,1.6201171875,9.39013671875ZM164.751953125,89.97314453125c0,2.0400390625.2490234375,3.88037109375.75,5.52001953125.5,1.640625,1.2197265625,3.05029296875,2.16015625,4.22998046875.939453125,1.18017578125,2.08984375,2.09033203125,3.44921875,2.72998046875,1.359375.64013671875,2.919921875.9599609375,4.6806640625.9599609375,1.71875,0,3.26953125-.31982421875,4.6494140625-.9599609375,1.380859375-.6396484375,2.5400390625-1.5498046875,3.48046875-2.72998046875.939453125-1.1796875,1.6591796875-2.58935546875,2.16015625-4.22998046875.4990234375-1.6396484375.75-3.47998046875.75-5.52001953125s-.2509765625-3.8896484375-.75-5.55029296875c-.5009765625-1.6591796875-1.220703125-3.07958984375-2.16015625-4.259765625-.9404296875-1.1796875-2.099609375-2.08984375-3.48046875-2.72998046875-1.3798828125-.6396484375-2.9306640625-.9599609375-4.6494140625-.9599609375-1.7607421875,0-3.3212890625.32958984375-4.6806640625.98974609375s-2.509765625,1.58056640625-3.44921875,2.76025390625c-.9404296875,1.18017578125-1.66015625,2.6005859375-2.16015625,4.259765625-.5009765625,1.66015625-.75,3.490234375-.75,5.490234375Z"/><path d="M216.47265625,68.73291015625c6.2392578125,0,11.0185546875,1.10986328125,14.33984375,3.330078125,3.3193359375,2.22021484375,4.9794921875,5.669921875,4.9794921875,10.35009765625,0,2.92041015625-.669921875,5.2900390625-2.009765625,7.10986328125-1.3408203125,1.82080078125-3.2705078125,3.25048828125-5.7900390625,4.2900390625.83984375,1.04052734375,1.7197265625,2.23046875,2.6396484375,3.56982421875.919921875,1.3408203125,1.830078125,2.740234375,2.73046875,4.2001953125.8994140625,1.46044921875,1.76953125,2.98046875,2.6103515625,4.56005859375.83984375,1.58056640625,1.619140625,3.13037109375,2.33984375,4.64990234375h-10.4638671875c-.7626953125-1.359375-1.5361328125-2.7392578125-2.3193359375-4.14013671875-.783203125-1.3994140625-1.5849609375-2.759765625-2.408203125-4.080078125-.8232421875-1.31982421875-1.63671875-2.5693359375-2.439453125-3.75-.8037109375-1.17919921875-1.607421875-2.25-2.4091796875-3.2099609375h-4.6201171875v15.18017578125h-9.3603515625v-40.97998046875c2.0400390625-.3994140625,4.1494140625-.6796875,6.330078125-.83984375,2.1796875-.15966796875,4.1298828125-.240234375,5.8505859375-.240234375ZM217.01171875,76.712890625c-.6796875,0-1.2890625.0205078125-1.8291015625.06005859375-.5400390625.04052734375-1.05078125.08056640625-1.5302734375.1201171875v11.27978515625h2.6396484375c3.51953125,0,6.0400390625-.439453125,7.560546875-1.31982421875,1.51953125-.87939453125,2.279296875-2.37939453125,2.279296875-4.5,0-2.0400390625-.7705078125-3.4892578125-2.3095703125-4.35009765625-1.5400390625-.85986328125-3.810546875-1.2900390625-6.810546875-1.2900390625Z"/><path d="M262.19140625,111.6328125c-6.759765625,0-11.91015625-1.87939453125-15.4501953125-5.6396484375-3.5400390625-3.759765625-5.3095703125-9.099609375-5.3095703125-16.02001953125,0-3.43994140625.5400390625-6.51025390625,1.6201171875-9.2099609375,1.080078125-2.7001953125,2.5595703125-4.97998046875,4.439453125-6.84033203125,1.8798828125-1.85986328125,4.1201171875-3.27001953125,6.720703125-4.22998046875,2.599609375-.9599609375,5.4189453125-1.43994140625,8.4599609375-1.43994140625,1.759765625,0,3.359375.13037109375,4.7998046875.39013671875,1.4404296875.2607421875,2.7001953125.560546875,3.7802734375.89990234375,1.080078125.34033203125,1.9794921875.68994140625,2.69921875,1.0498046875.720703125.3603515625,1.240234375.640625,1.560546875.84033203125l-2.7001953125,7.56005859375c-1.2802734375-.6796875-2.7705078125-1.26025390625-4.4697265625-1.740234375-1.701171875-.47998046875-3.6298828125-.7197265625-5.7900390625-.7197265625-1.4404296875,0-2.8505859375.23974609375-4.23046875.7197265625s-2.6005859375,1.25048828125-3.6591796875,2.31005859375c-1.060546875,1.06005859375-1.9111328125,2.43017578125-2.55078125,4.10986328125-.6396484375,1.68017578125-.9599609375,3.72021484375-.9599609375,6.1201171875,0,1.919921875.2099609375,3.71044921875.6298828125,5.3701171875.419921875,1.66015625,1.099609375,3.08984375,2.0400390625,4.2900390625.939453125,1.19970703125,2.169921875,2.150390625,3.6904296875,2.849609375,1.51953125.70068359375,3.3603515625,1.05029296875,5.51953125,1.05029296875,1.359375,0,2.580078125-.07958984375,3.66015625-.240234375,1.080078125-.1591796875,2.0400390625-.349609375,2.8798828125-.56982421875.8408203125-.21923828125,1.580078125-.4697265625,2.220703125-.75.638671875-.279296875,1.2197265625-.5400390625,1.7392578125-.77978515625l2.580078125,7.5c-1.3193359375.80029296875-3.1796875,1.5205078125-5.580078125,2.15966796875-2.3994140625.6396484375-5.1806640625.9599609375-8.33984375.9599609375Z"/><path d="M311.6865234375,110.79296875c-.462890625-1.44482421875-.9599609375-2.9287109375-1.4921875-4.451171875-.533203125-1.5224609375-1.0634765625-3.03955078125-1.5908203125-4.548828125h-16.240234375c-.5244140625,1.51708984375-1.0517578125,3.03662109375-1.578125,4.56103515625-.5283203125,1.5244140625-1.01953125,3.00439453125-1.4736328125,4.43896484375h-9.720703125c1.5654296875-4.4794921875,3.048828125-8.619140625,4.453125-12.419921875,1.404296875-3.7998046875,2.7783203125-7.3798828125,4.123046875-10.740234375,1.34375-3.35986328125,2.66796875-6.54931640625,3.9716796875-9.56982421875,1.3037109375-3.01953125,2.6591796875-5.97021484375,4.0634765625-8.85009765625h8.8720703125c1.3662109375,2.8798828125,2.7119140625,5.83056640625,4.0390625,8.85009765625,1.3251953125,3.0205078125,2.662109375,6.2099609375,4.0087890625,9.56982421875,1.345703125,3.3603515625,2.72265625,6.9404296875,4.12890625,10.740234375,1.40625,3.80078125,2.892578125,7.9404296875,4.4599609375,12.419921875h-10.0244140625ZM300.44140625,78.6328125c-.208984375.60400390625-.5146484375,1.42626953125-.9169921875,2.46484375-.40234375,1.03955078125-.859375,2.24072265625-1.373046875,3.60302734375-.5146484375,1.36181640625-1.0888671875,2.86181640625-1.7236328125,4.5-.634765625,1.6376953125-1.279296875,3.35498046875-1.9345703125,5.15234375h11.8896484375c-.63671875-1.802734375-1.251953125-3.52587890625-1.8486328125-5.16845703125-.595703125-1.642578125-1.1630859375-3.1455078125-1.69921875-4.50830078125-.537109375-1.3623046875-1.0078125-2.5625-1.4130859375-3.60107421875-.4052734375-1.0380859375-.732421875-1.8515625-.98046875-2.4423828125Z"/><path d="M354.8310546875,102.7529296875v8.0400390625h-27.7802734375v-41.580078125h9.3603515625v33.5400390625h18.419921875Z"/></svg>