<?xml version="1.0" encoding="UTF-8"?><svg id="Layer_2" xmlns="http://www.w3.org/2000/svg" viewBox="0 0 1000 1000"><defs><style>.cls-1{fill:none;stroke:#000;stroke-miterlimit:10;stroke-width:10px;}</style></defs><path class="cls-1" d="M573.259968678232326,273.9723639755357c.492563327457901.018394481108771.982862804827164.07620232107729,1.466197563491733.172869272810203l21.702314205374932,4.340462841073531c7.359952765476919,1.471990553096475,9.981444660970737,10.644374263605641,4.510923451647614,15.783348732969898l-3.256108131094152,3.058768244362c-6.055858414561953,5.688836692466793-2.103321639668138,15.856743567779631,6.204820396224022,15.961909922665654l35.768329750224439.452763667723048c7.931679049144805.100401000623606,12.052877704365528,9.495695596569931,6.754807592964426,15.399259434987471l-17.579619266394729,19.588718611124932c-2.346409534347913,2.614570623989493-3.005776233641882,6.334180314317564-1.701057093529016,9.595978164603366l8.699817333657847,21.7495433341428c2.881396180338925,7.203490450847312,12.823788113137198,7.856810642944765,16.62302897142763,1.092308626961312l23.022527060182256-40.991328668127608c3.626408330497725-6.456775807959275,12.996825106689357-6.23141492263494,16.308646092604249.392227049194844l19.440633036601866,38.881266073203733c2.517569419916981,5.035138839832143,8.916340766181747,6.664722708579575,13.535641968570417,3.447140491743994l133.682755910953347-93.116954117285786c1.658320443055345-1.155105963784081,2.89185245066983-2.822399254360789,3.511341381496095-4.746075407982062l11.28701645289766-35.049156353728904c2.510826482770426-7.796776972814769,13.176698053219297-8.706193461843213,16.971255693157218-1.44703971587478l10.984210761964277,21.013272762016641c1.152613591417321,2.204999914019936,3.146355604396376,3.851495282395263,5.529504148536944,4.566439845637433l10.086324217094443,3.025897265128151c6.994359588285079,2.098307876485705,8.90005385123186,11.10172963781406,3.355714779876507,15.854020270404362l-31.732655946614614,27.199419382812266c-2.709110979778416,2.322095125524356-3.837774891713707,5.997311392622578-2.898943078092998,9.439694709231844l6.035628463678222,22.130637700151055c.880952037812676,3.230157471987695-.055782750081562,6.684111440401466-2.448058602620222,9.0265482126797l-42.840912690802725,41.948393676411797c-.848077979218942.830409687983774-1.528088495366319,1.816549772553117-2.002796873972329,2.904423140191284l-21.698230208718087,49.72511089497857c-1.010865964675759,2.316567835716342-1.027872144770299,4.946258411595409-.047051913828909,7.275706460079164l12.509957128608221,29.711148180453165c1.218028970712112,2.892818805436036.883015200137379,6.206299300889441-.88940835718131,8.796764500046265l-72.110334953773418,105.392028009360729c-1.881958391548324,2.750554572265173-2.135551775159911,6.301850485304385-.663523026772964,9.29190888046287l28.697500956799558,58.291798818494499c.60561572988081,1.230156951321987,1.477612160362696,2.309987371832904,2.552657797577922,3.161065167962079l18.86508378779763,14.934857998672669c2.212100447981356,1.751246187986908,3.50209256175367,4.417791881835001,3.50209256175367,7.239183666557437v23.359267460826231c0,6.673016812477726-6.861084344865958,11.142396897514118-12.964803432138069,8.445404742673418l-26.845113075560221-11.861794149666821c-2.055834956454419-.908392190061932-3.709732650924707-2.535478286015859-4.651601096529703-4.57619325149426l-10.337048155575758-22.396937670415355c-.134198624462442-.290763686336504-.283433519947721-.574348733342049-.447099613131286-.849605344603333l-20.480662399277207-34.444750398786709c-.834188553149943-1.402953475751929-2.025377078529345-2.559698916336856-3.4521959071335-3.352376043338154l-31.25490638690826-17.363836881615498c-1.669849798563519-.927694332534884-3.586330865267882-1.314625538339897-5.485304156120037-1.107464815700951l-48.944744124137287,5.339426631724564c-2.033295010123766.221814001102757-3.935384611913832,1.112498137043076-5.407724023682022,2.532253998391752l-21.840468570326266,21.060451835670392c-2.401806283594851,2.316027487751853-5.866299291907126,3.156069094771738-9.062147623373676,2.197314595330681l-31.403497978411906-9.421049393524299c-2.202201909714859-.660660572913912-4.571667794747555-.475922135981818-6.644862187138642.518075175437843l-64.892396416633346,31.112792802499825c-3.0164617581122,1.446248788137382-5.014714731045387,4.410965018734714-5.223385501982193,7.749697353725423l-1.602996385083316,25.647942161336687c-.039259101216885.62814561947016-.014189841147527,1.258659349643494.074816697519054,1.881705120322295l.493041076599184,3.451287536188829c1.029199745651567,7.204398219551877-6.292712607360954,12.712079473309132-12.929258926464172,9.72563362971232l-21.959634988779726-9.881835744949058c-1.779477309384674-.800764789224559-3.259503263661827-2.144721837961697-4.227643589445506-3.838967408080862l-36.12260962039727-63.214566835697042c-1.496302083884075-2.618528646795312-4.177152624879454-4.341241464982886-7.180660241308942-4.614287611932014l-12.380648816779285-1.125513528799274c-3.022123252270831-.274738477479332-5.986306221964696.953066309921269-7.929000626747438,3.28429959566347l-7.5678798891513,9.081455866982651c-2.577624987221498,3.093149984664706-6.862430916458834,4.159304037963011-10.589033692802332,2.634784720368771l-12.493978311258616-5.111172945515136c-2.091446782580533-.855591865600218-3.796522965785698-2.448446074087769-4.792306616254791-4.476894250970872l-22.883590605842983-46.614721604491933c-1.570202210388743-3.19856005820111-4.840759908140171-5.208142755454901-8.40367134924054-5.163606362440987l-70.786230174959201.88482787718749c-2.182958229574069.027286977869153-4.30497153072065-.719815272299456-5.989341315824277-2.108681586330931l-51.626982787593079-42.569617386259779c-1.778348966892736-1.46635792006964-4.040848763495887-2.214538920989071-6.34281100176122-2.097489993620911l-42.347291752408637,2.153252123003767c-6.37377440196542.324090223828534-11.146449569658216-5.761459954970633-9.312592874101028-11.874315606833989l3.630708187145501-12.102360623810455c.98809133638315-3.293637787948683.063999309064457-6.863497480338992-2.398080874383595-9.264025659200342l-33.744137504503669-32.900534066890032c-1.459046021265749-1.42256987073597-2.406493412243435-3.287858092819079-2.694678086691056-5.305150813946966l-18.237708951335662-127.663962659355093c-.20884198015483-1.461893861083809-.063987088225986-2.952555470610605.422408567730599-4.346889684355119l27.708377369803202-79.430681793432086c.97451332107812-2.793604853757643.551211891153798-5.885021229585618-1.138396475153058-8.313833256152066l-9.978933633385168-14.344717097990724c-2.034812869838788-2.925043500392349-2.204915241132767-6.759892085092361-.437076550653728-9.853609793430223l5.350339066548258-9.363093366460816c2.183631356583646-3.821354874018652,6.760961611329549-5.570190556687521,10.936353697969025-4.178393194473756l25.139393798290257,8.379797932762813c6.126808834955227,2.042269611651136,12.403624539459997-2.675266289674255,12.145502012190263-9.128329471426696l-.000001000000339-.000024999999368c-.237925752793672-5.948143819830875,5.132188762885562-10.563649323297795,10.97702580645273-9.434533076244406l76.048726983353845,14.691231349057489c.338696543334663.065430014052254.673460149453604.14978967987372,1.002716225701079.252682203701625l78.328645434130522,24.47770169816431c.781252682425475.244141463259439,1.591500656610151.38331444135838,2.409441839703504.413859962718561"/><path d="M387.458984375,266.458984375c-.1611328125,3.5576171875-.833984375,6.6591796875-2.0146484375,9.3076171875-1.1806640625,2.650390625-2.73046875,4.8427734375-4.6513671875,6.5771484375-1.919921875,1.7353515625-4.169921875,3.005859375-6.7490234375,3.8095703125s-5.328125,1.1396484375-8.244140625,1.0078125c-2.837890625-.1279296875-5.4931640625-.708984375-7.96875-1.7412109375-2.4765625-1.033203125-4.6123046875-2.5009765625-6.408203125-4.404296875-1.794921875-1.9033203125-3.171875-4.2275390625-4.12890625-6.974609375-.95703125-2.7451171875-1.3544921875-5.8955078125-1.193359375-9.453125.16015625-3.556640625.8603515625-6.6572265625,2.1015625-9.3037109375,1.2412109375-2.6474609375,2.8515625-4.8466796875,4.8330078125-6.5986328125,1.98046875-1.751953125,4.2412109375-3.03125,6.78125-3.837890625,2.5380859375-.8056640625,5.1875-1.1474609375,7.9443359375-1.0224609375,2.8369140625.12890625,5.4931640625.7099609375,7.9697265625,1.7421875,2.474609375,1.0341796875,4.609375,2.51171875,6.4052734375,4.4345703125,1.794921875,1.9228515625,3.171875,4.2568359375,4.1279296875,7.00390625.95703125,2.74609375,1.35546875,5.896484375,1.1953125,9.453125ZM355.7509765625,265.0244140625c-.0927734375,2.0380859375.0732421875,3.8876953125.4990234375,5.548828125s1.0810546875,3.1015625,1.966796875,4.3232421875c.8857421875,1.220703125,1.994140625,2.1826171875,3.322265625,2.8828125,1.3291015625.701171875,2.8740234375,1.0908203125,4.6328125,1.1708984375,1.7177734375.0771484375,3.2802734375-.171875,4.6875-.7490234375,1.4091796875-.5771484375,2.6083984375-1.43359375,3.6005859375-2.5703125.9921875-1.1357421875,1.7744140625-2.51171875,2.349609375-4.1279296875.572265625-1.615234375.90625-3.4423828125.9990234375-5.48046875.091796875-2.0380859375-.0751953125-3.8974609375-.4990234375-5.578125-.42578125-1.6806640625-1.080078125-3.1318359375-1.96484375-4.353515625-.88671875-1.220703125-2.00390625-2.1826171875-3.3544921875-2.884765625-1.349609375-.7001953125-2.8837890625-1.0908203125-4.6015625-1.1689453125-1.7587890625-.0791015625-3.33203125.1796875-4.720703125.77734375-1.38671875.5986328125-2.578125,1.4658203125-3.5693359375,2.6015625-.9931640625,1.13671875-1.7763671875,2.5234375-2.3505859375,4.158203125-.5751953125,1.6357421875-.9072265625,3.4521484375-.9970703125,5.4501953125Z"/><path d="M422.1796875,288.87109375c-2.462890625-4.8759765625-5.146484375-9.7021484375-8.0537109375-14.4794921875-2.9072265625-4.775390625-6.0263671875-9.30078125-9.35546875-13.576171875l-1.2314453125,27.212890625-9.23046875-.41796875,1.87890625-41.5380859375,7.6123046875.3447265625c1.2587890625,1.37890625,2.6435546875,3.0625,4.1552734375,5.052734375,1.5107421875,1.990234375,3.0478515625,4.1123046875,4.6083984375,6.365234375,1.55859375,2.2529296875,3.103515625,4.5849609375,4.6376953125,6.99609375,1.5322265625,2.4111328125,2.9697265625,4.7294921875,4.310546875,6.9521484375l1.1083984375-24.515625,9.2900390625.4208984375-1.87890625,41.5380859375-7.8515625-.35546875Z"/><path d="M467.7373046875,282.8837890625l-.36328125,8.0322265625-27.751953125-1.255859375,1.87890625-41.5380859375,9.3505859375.4228515625-1.515625,33.505859375,18.4013671875.8330078125Z"/><path d="M475.24609375,249.6484375l9.3505859375.4228515625-1.87890625,41.5380859375-9.3505859375-.4228515625,1.87890625-41.5380859375Z"/><path d="M520.1787109375,293.3046875c-2.462890625-4.876953125-5.146484375-9.703125-8.0537109375-14.4794921875-2.908203125-4.775390625-6.0263671875-9.3017578125-9.3564453125-13.5771484375l-1.2314453125,27.212890625-9.23046875-.41796875,1.87890625-41.5380859375,7.6123046875.3447265625c1.259765625,1.37890625,2.6435546875,3.0625,4.15625,5.052734375,1.5107421875,1.9912109375,3.046875,4.11328125,4.607421875,6.365234375,1.5595703125,2.25390625,3.1044921875,4.5849609375,4.6376953125,6.9970703125,1.533203125,2.4111328125,2.970703125,4.728515625,4.310546875,6.951171875l1.1083984375-24.5146484375,9.291015625.419921875-1.87890625,41.5380859375-7.8515625-.3544921875Z"/><path d="M537.62109375,294.0927734375l1.87890625-41.5380859375,28.05078125,1.26953125-.3544921875,7.8515625-18.7001953125-.845703125-.369140625,8.15234375,16.603515625.7509765625-.3466796875,7.671875-16.603515625-.7509765625-.453125,10.009765625,20.0791015625.908203125-.35546875,7.8525390625-29.4296875-1.33203125Z"/></svg>