<?xml version="1.0" encoding="utf-8"?>
<!-- Generator: Adobe Illustrator 28.2.0, SVG Export Plug-In . SVG Version: 6.00 Build 0)  -->
<svg version="1.1" id="Layer_1" xmlns="http://www.w3.org/2000/svg" xmlns:xlink="http://www.w3.org/1999/xlink" x="0px" y="0px"
	 viewBox="0 0 864 864" style="enable-background:new 0 0 864 864;" xml:space="preserve">
<g>
	<path d="M246.63,301.94c0.15,0.16,0.41,0.15,0.62,0.1c0.91-0.22,1.6-0.94,2.22-1.63c10.64-11.73,18.77-25.21,25.63-39.44
		c1.71-3.56,2.75-7.27,3.5-11.14c2.9-14.94,7.18-29.48,13.81-43.23c3.48-7.22,7.53-14.11,13.36-19.75
		c3.06-2.96,6.61-5.01,10.99-5.28c4.68-0.29,8.21,2.07,9.76,6.49c1.25,3.57,1.09,7.24,0.75,10.91
		c-0.95,10.12-5.12,19.05-10.31,27.59c-5.76,9.48-13.36,17.3-22.02,24.14c-0.63,0.5-1.23,1.03-1.88,1.49
		c-1.55,1.1-2.26,2.66-2.44,4.48c-0.84,8.59-1.76,17.18-1.36,25.82c0.11,2.39,0.51,4.76,0.79,7.14c0.05,0.39,0.15,0.78,0.27,1.16
		c0.94,3.15,1.9,3.58,4.83,2.03c2.42-1.28,4.54-2.96,6.36-5.02c4.83-5.46,8.07-11.85,11.04-18.43c1.85-4.09,3.34-8.27,4.44-12.62
		c0.38-1.51,1.13-3,2-4.3c1.18-1.77,3.26-2.33,5.3-1.76c2.64,0.75,3.88,2.47,3.43,5.19c-0.54,3.31-1.37,6.57-1.91,9.87
		c-0.6,3.69-1.44,7.36-0.77,11.17c0.72,4.08,2.6,5.45,6.72,4.67c2.35-0.45,4.44-1.47,6.13-3.09c2.64-2.54,5.34-5.09,7.58-7.96
		c3.39-4.34,6.42-8.96,9.57-13.49c0.39-0.56,0.66-1.28,0.76-1.96c0.47-3.06,2.27-4.04,6-4.18c2.81-0.11,4.35,1.24,4.59,4.41
		c0.43,5.55,0.44,11.13,0.71,16.69c0.01,0.24,0.07,0.54,0.3,0.59c0.22,0.05,0.41-0.16,0.53-0.35c3.01-4.64,5.1-9.87,7.51-14.83
		c3.99-8.18,7.91-16.4,12.04-24.5c2.29-4.48,5.01-8.74,8.35-12.55c1.05-1.19,2.26-2.26,3.52-3.23c3.08-2.34,6.52-2.44,10.01-1.16
		c2.89,1.05,4.67,3.23,5.59,6.16c1.47,4.67,1.54,9.44,1.07,14.24c-1.2,12.39-4.7,24.27-8.08,36.19c-2.69,9.5-5.71,19.03-7.72,28.69
		c-0.04,0.2-0.08,0.42,0.04,0.58c0.09,0.13,0.25,0.18,0.41,0.2c0.66,0.07,1.24-0.41,1.72-0.87c12.65-12.16,21.7-29.23,28.54-45.21
		c0.34-0.8,0.55-1.66,0.77-2.51c1.18-4.53,2.81-8.87,5.97-12.41c5.35-5.98,12.1-8.33,20.04-7.25c3.46,0.47,6.69,1.59,9.4,3.87
		c4.15,3.51,4.68,8.38,1.46,12.78c-3.36,4.61-8.07,6.71-13.6,6.91c-3.16,0.11-6.33-0.33-9.77-0.55c-1.03,4.49-2.28,9.18-1.18,14.11
		c0.14,0.62,0.32,1.24,0.59,1.81c1.38,2.95,3.14,4.01,6.32,3.32c2.23-0.48,4.47-1.24,6.51-2.27c2.2-1.1,4.18-2.64,6.23-4.03
		c4.37-2.94,8.27-6.41,12.21-9.89c3.39-3,6.31-7.06,10.86-8.35c2.39-0.68,4.92-0.46,7.39-0.23c7.85,0.78,15.73,1.26,23.53,2.38
		c3.38,0.49,6.71,1.37,10.02,2.25c2.26,0.6,4.23,1.85,5.95,3.47c3.38,3.19,4.13,7.08,2.21,11.35c-1.96,4.37-4.97,7.89-9.2,10.09
		c-4.45,2.31-9.12,4.23-13.66,6.36c-1.58,0.74-3.21,1.48-4.63,2.48c-3.07,2.17-4.34,5.35-4.68,9.33c3.42-0.32,6.65-0.59,9.88-0.93
		c5.16-0.55,10.32-1.15,15.48-1.72c5.16-0.57,10.32-1.14,15.48-1.7c4.87-0.53,9.7-0.69,14.45,0.95
		c11.02,3.79,13.32,16.35,5.59,23.89c-2,1.95-4.09,3.82-6.21,5.64c-3.91,3.38-5.87,7.69-6.23,12.77c-0.34,4.75,0.18,9.42,1.62,13.97
		c1.61,5.1,3.26,10.19,4.92,15.27c2.22,6.78,3.88,13.67,4.47,20.8c0.04,0.43,0.18,0.85,0.27,1.28c0.17,0.01,0.34,0.03,0.51,0.04
		c0.22-1.26,0.54-2.52,0.63-3.8c0.36-5.02,0.77-10.04,0.94-15.06c0.21-6.36,2.25-12.04,5.86-17.21c1.19-1.7,2.42-3.39,3.79-4.94
		c3.61-4.09,6.65-8.58,9.63-13.14c2.45-3.74,4.95-7.48,7.78-10.93c1.52-1.86,3.63-3.39,5.76-4.57c3.36-1.87,6.93-1.41,10.4,0.06
		c3.25,1.38,5.83,3.6,7.92,6.4c3.82,5.11,5.82,10.98,6.97,17.16c1.64,8.87,3.13,17.77,4.83,26.63c0.57,2.96,1.3,5.96,2.47,8.72
		c1.81,4.25,5.3,5.76,9.8,4.67c1.54-0.37,3.12-0.82,4.49-1.58c2.86-1.58,5.81-3.12,8.34-5.15c6.17-4.95,12.16-10.13,18.15-15.29
		c19.61-16.91,39.23-33.82,58.77-50.82c8.5-7.39,17.06-14.75,25.17-22.57c11.28-10.87,21.1-22.95,28-37.15
		c1.91-3.94,3.33-8.12,5.01-12.17c1.25-3.02,2.47-6.06,3.88-9.01c1.39-2.9,3.64-5.01,6.65-6.27c3.96-1.66,7.76-1.38,11.01,1.43
		c2.27,1.97,4.44,4.2,6.12,6.68c8.03,11.84,15.88,23.79,23.79,35.71c2.42,3.65,4.18,7.54,4.3,12.02c0.12,4.46-1.36,8.29-4.49,11.49
		c-3.38,3.46-7.34,6.16-11.47,8.62c-2.26,1.35-4.61,2.57-6.82,4c-6.64,4.31-10.2,10.43-10.4,18.39c-0.2,7.91-0.27,15.82-0.51,23.73
		c-0.12,4.09-0.88,8.09-2.24,11.96c-2.36,6.7-6.81,11.47-13.28,14.33c-2.4,1.06-4.87,2.01-7.35,2.87
		c-6.47,2.23-10.68,6.58-12.31,13.24c-1.75,7.13-3.36,14.3-5.04,21.45c-0.33,1.4-0.72,2.78-1.11,4.16
		c-1.73,6.13-5.18,11.1-10.1,15.09c-2.73,2.22-5.48,4.41-8.19,6.65c-4.18,3.45-7.03,7.74-7.2,13.27c-0.08,2.58,0.25,5.31,1.06,7.76
		c2.33,7.04,4.98,13.98,7.54,20.95c1.96,5.34,3.63,10.75,4.03,16.46c0.79,11.24-2.96,21.04-9.57,29.91
		c-4.19,5.62-9.23,10.39-14.82,14.59c-6.9,5.19-13.87,10.28-20.77,15.47c-7.25,5.46-13.93,11.5-19.15,19.01
		c-2.99,4.3-5.29,8.92-6.28,14.12c-0.98,5.2-0.43,10.21,1.93,14.94c1.42,2.86,3.02,5.63,4.66,8.37c3.9,6.56,6.13,13.65,7.01,21.21
		c0.68,5.87,1.37,11.74,2.29,17.58c0.97,6.16,3.89,11.41,8.03,16.07c4.19,4.71,8.3,9.51,12.31,14.38c1.89,2.3,3.15,5.01,3.68,7.98
		c1.25,7.03-1.03,12.91-6.52,17.24c-6.91,5.44-14.78,6.4-23.1,3.68c-4.06-1.33-7.71-3.43-11.15-5.96
		c-8.09-5.95-15.43-12.67-21.74-20.51c-4.16-5.17-7.39-10.8-8.63-17.42c-0.7-3.73-0.78-7.44,0.01-11.16
		c0.18-0.86,0.39-1.72,0.53-2.58c0.59-3.52-0.15-5.55-3.35-7.18c-4.68-2.39-9.44-4.71-14.34-6.58c-12.72-4.85-25.99-6.75-39.52-5.85
		c-21.2,1.4-40.37,8.35-56.86,22.04c-1.6,1.33-3.26,2.58-4.96,3.77c-4.4,3.06-9.11,3.65-14.06,1.46c-1.53-0.68-3.04-1.42-4.51-2.21
		c-7.25-3.88-14.99-5.11-23.15-4.71c-10.75,0.52-20.83,3.82-30.93,7.1c-5.93,1.93-11.69,4.26-17.17,7.26
		c-3.31,1.81-6.4,3.93-8.95,6.75c-3.64,4.03-4.96,8.59-3.54,13.95c0.9,3.39,1.57,6.85,2.22,10.3c1.21,6.42-0.85,11.86-5.38,16.36
		c-4.85,4.82-10.8,7.22-17.64,7.56c-13.12,0.66-22.84-5.24-30.41-15.48c-4.11-5.57-7.01-11.79-10.02-17.97
		c-3.07-6.32-6.17-12.63-9.48-18.82c-2.24-4.18-5.35-7.76-8.84-10.98c-6.27-5.8-13.65-7.46-21.98-6.18
		c-5.83,0.9-11.65,1.98-17.61,1.82c-6.05-0.16-11.44-2.01-16.13-5.82c-3.38-2.75-6.29-5.95-8.31-9.83
		c-4.24-8.15-8.4-16.33-12.53-24.54c-3.33-6.61-8.01-11.9-14.59-15.4c-4.86-2.59-10.13-3.8-15.56-4.46
		c-9.06-1.11-18-0.01-26.96,1.27c-8.85,1.27-17.7,2.62-26.6,3.38c-18.13,1.55-34.21-3.48-48.07-15.57
		c-6.2-5.4-12.72-10.45-19.3-15.39c-6.34-4.77-13.61-6.81-21.6-6.41c-3.01,0.15-6.08-0.07-9.08-0.44c-3.82-0.47-6.97-2.4-9.15-5.57
		c-1.39-2.03-2.72-4.2-3.52-6.5c-3.82-11.07-9.7-20.99-16.45-30.47c-6.26-8.79-12.75-17.42-18.69-26.42
		c-12.64-19.16-20.79-40.21-25.43-62.66c-2.75-13.33-4.46-26.79-4.87-40.39c-0.2-6.79-0.36-13.59-0.19-20.37
		c0.27-10.78,1.2-21.52,2.5-32.24c3.17-26.13,8.99-51.74,15.22-77.27c1.04-4.27,2.05-8.55,3.3-12.75c0.81-2.74,1.8-5.48,3.14-7.99
		c2.81-5.29,7.39-7.84,13.4-7.39c3.26,0.24,6.52,0.68,9.73,1.25c6.38,1.13,11.68-0.53,15.82-5.63c1.26-1.55,2.6-3.03,3.93-4.52
		c4.67-5.24,10.69-7.6,17.51-8.36c8.18-0.92,16.25,0.02,24.43,1.41c0.61-0.81,1.22-1.63,1.83-2.46
		c7.89-10.62,17.48-19.28,29.38-25.21c5.69-2.84,11.72-4.64,18.11-4.99c3.85-0.21,7.66,0.12,11.38,1.22
		c6.12,1.81,10.56,5.78,14,11.02c3.31,5.04,5.03,10.66,6.14,16.5c2.36,12.44,1.56,24.81-0.75,37.15c-0.23,1.24-0.47,2.48-0.73,3.88
		c0.7,0,1.22,0,1.75,0c3.07-0.03,4.56,1.18,4.97,4.33c0.3,2.29,0.41,4.62,0.49,6.93c0.1,2.96,0.07,5.92,0.1,8.87
		c0.01,0.45,0.07,0.91,0.13,1.65c1.35-0.71,1.77-1.85,2.26-2.85c2.29-4.66,4.55-9.33,6.74-14.03c4.59-9.84,9.06-19.76,14.95-28.93
		c1.68-2.61,3.56-5.13,5.62-7.45c2.93-3.29,6.57-5,11.15-3.89c3.58,0.87,5.94,3.02,7.05,6.48c1.33,4.17,1.57,8.46,1.22,12.79
		c-0.79,10-3.1,19.7-5.83,29.32c-3.49,12.26-7.87,24.61-10.08,37.18C246.51,301.53,246.48,301.77,246.63,301.94z M200.96,267.95
		c-0.17-0.04-0.33-0.08-0.5-0.12c-0.51,1.03-1.04,2.05-1.54,3.09c-5.47,11.34-12.55,21.51-21.83,30.1
		c-7.71,7.14-16.35,12.56-26.91,14.26c-9.05,1.46-16.42-1.28-20.65-10.06c-2.4-4.99-3.57-10.23-3.91-15.7
		c-0.37-5.94,0.08-11.82,1.56-17.6c0.39-1.53,0.19-2.71-1.14-3.81c-6.92-5.76-9.76-13.42-10.11-22.19
		c-0.27-6.84,1.42-13.3,3.94-19.58c0.28-0.7,0.54-1.4,0.88-2.28c-4.54-0.57-8.72-1.24-12.93-1.6c-7.09-0.62-13.02,1.72-17.57,7.33
		c-1.25,1.55-2.79,2.87-4.08,4.39c-4.47,5.28-10.37,7.42-17.04,7.24c-4.52-0.12-9.03-0.98-13.54-1.55c-2.54-0.32-4.2,0.46-5.26,2.76
		c-0.5,1.08-0.86,2.24-1.16,3.39c-0.76,2.85-1.45,5.73-2.17,8.59c-6.34,25.25-12.32,50.58-15.79,76.43
		c-1.48,11.01-2.55,22.06-3,33.16c-0.45,11.19-0.27,22.37,0.7,33.54c0.88,10.12,2.25,20.16,4.41,30.08
		c4.9,22.51,13.74,43.35,26.83,62.32c5.49,7.96,11.31,15.69,16.95,23.55c6.41,8.94,11.8,18.42,15.22,28.95
		c0.37,1.13,0.89,2.23,1.42,3.29c1.42,2.82,3.72,4.33,6.89,4.35c1.92,0.01,3.84-0.07,5.75-0.2c6.69-0.45,13.09,0.66,19.01,3.83
		c3.58,1.92,7.15,3.96,10.39,6.39c5.3,3.98,10.36,8.28,15.46,12.54c5.17,4.32,10.55,8.29,16.83,10.9
		c9.34,3.89,19.12,4.31,28.97,3.22c9.6-1.06,19.15-2.55,28.73-3.82c9.16-1.22,18.32-1.49,27.45,0.17
		c8.05,1.46,15.52,4.33,21.94,9.55c5.38,4.37,9.28,9.9,12.3,16.05c2.43,4.94,4.52,10.05,7,14.97c1.75,3.49,3.67,6.93,5.89,10.13
		c5.07,7.33,12.26,9.8,20.93,8.57c4.82-0.68,9.65-1.29,14.49-1.84c7.34-0.84,14.1,0.87,20.31,4.86c7.47,4.8,12.87,11.47,16.92,19.23
		c3.85,7.36,7.32,14.91,11.06,22.32c2.7,5.35,5.44,10.68,9.7,15.06c4.06,4.17,8.61,7.43,14.58,8.01c5.75,0.56,10.95-0.89,15.25-4.87
		c2.41-2.24,3.23-5.12,2.53-8.31c-0.46-2.1-1.13-4.16-1.83-6.2c-3.22-9.28-1.69-17.61,4.87-24.97c3.83-4.3,8.49-7.49,13.57-10.1
		c10.06-5.16,20.74-8.63,31.63-11.56c8.14-2.19,16.35-3.59,24.83-3.39c6.97,0.17,13.62,1.57,19.94,4.49
		c1.88,0.87,3.73,1.82,5.59,2.73c2.38,1.15,4.64,0.89,6.77-0.63c0.65-0.46,1.29-0.95,1.9-1.46c6.36-5.26,13.03-10.04,20.44-13.76
		c17.59-8.84,36.26-12.51,55.86-11.55c3.98,0.2,7.98,0.57,11.91,1.19c10.72,1.71,20.9,5.16,30.62,9.96
		c3.52,1.74,6.88,3.76,9.62,6.64c2.85,3,4.19,6.57,3.84,10.71c-0.15,1.83-0.4,3.65-0.65,5.47c-0.86,6.21,0.34,11.98,3.97,17.09
		c6.34,8.94,13.89,16.72,23.01,22.86c2.79,1.88,5.75,3.47,9.11,4.11c2.79,0.54,5.57,0.52,8.3-0.3c5.29-1.59,7.61-6.54,5.31-11.55
		c-0.76-1.65-1.77-3.25-2.96-4.62c-2.55-2.96-5.26-5.8-7.97-8.63c-6.58-6.89-10.99-14.88-12.36-24.39
		c-0.64-4.43-1.16-8.87-1.63-13.32c-0.81-7.72-2.77-15.05-6.77-21.78c-1.63-2.74-3.13-5.57-4.57-8.42
		c-3.21-6.35-3.93-13.08-2.81-20.05c1.09-6.75,3.91-12.8,7.74-18.4c5.56-8.14,12.56-14.9,20.36-20.85
		c7.5-5.72,15.15-11.24,22.66-16.94c5.72-4.33,10.57-9.49,14.44-15.57c5.78-9.09,7.08-18.68,3.32-28.85
		c-1.99-5.39-4.03-10.77-6.11-16.13c-2-5.15-3.76-10.37-4.36-15.9c-0.94-8.77,1.17-16.5,7.93-22.56c2.86-2.56,5.71-5.13,8.71-7.52
		c5.46-4.36,9.04-9.88,10.59-16.66c1.49-6.53,2.76-13.12,4.26-19.65c2.48-10.79,8.7-18.29,19.44-21.75c1.89-0.61,3.74-1.39,5.56-2.2
		c4.84-2.16,7.9-5.83,9.12-11.01c1.16-4.94,1.19-9.98,1.32-15.01c0.16-6.23,0.1-12.47,0.56-18.68c0.59-8.08,3.98-14.91,10.41-20.04
		c1.87-1.49,3.81-2.91,5.83-4.2c3.16-2.03,6.46-3.84,9.6-5.9c1.86-1.22,3.65-2.6,5.25-4.14c2.05-1.98,2.45-4.44,1.15-7.03
		c-0.86-1.71-1.74-3.43-2.8-5.02c-8.1-12.18-16.23-24.34-24.38-36.48c-2.06-3.07-3.34-3.05-5.06,0.23
		c-1.18,2.25-2.12,4.65-2.92,7.07c-4.74,14.23-12.36,26.77-21.93,38.24c-8.94,10.72-18.89,20.42-29.44,29.51
		c-23.44,20.2-46.92,40.34-70.43,60.45c-6.5,5.56-13.11,10.99-19.74,16.38c-3.06,2.48-6.56,4.24-10.31,5.5
		c-4.01,1.35-8.11,1.85-12.26,0.9c-7.14-1.64-11.5-6.41-13.77-13.08c-1.2-3.53-1.78-7.28-2.52-10.95
		c-1.95-9.71-3.82-19.43-5.77-29.14c-0.68-3.36-2.24-6.32-4.62-8.8c-2.66-2.77-5.06-2.96-7.58-0.13c-2.05,2.3-3.87,4.89-5.39,7.58
		c-3.32,5.88-7.06,11.42-11.77,16.27c-3.03,3.12-5.15,6.73-6.07,10.97c-0.52,2.41-0.84,4.88-1.09,7.34
		c-0.68,6.59-1.22,13.2-1.91,19.79c-0.37,3.47-1.56,6.69-3.61,9.54c-2.92,4.08-7.77,4.76-11.76,1.7c-1.9-1.46-3.28-3.33-3.79-5.67
		c-0.75-3.43-1.49-6.87-1.93-10.35c-0.75-5.95-1.59-11.86-3.69-17.53c-1.35-3.67-2.5-7.41-3.7-11.13
		c-2.53-7.81-4.09-15.74-3.21-24.03c0.85-8.02,3.75-14.79,10.83-19.33c1.53-0.98,2.85-2.33,4.1-3.66c1.21-1.28,2.37-2.77,1.64-4.7
		c-0.73-1.94-2.46-2.61-4.34-2.96c-0.39-0.07-0.79-0.14-1.19-0.15c-1.84-0.04-3.69-0.23-5.51-0.07c-6.92,0.63-13.83,1.36-20.74,2.07
		c-9.21,0.95-18.43,1.96-27.64,2.89c-3.58,0.36-5.74-1.29-5.98-4.9c-0.35-5.14,0.05-10.23,2.12-15.05
		c2.33-5.45,6.49-8.99,11.82-11.31c4.02-1.75,8.08-3.44,12.07-5.26c3.03-1.38,5.54-3.4,7.12-6.75c-1.36-0.71-2.56-1.53-3.89-1.99
		c-2.48-0.86-5.01-1.62-7.56-2.25c-16.47-4.1-32.69,0.17-46.23,10.23c-2.88,2.14-5.86,4.18-8.96,5.98c-4.4,2.57-9.25,3.46-14.32,2.8
		c-6.34-0.83-10.33-4.62-12.69-10.36c-0.38-0.93-0.71-1.88-1.14-3.02c-2.4,4.45-4.64,8.68-6.95,12.86
		c-4.97,8.97-10.32,17.69-17.44,25.15c-1.58,1.66-3.44,3.12-5.39,4.33c-2.26,1.4-4.79,1.72-7.3,0.35c-2.87-1.57-4.91-3.86-5.83-7
		c-0.88-3.01-1.25-6.13-0.88-9.25c0.37-3.17,0.84-6.34,1.5-9.46c2.46-11.54,5.28-23.31,7.74-34.97c1.26-5.99,2.43-12,3.43-18.04
		c0.24-1.47,2.07-7.48,1.11-8.63c-1.33-1.58-3.8,2.76-4.46,3.96c-2.89,5.25-5.81,10.48-8.44,15.86
		c-5.12,10.47-10.02,21.06-15.09,31.55c-1.25,2.58-2.64,5.13-4.28,7.48c-1.89,2.69-4.5,5.16-7.62,6.36
		c-1.78,0.68-3.95,0.73-5.47-0.43c-1-0.76-1.6-1.94-1.89-3.16c-0.74-3.08-0.27-6.53-0.1-9.65c0.14-2.57,0.35-5.14,0.54-7.76
		c-0.28,0.06-0.39,0.06-0.42,0.1c-0.48,0.63-0.97,1.26-1.43,1.9c-3.7,5.14-7.72,9.99-12.74,13.94c-3.59,2.82-7.53,4.79-12.08,5.45
		c-4.08,0.6-7.48-0.62-9.83-4.06c-0.97-1.42-1.61-3.1-2.22-4.73c-0.49-1.28-0.71-2.66-1.14-4.34c-0.57,1.02-0.91,1.73-1.34,2.38
		c-2.7,4.15-5.25,8.41-8.19,12.38c-2.98,4.02-6.7,7.33-11.52,9.08c-4.61,1.67-8.77,0.86-12.4-2.52c-2.26-2.11-3.37-4.84-4.16-7.7
		c-1.03-3.71-1.48-7.52-1.5-11.37c-0.01-1.71,0-3.42,0-5.14c-0.8,0.59-1.18,1.25-1.55,1.92c-4.66,8.57-9.37,17.11-15.36,24.85
		c-2.64,3.41-5.31,6.83-8.8,9.45c-5.81,4.37-10.63,2.29-14.09-3.12c-0.59-0.92-0.99-2.03-1.2-3.11c-0.36-1.79-0.65-3.62-0.73-5.45
		c-0.23-5.16,0.97-10.18,2.02-15.16c3.15-14.92,6.5-29.8,9.73-44.7c0.74-3.43,1.39-6.89,1.94-10.36c0.22-1.41,0.67-2.94-0.22-4.41
		c-1.66,0.47-2.32,1.82-3.12,2.95c-3.84,5.45-6.62,11.48-9.5,17.45c-5.03,10.43-9.94,20.92-14.96,31.35
		c-1.14,2.37-2.38,4.72-3.84,6.9c-2.31,3.44-5.19,6.3-9.41,7.36c-2.81,0.7-4.94-0.43-5.81-3.18c-0.38-1.2-0.6-2.51-0.59-3.76
		c0.03-2.87,0.23-5.74,0.38-8.62C200.72,271.52,200.85,269.73,200.96,267.95z M133.18,273.12c-0.14,0.37-0.35,0.8-0.47,1.26
		c-1.25,4.79-1.29,9.65-0.8,14.52c0.42,4.18,1.6,8.15,3.78,11.77c2.18,3.62,5.39,5.55,9.6,5.86c4.39,0.32,8.34-1.12,12.15-3.05
		c4.86-2.46,8.76-6.11,12.4-10.08c6.59-7.19,11.76-15.32,15.99-24.07c8.66-17.92,12.02-36.77,9.68-56.57
		c-0.58-4.87-2.1-9.48-4.59-13.76c-4-6.88-10.21-9.35-17.78-8.99c-6.4,0.31-12.42,2.25-18.01,5.28
		c-18.58,10.08-29.65,25.58-32.83,46.52c-0.82,5.4,0.01,10.7,2.77,15.54c1.35,2.37,3.71,2.84,5.82,1.11
		c0.78-0.64,1.34-1.56,1.95-2.39c1.61-2.18,2.97-4.6,4.85-6.52c1.81-1.85,4.07-3.31,6.26-4.73c1.62-1.05,8.06-1.87,7.53,1.62
		c-0.15,1.03-0.99,1.83-1.89,2.35c-2.11,1.23-4.42,2.11-6.52,3.36c-3,1.79-4.88,4.57-6.24,7.69c-0.93,2.14-0.43,3.91,1.43,5
		c3.05,1.77,6.24,3.13,9.89,3.27c3.59,0.14,6.97-0.67,10.31-1.8c7.38-2.51,13.67-6.84,19.68-11.67c0.93-0.75,3.02-2.93,4.35-1.51
		c0.19,0.2,0.29,0.46,0.35,0.73c0.29,1.34-0.52,2.67-1.5,3.63c-4.54,4.43-9.22,8.98-14.55,12.48c-6.72,4.41-14.09,6.35-22.1,5.3
		C140.9,274.77,137.17,273.88,133.18,273.12z M292.83,245.21c0.13,0.07,0.26,0.15,0.39,0.22c0.61-0.48,1.26-0.92,1.82-1.45
		c8.22-7.82,15.28-16.54,20.68-26.55c3.05-5.65,5.72-11.47,6.23-17.98c0.2-2.52,0.13-5.12-0.3-7.6c-0.45-2.57-2.19-3.2-4.47-1.86
		c-1.15,0.67-2.21,1.59-3.12,2.58c-3.06,3.32-5.28,7.22-7.17,11.29c-5.33,11.47-9.27,23.44-12.58,35.63
		C293.81,241.39,293.33,243.3,292.83,245.21z M447.09,250.7c2.84,1.29,5.56,2.23,8.47,1.89c3.33-0.38,6.04-2.02,7.72-5.01
		c0.86-1.54,1.06-3.23-0.03-4.76c-1.05-1.47-2.64-1.73-4.3-1.4c-4.42,0.87-8.01,3.07-10.55,6.84
		C447.94,248.96,447.6,249.75,447.09,250.7z"/>
	<path d="M328.7,231.93c3.29-0.05,4.74,2.06,4.85,5.02c0.11,2.98-3.1,6.04-6.04,6c-2.63-0.03-4.83-2.17-4.61-4.77
		C323.17,234.86,324.72,231.8,328.7,231.93z"/>
</g>
</svg>
