<?xml version="1.0" encoding="UTF-8"?><svg id="Layer_2" xmlns="http://www.w3.org/2000/svg" viewBox="0 0 1000 1000"><defs><style>.cls-1{fill:none;stroke:#000;stroke-miterlimit:10;stroke-width:10px;}</style></defs><path class="cls-1" d="M541.300611613596629,518.699388386403371l-155.951194286059035-151.223048580334762c-2.285551036056859-2.211374937523942-3.575983236734828-5.255504185714017-3.575983236734828-8.435743587509023V88.737950156089937c0-6.482690865482255-5.255259290606773-11.737950156089937-11.737950156089937-11.737950156089937H94.873047157681867c-6.902282716117043,0-12.314648133406081,5.926717764380555-11.689744818306281,12.800654230481086l1.383787114891675,15.221658263820245,8.105883809490479,65.65765885685596c.252685642133656,2.046753701290072-.038336311790772,4.123956438956156-.84376436895036,6.02246543082947l-20.026131237618756,47.204452202960965c-1.569747978179294,3.700120234280803-1.137124654143918,7.946156307163619,1.146620267381877,11.253648952134427l19.374392993189758,28.059465714273756c1.041366607072632,1.508186120586288,1.715094048448009,3.239272646323116,1.967226129681876,5.054623631192044l3.012276209190532,21.688388706179467c.532100563958011,3.831124060489856,2.917424013043274,7.154194087928772,6.376978039448659,8.883971101131465l1.364256237060545.682128118531182c3.161471173536484,1.580735586768242,5.442294775248229,4.501960643010534,6.209064162356299,7.95242288499503l15.256628854633163,68.654829845854692c.33964522118913,1.528403495350176.981631407128589,2.973412550771172,1.888164989994038,4.249959840929478l39.609110119419711,55.776093841633156c.416605103528127.586648002923539.88626897346694,1.133747398585911,1.403060503242159,1.63438919305554l19.771640142334945,19.153776387885955c3.888079363376164,3.766576883270318,9.847785333127831,4.385704464923037,14.427069219000259,1.498764623829629l10.506224297256267-6.623489230878477c8.34214051294839-5.259175540772048,19.058270058503695,1.489622089455224,17.919252176430746,11.28517587526585l-.969513796280808,8.337818648027678c-.287690004995966,2.474134042957303.219117757864296,4.975645530819747,1.447115467468393,7.142700312475426l.358932348572125.633410026894126c4.877754046479822,8.607801258491236-2.428407416875416,19.018645263840881-12.181897435799328,17.358476749981492l-.000039910566557-.000006793286957c-7.748116705721259-1.318828375442536-14.578057501610601,5.20132289040157-13.620045989406208,13.002273775508002l3.035772611601715,24.71986269446279c.594024899435681,4.837059895409766,4.115123101153586,8.803927411647237,8.847542540632276,9.967637109879433l31.980613588566484,7.864085308663562c6.50926031500785,1.600637782379636,10.358573550787696,8.318124134711979,8.448368907646,14.743357934366941l-4.520088316347028,15.203933427716038c-.843195264409587,2.836202253012743-.584141040722898,5.886219949527003.725312479415152,8.539586292967215l29.348839234378829,59.470016343348107c.584010802722332,1.183390310776304,1.36339649960064,2.259826230212639,2.305375615142111,3.18403215489343l41.271641809042194,40.492931586231862c1.51230499689882,1.483770940350951,2.594825823151041,3.34919222280223,3.132744982805889,5.398408069107973l15.291500609297145,58.253335654469993c1.06382433793442,4.052664144513983,4.207228736870093,7.230967009201777,8.247900727083106,8.339469944568918l87.966051676616189,24.132279663497684c.969435775465172.265951407427565,1.900691637181808.655334737841258,2.770904162693114,1.158590174283745l68.218900227186168,39.451894107285625c.6324422552334.365749737968144,1.229356373605697.789746569538693,1.782971741886286,1.266470914448291l57.579922780709239,49.582711283386743c1.777444527135231,1.53057723170059,3.055556560249897,3.558582668603776,3.669485022446679,5.822443872952135l9.994199920456595,36.853612206688922c1.522723662914359,5.615043506988513,6.928750288887386,9.267431209365895,12.706394107550295,8.584618758070064l160.355916484433692-18.951153766342031c8.022241954799028-.94808314011425,12.71143064701937-9.527693419790012,9.177551603752363-16.791778119835726l-6.876247452115422-14.134508651573924c-.778325469169431-1.599891242180092-1.182773505786827-3.355781748839945-1.182773505786827-5.134950802850653v-23.670257481675435c0-2.187533506541513.611292304400195-4.331542653659199,1.76491623464608-6.190158985724338l11.676987123970321-18.812923699730163c1.202578643065863-1.937487813829648,1.814760744658997-4.183314398298535,1.761743386861781-6.463060783591573l-.635626871435306-27.331955471738183c-.083540239767899-3.592230310025116,1.4828571703747-7.024842624341545,4.251039259841491-9.315751939762777l10.140129347631955-8.391831184248076c5.389269656345277-4.460085232838537,5.705681082470619-12.614304267084663.678228870889143-17.478593729405475l-94.873729559985804-92.060146108680783"/><path d="M551.435546875,544.744140625c.951171875.9169921875,1.8125,1.59375,2.583984375,2.0322265625s1.4765625.7021484375,2.115234375.7890625c.63671875.0859375,1.208984375.0126953125,1.7138671875-.2236328125.5048828125-.234375.9794921875-.5830078125,1.423828125-1.0439453125.943359375-.978515625,1.2666015625-2.2373046875.9697265625-3.7734375-.296875-1.537109375-1.20703125-3.7607421875-2.732421875-6.67578125-.6455078125-1.2890625-1.244140625-2.62890625-1.791015625-4.01953125-.55078125-1.3896484375-.88671875-2.7978515625-1.01171875-4.224609375-.1259765625-1.42578125.03125-2.857421875.47265625-4.2939453125.439453125-1.4365234375,1.328125-2.8466796875,2.66015625-4.228515625s2.791015625-2.3779296875,4.37890625-2.9873046875c1.5859375-.6083984375,3.23046875-.8447265625,4.9296875-.705078125,1.701171875.138671875,3.427734375.650390625,5.1845703125,1.5380859375,1.755859375.8876953125,3.4833984375,2.1494140625,5.1826171875,3.7880859375,2.015625,1.94140625,3.55078125,3.837890625,4.6025390625,5.685546875,1.052734375,1.84765625,1.8037109375,3.48828125,2.2548828125,4.923828125l-7.06640625,3.439453125c-.4189453125-1.23828125-.98046875-2.513671875-1.6826171875-3.83203125-.703125-1.3154296875-1.7744140625-2.66796875-3.21484375-4.056640625-1.6123046875-1.5546875-2.9873046875-2.4482421875-4.123046875-2.681640625s-2.1474609375.1103515625-3.0361328125,1.03125c-.52734375.5478515625-.841796875,1.1337890625-.943359375,1.7578125-.1015625.625-.060546875,1.31640625.123046875,2.076171875.18359375.7607421875.466796875,1.5625.8505859375,2.4033203125.3828125.841796875.8232421875,1.7529296875,1.3232421875,2.734375,1,2.0751953125,1.8046875,3.9482421875,2.416015625,5.6201171875.609375,1.671875.935546875,3.25.978515625,4.734375.0390625,1.4853515625-.23828125,2.9111328125-.833984375,4.28125-.59765625,1.3671875-1.5908203125,2.771484375-2.978515625,4.2119140625-2.693359375,2.7939453125-5.76171875,4.017578125-9.203125,3.6708984375-3.4453125-.34765625-7.138671875-2.4228515625-11.083984375-6.2265625-1.3251953125-1.27734375-2.443359375-2.5078125-3.357421875-3.693359375-.912109375-1.185546875-1.66796875-2.2890625-2.2666015625-3.3095703125-.5986328125-1.0224609375-1.0693359375-1.9482421875-1.4091796875-2.775390625-.33984375-.8291015625-.6015625-1.5517578125-.783203125-2.1708984375l7.064453125-3.5244140625c.4208984375,1.349609375,1.099609375,2.8505859375,2.03515625,4.5029296875.935546875,1.650390625,2.353515625,3.39453125,4.25390625,5.2255859375Z"/><path d="M606.4169921875,578.7421875c-2.470703125,2.5634765625-5.0244140625,4.447265625-7.6611328125,5.6552734375-2.63671875,1.208984375-5.25,1.830078125-7.837890625,1.86328125-2.587890625.0341796875-5.115234375-.5-7.58203125-1.6005859375s-4.751953125-2.6640625-6.853515625-4.6904296875c-2.0458984375-1.970703125-3.65625-4.162109375-4.83203125-6.572265625-1.17578125-2.412109375-1.80859375-4.9248046875-1.8994140625-7.541015625-.0908203125-2.6142578125.4130859375-5.2685546875,1.5087890625-7.9619140625,1.0966796875-2.693359375,2.87890625-5.3212890625,5.349609375-7.8837890625,2.470703125-2.5634765625,5.046875-4.4287109375,7.7265625-5.595703125,2.6806640625-1.166015625,5.3427734375-1.7529296875,7.98828125-1.7587890625,2.64453125-.005859375,5.185546875.52734375,7.625,1.5986328125,2.4375,1.0732421875,4.6513671875,2.568359375,6.638671875,4.4833984375,2.044921875,1.970703125,3.654296875,4.1611328125,4.830078125,6.5732421875s1.80078125,4.931640625,1.87890625,7.560546875c.076171875,2.62890625-.43359375,5.291015625-1.529296875,7.984375-1.095703125,2.6943359375-2.8798828125,5.322265625-5.3505859375,7.8857421875ZM583.564453125,556.7138671875c-1.4150390625,1.46875-2.513671875,2.966796875-3.2900390625,4.4951171875-.7783203125,1.5283203125-1.2392578125,3.0419921875-1.3798828125,4.5439453125-.1435546875,1.501953125.052734375,2.955078125.587890625,4.359375s1.435546875,2.71875,2.7041015625,3.939453125c1.2373046875,1.193359375,2.576171875,2.0390625,4.0126953125,2.5361328125,1.4384765625.4970703125,2.9052734375.6474609375,4.4013671875.4501953125,1.4951171875-.197265625,2.9912109375-.712890625,4.4912109375-1.546875,1.49609375-.833984375,2.955078125-1.984375,4.3701171875-3.453125,1.416015625-1.46875,2.5185546875-2.974609375,3.3115234375-4.517578125.791015625-1.541015625,1.2587890625-3.064453125,1.4013671875-4.5654296875.1416015625-1.5009765625-.0615234375-2.9619140625-.6103515625-4.380859375-.5498046875-1.41796875-1.4443359375-2.7255859375-2.681640625-3.91796875-1.267578125-1.2216796875-2.6201171875-2.0673828125-4.056640625-2.5361328125-1.4375-.4677734375-2.904296875-.603515625-4.3994140625-.40625s-3,.720703125-4.5107421875,1.568359375c-1.513671875.84765625-2.962890625,1.9921875-4.3515625,3.431640625Z"/><path d="M610.650390625,612.9072265625c-4.8662109375-4.69140625-7.2705078125-9.619140625-7.208984375-14.783203125.060546875-5.1640625,2.4921875-10.236328125,7.294921875-15.21875,2.3876953125-2.4765625,4.90625-4.3125,7.55859375-5.505859375,2.650390625-1.1953125,5.298828125-1.8095703125,7.943359375-1.84375,2.6435546875-.03515625,5.2353515625.50390625,7.7734375,1.6181640625,2.5380859375,1.1123046875,4.9013671875,2.7236328125,7.0908203125,4.8349609375,1.2666015625,1.220703125,2.328125,2.4248046875,3.1845703125,3.611328125.8564453125,1.1875,1.5546875,2.27734375,2.09765625,3.271484375.541015625.994140625.9453125,1.8701171875,1.21484375,2.62890625.2685546875.759765625.447265625,1.322265625.5400390625,1.6875l-7.1904296875,3.5703125c-.451171875-1.37890625-1.12109375-2.830078125-2.009765625-4.35546875-.892578125-1.5263671875-2.115234375-3.037109375-3.669921875-4.537109375-1.037109375-.9990234375-2.21875-1.8046875-3.544921875-2.41796875-1.3271484375-.611328125-2.740234375-.904296875-4.23828125-.875-1.4990234375.0263671875-3.0625.421875-4.6884765625,1.1875-1.6259765625.7666015625-3.2734375,2.013671875-4.9384765625,3.740234375-1.33203125,1.3828125-2.423828125,2.8173828125-3.2734375,4.3046875-.849609375,1.486328125-1.353515625,2.986328125-1.5087890625,4.50390625-.15625,1.515625.0703125,3.0546875.6796875,4.61328125.607421875,1.55859375,1.6904296875,3.087890625,3.2451171875,4.5859375.978515625.943359375,1.912109375,1.7333984375,2.8017578125,2.3671875.8876953125.634765625,1.7119140625,1.1640625,2.4697265625,1.587890625.755859375.42578125,1.462890625.759765625,2.119140625,1.001953125.6533203125.2421875,1.251953125.45703125,1.79296875.6455078125l-3.34765625,7.1904296875c-1.505859375-.33984375-3.3447265625-1.1123046875-5.515625-2.3173828125-2.171875-1.205078125-4.396484375-2.9052734375-6.671875-5.0966796875Z"/><path d="M646.869140625,646.6533203125c.669921875-1.3623046875,1.341796875-2.775390625,2.015625-4.2412109375.671875-1.4658203125,1.3427734375-2.9267578125,2.01171875-4.37890625l-11.693359375-11.2705078125c-1.4306640625.728515625-2.8642578125,1.4560546875-4.30078125,2.1875-1.439453125.7314453125-2.8203125,1.4560546875-4.142578125,2.173828125l-6.998046875-6.74609375c4.236328125-2.138671875,8.17578125-4.08984375,11.8251953125-5.8515625,3.6474609375-1.7607421875,7.1220703125-3.384765625,10.4228515625-4.87109375,3.298828125-1.486328125,6.46484375-2.86328125,9.5-4.1337890625,3.03515625-1.2685546875,6.05859375-2.453125,9.068359375-3.5517578125l6.38671875,6.1572265625c-1.0146484375,3.021484375-2.09375,6.080078125-3.2333984375,9.1748046875-1.1416015625,3.0947265625-2.3935546875,6.318359375-3.7548828125,9.671875-1.36328125,3.353515625-2.857421875,6.88671875-4.4814453125,10.5986328125-1.6259765625,3.7119140625-3.427734375,7.724609375-5.408203125,12.037109375l-7.2177734375-6.9560546875ZM661.091796875,615.6943359375c-.568359375.2890625-1.359375.669921875-2.3701171875,1.1376953125-1.0107421875.4697265625-2.173828125,1.0166015625-3.4892578125,1.6416015625-1.3154296875.623046875-2.76953125,1.3046875-4.36328125,2.04296875-1.59375.7392578125-3.25,1.5283203125-4.96875,2.3671875l8.5595703125,8.251953125c.79296875-1.740234375,1.5458984375-3.408203125,2.2568359375-5.00390625.7109375-1.5966796875,1.345703125-3.072265625,1.904296875-4.42578125s1.052734375-2.544921875,1.482421875-3.5732421875c.4287109375-1.0283203125.7578125-1.8408203125.98828125-2.4384765625Z"/><path d="M683.51171875,670.8056640625l-5.580078125,5.7890625-20.0009765625-19.279296875,28.8564453125-29.9375,6.7392578125,6.49609375-23.2763671875,24.1484375,13.26171875,12.783203125Z"/></svg>