<?xml version="1.0" encoding="UTF-8"?><svg id="Layer_2" xmlns="http://www.w3.org/2000/svg" viewBox="0 0 1000 1000"><defs><style>.cls-1{fill:none;stroke:#000;stroke-miterlimit:10;stroke-width:10px;}</style></defs><path class="cls-1" d="M767.94087390841014,281.100902101236898l8.468594548156034.874983938554578,17.929770177501268,1.852522379963375c1.074310775567938.110998899321203,2.077652099769693.588482314082285,2.84134850481496,1.352178719126641l13.442337800470341,13.442337800470341c.881726353280101.881726353280101,2.077603920710317,1.377075060647257,3.324553287820891,1.377075060647257h11.40327960004106c1.0676057790497,0,2.103423891090642.363345374644268,2.937083944731057,1.0302734175566l12.4243164561085,9.9394531648868c.833660053640415.666928042912332,1.869478165683176,1.0302734175566,2.937083944731057,1.0302734175566h11.649129478744726c2.596637636232117,0,4.701628348469967,2.10499071223694,4.701628348469967,4.701628348469058v114.494187571011935c0,1.1614986228833.429933904684731,2.281888419057395,1.206935519221588,3.145223546321176l14.245449736854425,15.828277485393301c1.485343133645074,1.650381259605638,1.613637111209755,4.114902293786145.307683671142513,5.910588273878602l-3.846379000158777,5.288771125220592c-1.151387394942503,1.583157668043896-1.201357027628546,3.714069656842184-.125444136285296,5.349457251682907l21.946787218403188,33.359116571973573c.798066166014905,1.213060572343238.990854545829279,2.726812998027526.52231849618147,4.101185410328981l-13.897635084831563,40.766396248838646c-.236531907465178.693826928565613-.307553509974241,1.433349268378151-.207393250988389,2.159511146041041l3.600173404387533,26.101257181811889c.159295594346986,1.154893059007009-.11616509275882,2.327780333314877-.772918486620256,3.291018644311407l-11.929817882104544,17.497066227089817c-1.206902143647312,1.770123144015088-1.064513203700699,4.132311540772207.346277974993427,5.744644316422637l.000006999998732.00000799999907c2.198633124095068,2.512723570393064,1.150788181221287,6.45240976795867-2.005648884198308,7.540836342242983l-22.06890572953489,7.609967492942815c-.214047457491688.07380946810008-.422483685517363.162984296825016-.623681515386124.266828338046253l-30.578201446583989,15.782297520818247c-.079722071808646.041146875772029-.158250092605158.084567154677643-.235487602174544.130207501242694l-19.574347809439132,11.566660069212958c-1.431514531130233.845894950212823-2.309772192877062,2.384996179474911-2.309772192877062,4.047756571000718v3.678152974802288c0,1.639037430231838-.853569632476137,3.159777989527356-2.252716364862863,4.0134946397975l-56.747283635137137,34.625461201099824-62.69087925662825,41.140889512162175c-.849802179833205.557682680517246-1.495989001050475,1.375746259061998-1.841720842350696,2.331593114426141l-16.244152650066098,44.910304385477502c-.148113369248676.409489903217036-.238621061409503.837570937772398-.268927852603156,1.271968278228087l-2.883131423359373,41.324883734787363c-.046910024688259.672377020531712.051294355989739,1.346980524207538.287955569061523,1.978077092400781l21.458339675667958,57.222239135118798c1.094957559871546,2.91988682632109-.904154172341805,6.07726732678384-4.011822822463728,6.336239714293697l-16.024279135504912,1.335356594625409c-1.147517821475049.095626485122921-2.290229699498013-.233187889827605-3.211425991376018-.924085108734289l-9.316187710788654-6.9871407830924c-.813833863860054-.61037539789686-1.80368467925291-.940325669693266-2.820977009079797-.940325669693266h-17.214476270510204c-.799014697691746,0-1.584848060749209-.203629878194988-2.283312572464638-.591665718035074l-34.097117095079739-18.942842830600057c-.552903331892594-.30716851771831-1.162100225874383-.499619410671585-1.791123621918814-.565832399728606l-15.130910664222029-1.592727438339352c-1.784615258275153-.187854237714419-3.306669175777643-1.375169801827724-3.923217673680483-3.060402362763853l-13.493093415934709-36.881122003553173c-.32542388398906-.889491949570584-.91191149032602-1.659958856713274-1.682640655420983-2.210479688923442l-10.600325921142939-7.571661372247036c-1.37097846103643-.979270329311476-2.767773994168238-41.240660516168646-2.767773994168238-41.240660516168646.346114310048506-1.470985817704786-32.340383797542017-40.217764305998571-32.340383797542017-40.217764305998571-.072254245409567-.083201858351458-.147411272475438-.163837767693622-.225331825646208-.241758320862573l-10.942094198393534-10.942094198395353c-.615241086808965-.615241086805327-1.047691070112705-1.389138192436803-1.249219988712866-2.235559650551295l-4.578186434042436-19.228383022988055c-.075516791399423-.317170523880122-.183820041125728-.625625750548352-.323161479263945-.920386485075142l-24.879914482316963-52.630588327974692c-.578685479351407-1.224142360166297-1.657041406167991-2.139367056686751-2.958975154419022-2.511348127614838l-10.326371435477995-2.950391838709038c-1.050529947746327-.300151413641288-1.963731170773826-.956798737834106-2.582702228295602-1.85712027604859l-19.686940726222019-28.635550147231697c-.851705354712976-1.238844152310776-2.244487845569893-1.995687209540847-3.747314219455802-2.036304138564446l-34.120675947371637-.922180431010929c-.32414819663245-.008760762069869-.646520457201404-.051032043471423-.961968985579006-.126138835943493l-18.862759014749827-4.491133098748833c-1.074141508024695-.255747978100771-2.204027858746485-.125289908788545-3.191625755693167.368509039684795l-5.625115030881716,2.812557515440858c-.55844359814364.27922179907182-1.166908385763236.444419009209014-1.789884452831757.485950747013703l-10.660017527367017.710667835157437c-2.026461123707122.13509740824702-3.737109580219112,1.556129432981834-4.241549827140261,3.5234463959805l-8.78060163893133,34.244346391837098c-.243250750610969.94867792738296-.776681427620133,1.797713957901578-1.525810610097324,2.428559585247058l-15.555102486079704,13.099033672491714c-1.398662740886721,1.17782125548365-3.353341769990948,1.437884655299058-5.011308130917314.666737510680832l-39.805474654520367-18.514174257914419c-.316554235168951-.147234527985347-.615724445624437-.329269299420048-.891977656376184-.542737689547721l-41.880572281512286-32.362260399351726c-1.081815553852721-.835948382522474-1.746182780390882-2.101386369504326-1.819975754528059-3.466556391063932l-1.802389452834177-33.344204877434095c-.052934292116333-.979284404156715-.410772538671154-1.91750335452889-1.023419728273439-2.683312341530836l-10.256414731433324-12.820518414289836c-.524776837686659-.655971047108324-.864218262615395-1.440563421219849-.98301967203588-2.27217328716506l-1.546070404870989-10.822492834086006c-.174600457754423-1.222203204293692-.822935352041895-2.326685636417096-1.80498464167249-3.074913666612701l-40.045005444768321-30.510480338871275c-.280759676126763-.21391213419156-.536538202322845-.458759863522573-.762500984776125-.729915202466145l-53.233696655786844-63.880435986943667c-2.551914270632551-3.062297124758516-.374326574978113-7.711537470178882,3.611890946051062-7.711537470178882h197.316504375678051c2.574544514733134,0,4.670270786358742-2.070628658701935,4.701287143900117-4.644986334687019l3.888072618443402-322.710027330626872c.031016357541375-2.574357675985084,2.126742629166984-4.644986334687019,4.701287143898298-4.644986334687019h168.78546179643854c2.544345685386361,0,4.627044553115411,2.024043093549153,4.699710490609505,4.567350905879721l3.811754068901791,133.411392411551788c.036867572876872,1.29036505068143.60266310807674,2.508810345279926,1.564688876711443,3.369570243530688l16.357253997923181,14.635437787614137c.738294311173377.660579120524744,1.666384544749235,1.071068438865041,2.651816830890311,1.172884320827507l25.032959547452265,2.586431244755659"/><path d="M600.5830078125,242.107421875l-.79296875,7.9404296875-12.4775390625-1.2470703125-3.3408203125,33.43359375-9.3125-.9296875,3.33984375-33.43359375-12.4775390625-1.2470703125.79296875-7.9404296875,34.2685546875,3.423828125Z"/><path d="M602.4208984375,284.0771484375l4.1328125-41.3740234375,27.9404296875,2.7919921875-.78125,7.8203125-18.626953125-1.8603515625-.8115234375,8.119140625,16.5380859375,1.65234375-.763671875,7.6416015625-16.5380859375-1.6513671875-.9951171875,9.970703125,20,1.998046875-.7822265625,7.8203125-29.3125-2.9287109375Z"/><path d="M663.5771484375,290.1865234375c-.9345703125-2.419921875-1.9755859375-4.8818359375-3.125-7.3837890625-1.1484375-2.501953125-2.5400390625-4.66015625-4.1728515625-6.4716796875-.6181640625.5595703125-1.4091796875,1.3447265625-2.3720703125,2.3544921875-.96484375,1.009765625-1.9345703125,2.0888671875-2.912109375,3.234375-.978515625,1.146484375-1.9052734375,2.34375-2.7822265625,3.58984375-.8759765625,1.2470703125-1.5341796875,2.2294921875-1.9716796875,2.9453125l-10.626953125-1.0615234375c2.0634765625-3.056640625,4.451171875-6.1875,7.1650390625-9.390625,2.712890625-3.2041015625,5.72265625-6.5927734375,9.0263671875-10.166015625l-11.4609375-21.7578125,11.283203125,1.126953125,6.6865234375,12.7685546875,9.2529296875-11.17578125,10.62890625,1.0615234375-15.4228515625,18.626953125c3.080078125,4.7626953125,5.5751953125,9.0966796875,7.484375,13.0009765625,1.908203125,3.9033203125,3.396484375,7.1748046875,4.4619140625,9.8115234375l-11.142578125-1.11328125Z"/><path d="M709.9990234375,294.82421875c-.3173828125-1.4833984375-.6640625-3.009765625-1.04296875-4.578125-.37890625-1.5673828125-.755859375-3.1298828125-1.130859375-4.68359375l-16.1591796875-1.615234375c-.673828125,1.4580078125-1.3486328125,2.91796875-2.0244140625,4.3818359375-.677734375,1.46484375-1.3125,2.888671875-1.908203125,4.2705078125l-9.671875-.9658203125c2.00390625-4.3017578125,3.890625-8.2734375,5.666015625-11.916015625,1.7744140625-3.640625,3.498046875-7.0673828125,5.169921875-10.27734375,1.6708984375-3.208984375,3.3046875-6.251953125,4.9033203125-9.126953125,1.5966796875-2.875,3.2392578125-5.6767578125,4.9228515625-8.40234375l8.828125.8818359375c1.0732421875,3.0009765625,2.119140625,6.0712890625,3.1396484375,9.20703125,1.0185546875,3.1376953125,2.03125,6.4443359375,3.037109375,9.9208984375,1.005859375,3.4775390625,2.01953125,7.1767578125,3.0419921875,11.09765625,1.0205078125,3.921875,2.087890625,8.189453125,3.203125,12.8017578125l-9.974609375-.99609375ZM702.005859375,261.705078125c-.2685546875.580078125-.654296875,1.3681640625-1.158203125,2.361328125-.50390625.9951171875-1.0771484375,2.14453125-1.724609375,3.44921875-.646484375,1.3037109375-1.3671875,2.7392578125-2.162109375,4.306640625-.7939453125,1.56640625-1.60546875,3.2109375-2.4365234375,4.9345703125l11.8310546875,1.181640625c-.455078125-1.857421875-.8955078125-3.6328125-1.326171875-5.3271484375-.4296875-1.693359375-.8447265625-3.2451171875-1.2421875-4.654296875-.3994140625-1.4091796875-.748046875-2.650390625-1.048828125-3.724609375-.2998046875-1.072265625-.5439453125-1.9140625-.732421875-2.52734375Z"/><path d="M738.4140625,290.4873046875c1.3134765625.130859375,2.408203125.130859375,3.287109375-.00390625.876953125-.1328125,1.59375-.3623046875,2.1494140625-.689453125.5537109375-.326171875.95703125-.73828125,1.2080078125-1.236328125.2509765625-.49609375.4091796875-1.0634765625.47265625-1.701171875.134765625-1.3525390625-.390625-2.541015625-1.57421875-3.5634765625-1.1845703125-1.0234375-3.27734375-2.2060546875-6.2783203125-3.5517578125-1.3056640625-.61328125-2.6044921875-1.294921875-3.896484375-2.0478515625-1.2919921875-.751953125-2.4267578125-1.6494140625-3.4091796875-2.6923828125-.9814453125-1.0419921875-1.7431640625-2.263671875-2.287109375-3.6650390625-.54296875-1.4013671875-.7177734375-3.0576171875-.52734375-4.9677734375.19140625-1.91015625.720703125-3.5947265625,1.5888671875-5.056640625.8701171875-1.4599609375,2.015625-2.6630859375,3.4375-3.6064453125,1.419921875-.943359375,3.09375-1.6103515625,5.0224609375-2s4.0654296875-.46875,6.4150390625-.234375c2.78515625.2783203125,5.1650390625.8173828125,7.134765625,1.6171875,1.970703125.7998046875,3.576171875,1.6240234375,4.818359375,2.4716796875l-3.4208984375,7.0751953125c-1.0947265625-.7119140625-2.3251953125-1.3681640625-3.6923828125-1.966796875s-3.0458984375-.998046875-5.0361328125-1.1962890625c-2.2294921875-.22265625-3.8623046875-.07421875-4.8984375.4453125-1.0380859375.51953125-1.6181640625,1.416015625-1.7451171875,2.689453125-.076171875.7568359375.0390625,1.4111328125.345703125,1.9638671875.306640625.5537109375.767578125,1.072265625,1.3828125,1.5546875.6142578125.484375,1.33203125.9384765625,2.154296875,1.361328125.822265625.423828125,1.732421875.8662109375,2.732421875,1.328125,2.0693359375,1.01171875,3.861328125,1.984375,5.3759765625,2.9189453125,1.5146484375.935546875,2.7470703125,1.9736328125,3.7001953125,3.11328125.9501953125,1.140625,1.615234375,2.4326171875,1.994140625,3.876953125.376953125,1.4453125.466796875,3.1630859375.2685546875,5.1533203125-.3857421875,3.8603515625-2.0380859375,6.720703125-4.95703125,8.5791015625-2.919921875,1.8603515625-7.10546875,2.5166015625-12.55859375,1.9716796875-1.8310546875-.1826171875-3.47265625-.4580078125-4.921875-.82421875-1.4521484375-.3662109375-2.7275390625-.7646484375-3.830078125-1.1953125-1.1025390625-.431640625-2.044921875-.8681640625-2.82421875-1.3076171875-.7802734375-.4404296875-1.4345703125-.8466796875-1.958984375-1.220703125l3.3671875-7.140625c1.166015625.7998046875,2.626953125,1.55859375,4.3857421875,2.2763671875,1.755859375.71875,3.9482421875,1.208984375,6.5751953125,1.4716796875Z"/></svg>