<?xml version="1.0" encoding="utf-8"?>
<!-- Generator: Adobe Illustrator 28.2.0, SVG Export Plug-In . SVG Version: 6.00 Build 0)  -->
<svg version="1.1" id="Layer_1" xmlns="http://www.w3.org/2000/svg" xmlns:xlink="http://www.w3.org/1999/xlink" x="0px" y="0px"
	 viewBox="0 0 864 864" style="enable-background:new 0 0 864 864;" xml:space="preserve">
<g>
	<path d="M357.47,229.17c1.35-0.7,2.55-1.12,3.53-1.85c5.4-4.02,9.79-8.94,12.75-15.03c1.99-4.09,3.85-8.24,5.92-12.66
		c-3.66-1.44-7.14-2.59-10.98-1.87c-0.63,0.12-1.25,0.27-1.85,0.49c-1.03,0.38-1.93,0.3-2.47-0.74c-0.61-1.17,0.29-1.8,1.06-2.35
		c1.89-1.33,3.99-1.98,6.33-1.62c2.76,0.42,5.54,0.79,8.27,1.33c1.37,0.27,2.28-0.12,3.16-1.11c1.89-2.17,3.84-4.29,5.79-6.41
		c0.79-0.85,1.72-1.46,2.97-1.13c1.7,0.46,2.44,1.99,1.66,3.81c-0.75,1.76-1.75,3.41-2.62,5.11c-0.25,0.49-0.46,1-0.74,1.61
		c2.38,1.34,5.14,1.64,7.78,2.09c3.18,0.55,6.33,1.2,9.58,1.2c3.35,0,6.77-0.69,9.57-2.51c0.84-0.55,1.86-1.22,2.76-0.77
		c0.68,0.34,0.94,1.24,0.74,1.97s-0.75,1.32-1.35,1.79c-1.35,1.08-2.99,1.73-4.65,2.21c-7.38,2.12-16.29,1.67-23.66-0.33
		c-0.39-0.1-0.78-0.18-1.17-0.27c-2.14-0.54-2.41-0.53-3.32,1.55c-1.38,3.14-2.74,6.3-3.8,9.56c-2.18,6.68-4.08,13.45-4.94,20.46
		c-0.37,2.94-0.47,5.9,0.19,8.82c0.12,0.54,0.25,1.09,0.43,1.61c0.92,2.56,2.42,3.2,4.54,1.58c2.01-1.54,4-3.24,5.55-5.22
		c3.57-4.52,6.46-9.49,8.93-14.72c2.87-6.09,7.89-8.99,14.61-8.99c0.16,0,0.32-0.01,0.48,0.01c5.53,0.64,8.87,3.32,6.74,9.79
		c-1.22,3.71-2.54,7.4-3.77,11.11c-0.37,1.11-1.08,2.44,0.05,3.34c1.08,0.85,2.17-0.2,2.99-0.83c1.51-1.15,2.9-2.49,4.27-3.81
		c3.69-3.57,6.17-7.7,7.28-12.87c1.2-5.61,3.42-10.97,5.97-16.14c0.24-0.49,0.41-1,0.71-1.73c0.14-0.36-6.16-1.78-6.75-1.84
		c-1.24-0.12-2.54-0.15-3.78,0.05c-1.01,0.17-2.03,0.71-3.08,0.54c-0.91-0.15-1.75-1.04-1.5-1.92c0.11-0.38,0.39-0.69,0.69-0.95
		c1.85-1.61,4.47-2.03,6.92-1.86c3.85,0.28,9.78,3.4,12.27-1.04c0.81-1.44,2.04-2.66,3.18-3.89c0.64-0.69,1.45-1.25,2.25-1.76
		c1.1-0.71,2.28-0.81,3.35,0.06c1.12,0.91,1,2.18,0.55,3.3c-0.6,1.47-1.42,2.86-2.15,4.28c-0.39,0.77-0.79,1.54-1.27,2.47
		c4.2,1.3,8.29,2.25,12.49,2.6c4.65,0.39,9.76,0.92,13.91-1.63c0.77-0.47,1.51-1.03,2.4-1.21c0.88-0.18,1.96,0.19,2.23,1.05
		c0.29,0.96-0.53,1.88-1.34,2.48c-2.63,1.94-5.86,2.95-9.1,3.38c-6.81,0.91-14.55,0.47-21.12-1.58c-1.7-0.53-2.2-0.28-2.97,1.49
		c-1.34,3.07-2.69,6.15-3.74,9.33c-1.67,5.04-3.13,10.17-4.03,15.41c-0.8,4.65-2.16,11.37-0.57,15.96c0.33,0.94,1.03,1.81,1.99,2.06
		c1.06,0.28,2.18-0.23,3.06-0.9c6.37-4.9,10.87-11.43,13.73-18.92c0.71-1.86,1.35-3.78,2.34-5.49c3.49-6.01,11.13-7.63,16.84-3.68
		c3.59,2.48,3.67,6.75,0.21,9.44c-2.59,2.02-5.52,2.34-8.63,1.89c-0.86-0.13-1.71-0.29-2.61-0.44c-1.53,2.28-1.7,4.73-1.37,7.2
		c0.26,1.95,1.81,2.97,3.65,2.31c2.17-0.77,4.35-1.64,6.3-2.83c2.72-1.67,5.21-3.71,7.84-5.52c1.42-0.98,1.53-2.31,1.33-3.81
		c-0.38-2.87,0.1-5.56,1.66-8.04c1.97-3.12,5.4-4.49,8.9-3.47c3.12,0.91,4.71,3.9,3.44,6.47c-0.99,2-2.05,2.19-3.62,0.62
		c-0.22-0.22-0.36-0.53-0.48-0.71c-1.74,0.3-1.86,1.41-1.76,2.56c0.36,4.07,1.68,7.76,4.38,11.09c1.46-0.9,2.91-1.71,4.28-2.63
		c6.25-4.22,13.23-5.47,20.58-4.89c5.86,0.46,11.51,1.93,16.68,4.78c1.86,1.03,3.68,2.32,5.14,3.85c3.25,3.42,3.74,7.48,1.86,11.77
		c-2.24,5.1-5.82,8.91-10.95,11.23c-4.8,2.16-9.58,4.4-14.36,6.61c-3.05,1.41-5.25,3.6-6.2,6.9c-0.1,0.36-0.08,0.76-0.12,1.23
		c1.53,0,2.96,0.13,4.36-0.02c10.8-1.18,21.59-2.47,32.39-3.61c3.49-0.37,7.02-0.62,10.52-0.57c4.68,0.07,8.94,1.7,12.56,4.68
		c6.09,5.01,7.09,13.73,2.31,20.03c-1.25,1.65-2.76,3.1-4.21,4.59c-0.78,0.8-1.64,1.53-2.51,2.23c-6.27,5.04-8.38,11.69-7.29,19.44
		c0.43,3.06,1.21,6.1,2.09,9.08c2.24,7.58,4.63,15.11,6.97,22.66c0.23,0.74,0.51,1.46,1.23,2.15c0.31-3.28,0.72-6.55,0.9-9.84
		c0.36-6.37,2.68-11.87,6.55-16.91c4.97-6.46,9.67-13.12,14.51-19.68c2.23-3.02,4.39-6.1,6.78-8.99c5.44-6.57,13.1-6.68,19.76-2.26
		c4.18,2.78,6.96,6.76,9.09,11.23c2.05,4.3,2.96,8.92,3.82,13.56c1.76,9.42,3.5,18.84,5.34,28.25c0.33,1.7,1,3.37,1.76,4.94
		c1.77,3.68,4.34,5,8.22,3.82c2.72-0.82,5.37-2.06,7.84-3.48c5.17-2.94,9.56-6.95,14.03-10.82c27.57-23.86,55.14-47.71,82.67-71.61
		c11.76-10.21,22.36-21.48,30.98-34.53c4.78-7.24,8.48-14.99,11.49-23.12c1.33-3.58,2.83-7.14,4.62-10.51
		c2.92-5.48,9.1-8.1,14.85-6.48c1.34,0.38,2.78,1.03,3.73,2c2.58,2.6,5.24,5.22,7.29,8.22c7.98,11.68,15.75,23.5,23.58,35.28
		c2.44,3.67,3.89,7.65,4.01,12.11c0.13,4.82-1.47,8.92-4.79,12.38c-3.13,3.26-6.82,5.78-10.65,8.12c-2.32,1.42-4.67,2.78-7.01,4.16
		c-7.1,4.16-10.61,10.39-10.73,18.57c-0.07,4.8,0.03,9.6-0.21,14.39c-0.28,5.57,0.03,11.19-1.25,16.7
		c-2.1,9.07-7.01,15.82-15.78,19.46c-2.14,0.89-4.27,1.81-6.46,2.54c-6.76,2.26-10.69,6.98-12.32,13.79
		c-1.91,8-3.85,15.99-5.76,23.99c-1.38,5.78-4.32,10.64-8.77,14.54c-3.54,3.11-7.31,5.97-10.82,9.12
		c-4.28,3.83-6.66,8.57-5.88,14.47c0.23,1.72,0.76,3.43,1.34,5.07c2.67,7.61,5.37,15.2,8.11,22.79c6.14,17.02,3.35,32.51-7.88,46.59
		c-3.97,4.97-8.63,9.19-13.71,13c-8.64,6.46-17.29,12.92-25.79,19.58c-5.88,4.61-10.95,10.06-15.02,16.36
		c-2.68,4.14-4.52,8.59-5.26,13.51c-0.65,4.35,0.02,8.45,1.91,12.35c1.22,2.51,2.55,4.99,4.01,7.36c4.66,7.57,7.05,15.84,8.13,24.6
		c0.73,5.94,1.55,11.88,2.49,17.79c0.67,4.19,2.58,7.9,5.31,11.12c3.2,3.78,6.59,7.4,9.78,11.2c2.05,2.44,4.09,4.94,5.77,7.64
		c5.96,9.56,3.05,21.02-6.66,26.73c-6.87,4.04-14.07,4.76-21.64,2.16c-4.9-1.69-9.23-4.34-13.35-7.4
		c-8.01-5.95-15.11-12.82-21.24-20.69c-4.29-5.52-7.35-11.57-8.21-18.61c-0.46-3.77,0.03-7.49,0.55-11.21
		c0.09-0.63,0.2-1.26,0.33-1.89c0.42-1.96-0.3-3.5-1.9-4.54c-1.6-1.04-3.29-1.97-5-2.83c-9.2-4.61-18.85-7.88-29.08-9.21
		c-27.33-3.54-52.2,2.45-74.21,19.37c-2.09,1.61-4.16,3.25-6.28,4.82c-5.21,3.83-10.81,4.42-16.73,1.83
		c-1.61-0.7-3.14-1.56-4.71-2.36c-6.4-3.29-13.21-4.6-20.37-4.22c-12.01,0.65-23.45,3.79-34.6,8.04c-4.99,1.9-9.89,4.09-14.65,6.5
		c-2.6,1.32-5.01,3.18-7.18,5.14c-4.34,3.91-5.79,8.8-4.32,14.57c0.85,3.32,1.43,6.71,2.04,10.08c1.34,7.37-1.19,13.34-6.71,18.19
		c-4.94,4.34-10.73,6.43-17.27,6.75c-10.04,0.5-18.72-2.59-25.99-9.53c-4.32-4.13-7.74-8.97-10.46-14.25
		c-4.42-8.59-8.65-17.28-12.92-25.96c-2.39-4.86-5.52-9.15-9.44-12.9c-3.54-3.39-7.53-6.05-12.45-6.69
		c-2.98-0.38-6.06-0.28-9.06-0.03c-4.85,0.41-9.67,1.2-14.51,1.68c-11.42,1.13-20.2-3.56-26.83-12.6c-1.79-2.43-3.26-5.12-4.64-7.82
		c-3.37-6.53-6.63-13.12-9.88-19.71c-5.56-11.3-14.71-17.54-27.02-19.44c-8.3-1.28-16.56-0.79-24.83,0.36
		c-9.81,1.35-19.61,2.84-29.46,3.82c-13.38,1.33-26.3-0.4-38.26-7.1c-4.84-2.71-9.14-6.15-13.44-9.62
		c-5.22-4.22-10.44-8.45-15.68-12.65c-4.29-3.44-8.97-6.13-14.45-7.15c-1.8-0.34-3.63-0.58-5.46-0.69
		c-3.91-0.24-7.82-0.4-11.73-0.51c-4.2-0.12-7.64-1.77-10.06-5.16c-1.57-2.2-3.14-4.52-4.05-7.03
		c-4.38-11.98-10.81-22.76-18.29-33.02c-5.79-7.95-11.52-15.94-16.99-24.11C39.42,455.03,31.47,435,26.68,413.68
		c-2.93-13.04-4.65-26.25-5.45-39.59c-0.61-10.31-0.67-20.61-0.18-30.91c0.73-15.17,2.48-30.24,4.98-45.23
		c4.04-24.29,9.76-48.2,16.05-71.98c0.81-3.05,2.19-6,3.7-8.79c5.01-9.28,15.79-6.95,24.61-6.68c8.56,0.26,17.12,0.51,25.68,0.76
		c8.02,0.24,14.05,0.56,20.3-5.17c4.25-3.9,7.33-8.67,9.63-13.9c2.22-5.04,4.11-10.22,6.23-15.3c0.92-2.2,1.98-4.35,3.13-6.44
		c0.57-1.03,1.41-2.12,2.78-1.97c1.36,0.16,1.82,1.4,2.29,2.53c1.34,3.19,1.15,6.43,0.13,9.62c-2.19,6.84-4.43,13.66-6.73,20.47
		c-2.02,5.98-4.28,11.87-6.15,17.89c-0.92,2.94-1.38,6.07-1.7,9.15c-0.31,2.98,1.3,4.09,4.16,3.25c2.11-0.62,3.92-1.74,5.57-3.18
		c5.88-5.15,10.67-11.23,15.14-17.59c6.21-8.84,11.59-18.19,16.99-27.53c3.32-5.74,6.73-11.43,10.17-17.1
		c1.53-2.52,3.88-3.35,6.33-2.47c1.52,0.55,2.02,1.35,1.66,2.95c-0.17,0.77-0.5,1.51-0.8,2.25c-4.27,10.5-8.59,20.98-12.82,31.5
		c-2.86,7.12-5.06,14.47-6.81,21.94c-0.09,0.39-0.27,0.79-0.22,1.17c0.06,0.51,0.15,1.23,0.49,1.43c0.35,0.2,1.08,0.01,1.5-0.25
		c0.6-0.37,1.13-0.9,1.58-1.45c4.37-5.41,8.8-10.78,13.04-16.28c1.45-1.88,2.5-4.07,3.59-6.2c0.67-1.32,1.5-2.25,3.03-2.36
		c1.99-0.14,3.2,0.89,3.3,2.89c0.05,1.04-0.03,2.08-0.04,3.12c-0.01,1.17,0,2.34,0,4.08c0.7-0.81,1.08-1.15,1.33-1.56
		c1.91-3.14,3.66-6.39,5.72-9.43c2.99-4.43,6.17-8.74,9.32-13.06c1.18-1.62,2.77-2.55,4.9-2.52c3.47,0.05,5.58,1.78,5.93,5.27
		c0.35,3.44,0.17,6.86-1.03,10.17c-3.24,8.93-6.47,17.87-9.7,26.81c-0.29,0.81-0.55,1.63-0.5,2.7c0.51-0.4,1.05-0.77,1.52-1.21
		c3.35-3.23,6.34-6.76,8.82-10.71c2.04-3.25,4.04-6.52,6.11-9.75c0.6-0.93,1.31-1.83,2.15-2.53c0.92-0.77,2.07-0.78,3.15-0.17
		c1.04,0.58,1.41,1.58,1.28,2.64c-0.15,1.26-0.61,2.48-0.86,3.73c-0.49,2.42-1.1,4.83-1.34,7.28c-0.26,2.68,0.76,3.31,3.29,2.43
		c1.84-0.64,3.49-1.56,4.82-3.03c0.54-0.59,1.12-1.14,1.69-1.7c3.57-3.52,6.29-7.36,7.32-12.56c1.25-6.34,3.71-12.38,6.91-18.35
		c-3.53-1.32-6.97-2.39-10.72-1.73c-0.86,0.15-1.69,0.46-2.55,0.64c-0.85,0.18-1.64,0.04-2-0.87c-0.33-0.84-0.08-1.55,0.65-2.11
		c1.72-1.32,3.64-2.03,5.8-1.83c2.22,0.21,4.44,0.54,6.66,0.82c0.71,0.09,1.44,0.14,2.13,0.34c1.74,0.51,2.86-0.24,3.89-1.57
		c1.36-1.77,2.83-3.47,4.33-5.13c0.57-0.64,1.32-1.15,2.06-1.6c1.07-0.65,2.18-0.51,3.12,0.3c0.97,0.83,1.13,1.93,0.6,3.05
		c-0.85,1.8-1.79,3.57-2.69,5.35c-0.25,0.49-0.51,0.98-0.91,1.74c1.23,0.32,2.32,0.64,3.43,0.9c5.23,1.22,10.51,1.97,15.91,1.83
		c2.73-0.07,5.2-0.7,7.42-2.31c0.51-0.37,1.07-0.77,1.66-0.92c0.55-0.13,1.44-0.16,1.72,0.16c0.39,0.45,0.68,1.45,0.44,1.9
		c-0.5,0.93-1.24,2.02-2.15,2.4c-2.42,0.99-4.92,1.93-7.48,2.34c-7.02,1.13-14.01,0.75-20.91-1.09c-2.46-0.66-2.53-0.61-3.68,1.69
		c-3.28,6.56-5.18,13.58-6.6,20.71c-0.88,4.45-1.4,8.98-1.9,13.49c-0.17,1.56,0.16,3.19,0.4,4.76c0.11,0.77,0.42,1.55,0.81,2.23
		c1,1.71,2.05,1.94,3.78,0.89c3.06-1.86,5.49-4.38,7.4-7.39c2.99-4.72,6.1-9.37,7.79-14.79c0.77-2.47,2.16-4.62,4.24-6.26
		c3.84-3.04,9.61-3.33,13.71-0.65c3.81,2.49,4.03,6.7,0.52,9.6c-2.38,1.96-5.11,2.51-8.1,2.07c-1.02-0.15-2.03-0.32-3.13-0.5
		c-1.32,2-1.73,4.15-1.48,6.41c0.25,2.28,1.73,3.47,3.99,3.01c1.61-0.33,3.24-0.93,4.66-1.75c4.99-2.91,9.63-6.28,13.25-10.91
		c2.16-2.76,5.04-3.81,8.53-2.81c0.53,0.15,1.1,0.18,1.91,0.31c0.38-1.47,0.77-2.9,1.12-4.34c1.24-5.14,2.62-10.25,5.44-14.78
		c1.33-2.14,3.1-4.04,4.85-5.87c0.79-0.83,1.97-1.38,3.07-1.78c2.93-1.08,5.8,0.1,7.29,2.92c1.61,3.02,1.8,6.27,1.21,9.57
		c-1.25,6.98-4.27,13.21-8.46,18.86c-1.95,2.63-4.08,5.13-6.31,7.52c-2.8,3-2.73,7.47,1.11,9.83c1.04,0.64,2.29,0.86,3.51,0.92
		c8.21,0.41,16.53-4.8,22.43-10.03c1.05-0.92,0.98-1.78,0.66-2.97c-1.81-6.84-1.46-13.62,0.82-20.29
		c2.02-5.9,5.84-10.39,11.02-13.78c2.36-1.55,4.96-2.12,7.77-1.88c2.93,0.26,4.73,1.77,5.37,4.61c0.54,2.37,0.01,4.62-1.01,6.74
		c-0.61,1.27-1.8,1.65-3.02,1.19c-1.18-0.44-1.6-1.16-1.43-2.67c0.11-0.95,0.43-1.87,0.5-2.82c0.15-1.91-0.73-2.7-2.59-2.3
		c-0.76,0.16-1.49,0.56-2.18,0.95c-6.88,3.88-13.34,12.8-10.4,24.14c1.08,4.15,2.81,8.13,4.32,12.17
		C355.21,223.83,356.27,226.24,357.47,229.17z M242.56,215.15c-1.06,1.03-1.83,1.78-2.6,2.53c-3.01,2.9-6.43,5.01-10.69,5.41
		c-3.5,0.33-5.22-0.84-6.28-4.17c-0.25-0.78-0.49-1.56-0.84-2.69c-0.85,1.17-1.43,2.02-2.06,2.83c-2.22,2.83-4.33,5.75-6.73,8.43
		c-1.53,1.71-3.34,3.26-5.27,4.49c-3.2,2.03-6.4,0.75-7.63-2.83c-0.95-2.75-0.68-5.5,0.16-8.23c3.18-10.3,6.34-20.6,9.5-30.91
		c0.3-0.97,0.54-1.95,0.81-2.93c-0.16-0.08-0.31-0.16-0.47-0.25c-0.44,0.6-0.92,1.18-1.31,1.8c-3.02,4.81-6.02,9.62-9.02,14.43
		c-2.11,3.39-4.21,6.79-6.32,10.18c-1.46,2.35-3.25,4.36-5.88,5.45c-2.74,1.13-4.62-0.05-4.74-2.98c-0.04-0.97-0.03-1.95-0.04-2.92
		c-0.95,0.64-1.45,1.35-1.98,2.03c-2.84,3.66-5.56,7.42-8.58,10.92c-1.6,1.85-3.57,3.47-5.64,4.77c-3.36,2.11-6.72,0.69-7.95-3.08
		c-0.17-0.53-0.25-1.08-0.37-1.63c-0.56-2.56-0.18-5.1,0.27-7.61c1.29-7.12,3.87-13.82,6.68-20.45c0.29-0.67,0.55-1.35,0.83-2.03
		c0.31-1.12-1.1,0.89-1.45,1.41c-4.76,7.1-9.39,14.29-14.31,21.28c-3.5,4.96-7.37,9.67-12.17,13.5c-1.76,1.4-3.59,2.66-5.81,3.25
		c-5.63,1.5-13.43-0.71-13.93-8.97c-0.1-1.72-0.35-3.44-0.53-5.12c-0.18-0.04-0.27-0.09-0.33-0.07c-0.37,0.15-0.74,0.29-1.09,0.47
		c-8.16,4.19-17.68,2.62-26.59,2.41c-9.75-0.23-19.5-0.58-29.24-1.05c-1.63-0.08-3.47-0.08-4.6,1.09c-0.64,0.66-0.92,1.59-1.18,2.48
		c-4.69,16.46-8.39,33.34-12.07,50.05c-2.99,13.57-5.12,27.31-6.95,41.09c-1.54,11.58-2.26,23.21-2.61,34.87
		c-0.15,4.94,0.07,9.9,0.19,14.85c0.31,12.4,1.68,24.7,3.99,36.89c4.46,23.53,13.19,45.36,26.58,65.23
		c6.21,9.21,12.76,18.19,19.24,27.22c4.77,6.65,9.05,13.56,11.99,21.22c0.97,2.53,1.8,5.13,2.84,7.63c1.94,4.65,4.67,6.08,9.66,5.42
		c5.12-0.67,10.21-0.4,15.21,0.96c6.84,1.85,12.74,5.53,18.26,9.78c6.15,4.73,12.11,9.69,18.09,14.64
		c9.7,8.02,20.81,12.01,33.37,11.74c4.14-0.09,8.28-0.57,12.4-1.06c10.15-1.21,20.27-2.62,30.42-3.79
		c7.91-0.92,15.79-0.6,23.61,1.03c15.13,3.14,26.4,11.3,33.14,25.36c1.97,4.1,3.86,8.24,5.83,12.35c1.38,2.88,2.75,5.77,4.26,8.58
		c0.87,1.61,1.96,3.11,3.03,4.6c5.01,6.97,11.85,9.25,20.18,8c5.05-0.76,10.13-1.32,15.22-1.78c9.37-0.86,17.42,2.3,24.49,8.29
		c5.96,5.05,10.33,11.33,13.86,18.2c4.3,8.39,8.41,16.87,12.62,25.3c2.83,5.67,6.59,10.58,11.84,14.23
		c6.96,4.83,15.83,4.75,22.15-0.12c3-2.31,4.04-5.26,3.07-8.89c-0.53-2-1.17-3.98-1.8-5.96c-2.98-9.36-1.42-17.81,5.08-25.27
		c4.06-4.65,9-8.17,14.51-10.83c15.27-7.37,31.21-12.58,48.11-14.58c10.99-1.3,21.51,0.24,31.35,5.5c4.22,2.26,8.09,1.8,11.78-1.21
		c2.6-2.13,5.22-4.24,7.97-6.15c16.78-11.69,35.61-17.36,55.86-18.59c10.17-0.62,20.28,0.03,30.25,2.32
		c10.9,2.5,21.2,6.47,30.69,12.44c5.7,3.58,9.09,8.45,8.33,15.52c-0.19,1.75-0.31,3.5-0.58,5.24c-0.97,6.19,0.66,11.69,4.26,16.72
		c4.72,6.61,10.28,12.44,16.51,17.63c3.39,2.82,6.97,5.37,11.03,7.15c3.99,1.76,8.05,1.79,12.1,0.18c4.02-1.61,5.42-5.09,3.43-8.92
		c-0.99-1.9-2.13-3.78-3.5-5.42c-2.45-2.94-5.1-5.73-7.72-8.53c-6-6.39-10.17-13.76-11.71-22.41c-0.94-5.26-1.48-10.6-2.09-15.91
		c-0.91-7.97-3.13-15.47-7.39-22.33c-1.22-1.96-2.3-4.03-3.36-6.08c-2.74-5.29-4.05-10.9-3.81-16.87
		c0.33-8.13,3.12-15.44,7.46-22.21c5.64-8.8,13.03-15.96,21.25-22.28c7.03-5.41,14.17-10.69,21.31-15.95
		c6.38-4.7,11.89-10.17,16.09-16.93c5.42-8.72,6.52-17.86,2.88-27.52c-2.26-5.98-4.49-11.96-6.76-17.93
		c-1.97-5.17-3.48-10.45-3.8-16.02c-0.45-7.86,1.43-14.93,7.18-20.58c2.62-2.57,5.36-5.06,8.28-7.28
		c6.82-5.17,10.95-11.94,12.69-20.25c1.11-5.31,2.24-10.62,3.31-15.95c2.38-11.9,9.04-20.03,20.77-23.77
		c1.75-0.56,3.45-1.27,5.12-2.02c4.54-2.02,7.43-5.46,8.48-10.32c0.35-1.63,0.53-3.32,0.61-4.99c0.33-6.86,0.58-13.72,0.89-20.59
		c0.15-3.27,0.24-6.55,0.57-9.8c0.69-6.79,3.59-12.54,8.64-17.15c4.45-4.07,9.64-7.09,14.71-10.29c2.49-1.57,4.95-3.25,7.22-5.11
		c2.46-2.02,2.7-3.76,1.23-6.57c-0.96-1.84-1.98-3.66-3.12-5.39c-7.71-11.58-15.45-23.13-23.21-34.67
		c-0.55-0.83-1.24-1.56-2.12-2.66c-0.87,1.4-1.65,2.41-2.15,3.54c-0.83,1.9-1.53,3.86-2.19,5.83c-4.4,13.02-11.19,24.69-19.75,35.4
		c-9.68,12.1-20.69,22.88-32.42,32.95c-24.21,20.78-48.43,41.55-72.68,62.28c-5.59,4.78-11.26,9.47-17.02,14.04
		c-6.22,4.93-13.27,7.6-21.36,6.88c-5.28-0.47-9.59-2.8-12.94-6.91c-2.8-3.43-4.33-7.44-5.18-11.71
		c-2.3-11.51-4.53-23.03-6.77-34.56c-0.69-3.53-2.06-6.71-4.57-9.34c-2.39-2.5-3.97-2.53-6.11,0.15c-1.74,2.18-3.36,4.48-4.78,6.87
		c-3.7,6.19-7.72,12.13-12.74,17.36c-2.96,3.08-4.9,6.75-5.43,10.99c-0.74,5.86-1.18,11.76-1.89,17.62
		c-0.52,4.27-1.15,8.54-1.94,12.77c-0.53,2.83-2.22,5.11-4.31,7.05c-1.9,1.77-4.21,2.69-6.8,2.42c-4.34-0.46-8.04-3.75-9.12-8.06
		c-0.56-2.24-0.95-4.53-1.35-6.81c-1.17-6.6-1.85-13.3-3.87-19.73c-1.46-4.65-2.99-9.27-4.46-13.91
		c-2.04-6.42-3.58-12.91-3.33-19.74c0.36-9.93,3.27-18.49,11.97-24.34c1.56-1.05,2.89-2.53,4.12-3.99c1.7-2.01,1.03-3.93-1.52-4.4
		c-3.15-0.58-6.33-0.8-9.55-0.41c-3.96,0.48-7.94,0.84-11.91,1.27c-5,0.53-10.01,1.07-15.01,1.61c-6.51,0.7-13.02,1.48-19.54,2.09
		c-4.29,0.4-6.61-1.68-6.88-6.02c-0.14-2.38-0.28-4.79-0.09-7.16c0.78-9.81,5.68-16.74,14.77-20.65c3.67-1.58,7.34-3.15,10.98-4.77
		c1.16-0.52,2.32-1.11,3.35-1.84c2.58-1.85,2.53-4.99-0.09-6.8c-2-1.39-4.28-2.09-6.66-2.52c-4.82-0.87-9.57-0.17-14.28,0.71
		c-3.11,0.58-6.17,1.47-9.31,2.24c0.28,1.31,0.48,2.32,0.73,3.33c0.88,3.51,1.55,7.06,1.05,10.67c-0.24,1.78-0.78,3.62-1.64,5.19
		c-1.56,2.84-4.98,4.63-8.18,4.81c-2.96,0.16-6.01-1.12-7.78-3.49c-1.2-1.62-1.77-3.65-1.9-5.66c-0.44-6.98,4.44-11.43,8.68-16.24
		c-1.47-2.46-2.85-4.75-4.31-7.19c-1.52,1.14-2.85,2.15-4.19,3.14c-3.22,2.38-6.61,4.47-10.37,5.92c-4.97,1.92-10.3,0.34-12.46-4.01
		c-0.06-0.12-0.22-0.2-0.48-0.43c-0.85,1.27-1.67,2.52-2.51,3.77c-2.65,3.96-5.76,7.48-9.95,9.87c-1.37,0.78-2.87,1.43-4.39,1.85
		c-4.35,1.19-7.97-0.67-9.66-4.86c-1.66-4.13-1.47-8.45-1.17-12.77c0.05-0.64,0.01-1.29,0.01-2.3c-1.96,1.86-3.61,3.46-5.3,5.02
		c-2.36,2.16-5.18,3.08-8.37,2.87c-2.12-0.14-3.42-1.12-4.01-3.15c-0.24-0.82-0.34-1.67-0.51-2.52c-4.42,2.52-7.83,1.84-12.21-2.63
		c-0.51,0.74-0.95,1.5-1.5,2.15c-2.21,2.62-4.32,5.35-6.73,7.76c-2.22,2.22-5.02,3.68-8.12,4.41c-4.33,1.02-7.8-0.8-9.43-4.93
		c-0.26-0.67-0.46-1.36-0.65-2.05c-1.05-3.78-0.92-7.57-0.26-11.4c0.47-2.72,0.81-5.46,1.26-8.56c-0.6,0.4-0.89,0.53-1.09,0.74
		c-2.6,2.98-5.68,5.4-9,7.49c-2.07,1.3-3.07,3.01-3.47,5.4c-0.89,5.38-3.1,10.21-6.7,14.37c-4.41,5.11-10.04,8.37-16.32,10.52
		c-3.59,1.22-7.28,0.81-10.82-0.49c-2.85-1.04-4.24-3.71-3.21-6.56c0.69-1.92,1.75-3.77,2.96-5.41c2.2-2.98,4.97-5.49,8.12-7.39
		c5.05-3.06,10.27-5.82,15.43-8.7c0.77-0.43,1.56-0.81,2.32-1.24c0.97-0.54,1.35-1.43,1.06-2.44c-0.68-2.35-1.47-4.66-2.28-7.2
		c-1,0.74-1.7,1.25-2.39,1.79c-3.91,3.02-8.69,5.62-13.32,7.36c-3.88,1.46-8.13,2.19-12.19,1.38c-5.78-1.16-8.53-4.78-10.72-9.83
		c-0.63,0.09-1.17,0.19-1.71,0.25c-2.45,0.29-4.9,0.81-7.36,0.8c-3.81-0.01-5.86-2.16-6.15-5.94c-0.05-0.59-0.11-1.18-0.19-2.08
		c-1.47,0.91-2.65,1.69-3.87,2.41c-2.96,1.73-5.88,3.54-9.33,4.24c-3.16,0.64-5.86-0.13-8.12-2.4c-0.78-0.78-1.49-1.65-2.35-2.61
		c-0.61,0.98-1.16,1.85-1.71,2.72c-2.55,4.02-5.52,7.68-9.5,10.35c-1.56,1.05-3.33,1.96-5.13,2.46c-4.9,1.37-8.67-0.79-10.34-5.58
		c-1.11-3.18-1.01-6.45-0.97-9.72C242.57,218.08,242.56,216.84,242.56,215.15z M315.26,214.3c0.35,0,0.44,0.03,0.5-0.01
		c0.14-0.07,0.29-0.15,0.39-0.26c6.31-7.12,10.98-15.09,12.53-24.61c0.26-1.6,0.04-3.34-0.27-4.95c-0.36-1.84-1.55-2.11-2.89-0.7
		c-0.98,1.03-1.93,2.17-2.57,3.43c-3.24,6.36-5.69,13.01-6.77,20.1C315.82,209.61,315.56,211.94,315.26,214.3z M349.71,238.67
		c-0.64,0.1-0.9,0.08-1.1,0.18c-7.3,3.46-14.22,7.52-20.3,12.89c-1.05,0.93-1.88,2.17-2.6,3.39c-0.92,1.57-0.4,2.51,1.36,2.5
		c1.42-0.01,2.89-0.09,4.25-0.46C340.81,254.53,346.47,248.03,349.71,238.67z M488.38,249.18c-0.05-0.16-4.79,4.66-5.18,5.37
		c-1.26,2.32-1.92,5.44-1.22,8.03c0.36,1.36,1.36,2.65,2.74,2.93c1.15,0.24,2.36-0.26,3.2-1.08c0.84-0.82,1.36-1.91,1.72-3.03
		C491.07,257.09,489.53,253.34,488.38,249.18z M403.4,234.45c0,0.39,0.01,0.78,0.03,1.18c0.04,0.74,0.2,1.59,0.85,1.95
		c0.44,0.24,0.98,0.18,1.45,0.01c1.45-0.54,2.31-2.01,3.05-3.37c1.49-2.73,2.98-5.46,4.47-8.19c1.52-2.78-0.74-4.14-3.18-3
		c-1.82,0.85-3.7,2.56-4.76,4.28C404,229.44,403.42,231.95,403.4,234.45z M308.46,215.41c0-0.8,0.02-1.59,0-2.39
		c-0.08-2.67-1.17-3.25-3.48-1.83c-2.12,1.32-3.4,3.32-4.2,5.62c-0.44,1.28-0.83,2.7,0.32,3.81c1.03,1,2.24,0.36,3.37,0.03
		C308.46,219.49,308.46,219.49,308.46,215.41z M279.81,207.49c1.08,0.35,1.89,0.71,2.73,0.87c1.49,0.29,2.85-0.09,3.92-1.2
		c0.66-0.68,1.39-1.38,0.91-2.49c-0.51-1.17-1.56-1-2.47-0.84C282.79,204.2,281.07,205.22,279.81,207.49z M463.97,230.58
		c1.26,0.32,2.39,0.84,3.5,0.82c1.03-0.02,2.14-0.46,3.03-1.02c0.88-0.54,1.54-1.54,0.96-2.65c-0.58-1.11-1.68-1.06-2.73-0.78
		C466.74,227.49,465.16,228.58,463.97,230.58z"/>
	<path d="M234.83,195.36c0.03,1.91-1.51,3.55-3.4,3.63c-1.79,0.07-3.09-1.14-3.1-2.89c-0.01-1.98,1.7-3.69,3.66-3.65
		C233.65,192.49,234.8,193.66,234.83,195.36z"/>
</g>
</svg>
