<?xml version="1.0" encoding="UTF-8"?><svg id="Layer_2" xmlns="http://www.w3.org/2000/svg" viewBox="0 0 1000 1000"><defs><style>.cls-1{fill:none;stroke:#000;stroke-miterlimit:10;stroke-width:10px;}</style></defs><path class="cls-1" d="M314.42181671810431,340.358215566691797l-14.858963175047393.091911112423077c-3.873194047786455.023957901326867-6.506823302446719,3.939948922410622-5.06832762686463,7.536188111366755l24.634896020850647,61.587240052125708c.245048675014914.612621687536375.377767887261143,1.264366899658853.391803301183245,1.924031354001272l.946590986091906,44.489776346364124c.02106397505122.990006827390971.3092401449303,1.955927647825774.834061465335253,2.795641760470971l12.826333665892889,20.522133865430987c.868756739107994,1.390010782572972,1.071650958025202,3.095274890412838.553300859402952,4.650325186279588l-10.819821646175114,32.459464938525343c-.238570758430797.715712275290571-.327218573082064,1.472881657846301-.260421766510262,2.224345731779977l3.653230737614649,41.09884579816935c.154396759224255,1.73696354128333-.524765128295257,3.444115411824896-1.830162268299318,4.600324307259143l-30.335493819684416,26.868580240290612c-1.582273593545324,1.401442325712196-3.82809677377918,1.771184756449657-5.776136237373066.950957613882565l-9.236910758951126-3.889225582715881c-3.322598911054229-1.398989015180632-4.420819850134649-5.564401728315715-2.21987053039993-8.419687332296235l31.624369242705143-41.026208747292912c.664789169803043-.862429193259231,1.05837532305668-1.902917686731598,1.130808653819258-2.989417648197559l1.86449524686941-27.967428703015685c.343574927293957-5.153623909420276-5.96775265778524-7.89164289341079-9.496302751987969-4.119744516849096l-18.479296316576438,19.753730545306098-.000027000000046.000031999999919c-4.145416081855728,4.91308575147923-11.909507605107137-.067270964145791-9.172361635663037-5.883706149215868l5.885653038643795-12.50701270711761c.190444781688711-.404695161088966.429583710791121-.784626737840881.712109907592094-1.131363433914885l18.884066431570318-23.175899711472084c1.583696234833042-1.943627197294518,1.651113007541426-4.712727052278751.163876485323271-6.731119475289233l-9.826091935297882-13.335410483618034c-1.035786646529232-1.405710448862919-2.677973163319621-2.235520039372204-4.424076208151746-2.235520039372204h-82.900909066855093c-.869091691958602,0-1.725791279397527-.20613050085376-2.499760926380986-.601467514780779l-60.173062372407003-30.735880780150183c-3.692853206362997-1.886277537062597-8.06461056090302.840911585727554-7.994337425629055,4.987026566890563l.83123523597169,49.042878922353339c.009074915795281.535420031864305.096360053626995,1.066638793571656.259087706497667,1.57681197554939l36.530721311777597,114.528747896378263c.148586315055582.465838176934994.234335913541145.949423499692784.25497782947059,1.437948843373306l4.30998574115074,102.002995873875989c.09578347643037,2.266875608856935,1.574875569565847,4.241831204608388,3.723253597485382,4.971469025411352l49.435659284901703,16.78946919109876,45.315536673751922,16.04925257195282c1.683336315141787.596181611614156,2.972011471427322,1.973140833128127,3.455506801950833,3.692235341659398l16.262844813047195,57.823448224164167c.58757228372815,2.089145897700291,2.349614453674803,3.636824678827907,4.497099779662676,3.949999622200266l43.176939223956651,6.296636970160762c.84955552876454.123893514610245,1.716321989588323.047010842543386,2.530806353757725-.224483945512475l60.882991024594958-20.294330341532259c.581420443844763-.193806814615527,1.191165144897241-.288988686277662,1.803991628130461-.281605234673407l81.194390823371577.978245672571575c.582882525111927.007022681025774,1.163170270590854-.078740212571574,1.719101875498382-.254072487965459l128.45510208361884-40.512762964832291c.468345949248032-.147709107071933.954378100241229-.231973289117377,1.445113389792823-.25054165142501l176.8966793353502-6.693387866742341c3.673514334901483-.138997839700096,6.177341506243465-3.77584772514092,4.996210170835184-7.257076924242938l-16.361688251050509-48.223923266255952c-.17936979512524-.528668869837929-.277134599402416-1.081583309960479-.289928236217747-1.639705716064782l-7.856852158669426-342.755175421900276c-.0687305531319-2.998370380453707-2.528813129451009-5.387876492089163-5.52791377507674-5.369325354075045l-16.529942571187348.102247067450662"/><path d="M364.318359375,323.95947265625c.4794921875,1.640625,1.0078125,3.490234375,1.5869140625,5.55029296875.580078125,2.060546875,1.1982421875,4.1904296875,1.857421875,6.3896484375.658203125,2.20068359375,1.3271484375,4.40087890625,2.005859375,6.60009765625.6787109375,2.2001953125,1.337890625,4.240234375,1.9775390625,6.1201171875.5224609375-2.0400390625,1.0546875-4.26025390625,1.59765625-6.66015625.5419921875-2.39990234375,1.0546875-4.87939453125,1.5361328125-7.43994140625.482421875-2.55908203125.955078125-5.109375,1.4169921875-7.64990234375.4619140625-2.53955078125.89453125-4.9892578125,1.296875-7.35009765625h9.72265625c-1.408203125,6.9599609375-3.0283203125,14.0205078125-4.859375,21.18017578125-1.8310546875,7.16064453125-3.8125,13.96044921875-5.9443359375,20.39990234375h-8.5615234375c-1.3974609375-3.83984375-2.7548828125-7.869140625-4.072265625-12.08984375-1.318359375-4.2197265625-2.6162109375-8.44970703125-3.892578125-12.68994140625-1.28125,4.240234375-2.5634765625,8.47021484375-3.8447265625,12.68994140625-1.28125,4.220703125-2.623046875,8.25-4.0244140625,12.08984375h-8.5546875c-2.130859375-6.439453125-4.1083984375-13.2392578125-5.935546875-20.39990234375-1.828125-7.15966796875-3.4443359375-14.22021484375-4.8505859375-21.18017578125h10.1396484375c.4013671875,2.36083984375.84375,4.810546875,1.3271484375,7.35009765625.4814453125,2.54052734375.984375,5.0908203125,1.5068359375,7.64990234375.5224609375,2.560546875,1.0546875,5.0400390625,1.59765625,7.43994140625s1.095703125,4.6201171875,1.658203125,6.66015625c.7216796875-1.95947265625,1.4228515625-4.03955078125,2.1044921875-6.240234375.6806640625-2.19921875,1.341796875-4.3994140625,1.9833984375-6.599609375.6416015625-2.19970703125,1.2314453125-4.3203125,1.7724609375-6.3603515625s1.0322265625-3.859375,1.47265625-5.4599609375h7.9794921875Z"/><path d="M418.751953125,361.099609375c-.462890625-1.44482421875-.9599609375-2.9287109375-1.4921875-4.451171875-.533203125-1.5224609375-1.0634765625-3.03955078125-1.5908203125-4.548828125h-16.240234375c-.5244140625,1.51708984375-1.0517578125,3.03662109375-1.578125,4.56103515625-.5283203125,1.5244140625-1.01953125,3.00439453125-1.4736328125,4.43896484375h-9.720703125c1.5654296875-4.4794921875,3.048828125-8.619140625,4.453125-12.419921875,1.404296875-3.7998046875,2.7783203125-7.3798828125,4.123046875-10.740234375,1.34375-3.35986328125,2.66796875-6.54931640625,3.9716796875-9.56982421875,1.3037109375-3.01953125,2.6591796875-5.97021484375,4.0634765625-8.85009765625h8.8720703125c1.3662109375,2.8798828125,2.7119140625,5.83056640625,4.0390625,8.85009765625,1.3251953125,3.0205078125,2.662109375,6.2099609375,4.0087890625,9.56982421875,1.345703125,3.3603515625,2.72265625,6.9404296875,4.12890625,10.740234375,1.40625,3.80078125,2.892578125,7.9404296875,4.4599609375,12.419921875h-10.0244140625ZM407.5068359375,328.939453125c-.208984375.60400390625-.5146484375,1.42626953125-.9169921875,2.46484375-.40234375,1.03955078125-.859375,2.24072265625-1.373046875,3.60302734375-.5146484375,1.36181640625-1.0888671875,2.86181640625-1.7236328125,4.5-.634765625,1.6376953125-1.279296875,3.35498046875-1.9345703125,5.15234375h11.8896484375c-.63671875-1.802734375-1.251953125-3.52587890625-1.8486328125-5.16845703125-.595703125-1.642578125-1.1630859375-3.1455078125-1.69921875-4.50830078125-.537109375-1.3623046875-1.0078125-2.5625-1.4130859375-3.60107421875-.4052734375-1.0380859375-.732421875-1.8515625-.98046875-2.4423828125Z"/><path d="M446.595703125,353.95947265625c1.3203125,0,2.41015625-.109375,3.2705078125-.330078125.859375-.21923828125,1.5498046875-.51904296875,2.0703125-.89990234375.5185546875-.37939453125.87890625-.82958984375,1.0791015625-1.35009765625.2001953125-.51904296875.30078125-1.099609375.30078125-1.73974609375,0-1.359375-.640625-2.490234375-1.919921875-3.39013671875-1.28125-.89990234375-3.48046875-1.869140625-6.6005859375-2.90966796875-1.3603515625-.48046875-2.720703125-1.02978515625-4.080078125-1.650390625-1.3603515625-.61962890625-2.580078125-1.3994140625-3.66015625-2.33984375-1.080078125-.939453125-1.9599609375-2.07958984375-2.6396484375-3.419921875-.6806640625-1.33984375-1.01953125-2.97021484375-1.01953125-4.89013671875s.359375-3.6494140625,1.0791015625-5.18994140625c.720703125-1.53955078125,1.740234375-2.85009765625,3.060546875-3.93017578125,1.3203125-1.07958984375,2.9189453125-1.90966796875,4.7998046875-2.48974609375,1.8798828125-.57958984375,3.9990234375-.8701171875,6.3603515625-.8701171875,2.798828125,0,5.2197265625.2998046875,7.259765625.89990234375s3.7197265625,1.26025390625,5.0400390625,1.97998046875l-2.7001953125,7.38037109375c-1.16015625-.60009765625-2.4501953125-1.1298828125-3.8701171875-1.59033203125-1.419921875-.45947265625-3.1298828125-.68994140625-5.1298828125-.68994140625-2.240234375,0-3.8505859375.310546875-4.830078125.93017578125-.98046875.62060546875-1.4697265625,1.5703125-1.4697265625,2.85009765625,0,.76025390625.1796875,1.400390625.5400390625,1.919921875.3603515625.52001953125.8701171875.98974609375,1.5302734375,1.40966796875.6591796875.42041015625,1.4189453125.80078125,2.279296875,1.14013671875.8603515625.34033203125,1.8095703125.68994140625,2.8505859375,1.05029296875,2.16015625.80029296875,4.0390625,1.58984375,5.6396484375,2.36962890625,1.599609375.7802734375,2.9296875,1.6904296875,3.990234375,2.72998046875,1.0595703125,1.041015625,1.849609375,2.26025390625,2.3701171875,3.66015625.51953125,1.400390625.779296875,3.10009765625.779296875,5.10009765625,0,3.88037109375-1.359375,6.890625-4.0791015625,9.02978515625-2.720703125,2.140625-6.8203125,3.2099609375-12.30078125,3.2099609375-1.83984375,0-3.5-.1103515625-4.9794921875-.330078125-1.48046875-.22021484375-2.7900390625-.490234375-3.9296875-.8095703125-1.140625-.31982421875-2.12109375-.66015625-2.9404296875-1.02001953125-.8203125-.3603515625-1.5107421875-.69970703125-2.0703125-1.02001953125l2.640625-7.43994140625c1.2392578125.68017578125,2.7685546875,1.28955078125,4.58984375,1.82958984375,1.8193359375.5400390625,4.0498046875.81005859375,6.689453125.81005859375Z"/><path d="M495.2548828125,319.51953125h9.3603515625v41.580078125h-9.3603515625v-17.64013671875h-15.7197265625v17.64013671875h-9.3603515625v-41.580078125h9.3603515625v15.89990234375h15.7197265625v-15.89990234375Z"/><path d="M514.21484375,319.51953125h9.3603515625v41.580078125h-9.3603515625v-41.580078125Z"/><path d="M561.07421875,361.099609375c-2.6806640625-4.759765625-5.580078125-9.45947265625-8.7001953125-14.10009765625-3.1201171875-4.6396484375-6.4404296875-9.01953125-9.9599609375-13.14013671875v27.240234375h-9.240234375v-41.580078125h7.6201171875c1.3203125,1.3203125,2.779296875,2.93994140625,4.3798828125,4.85986328125,1.599609375,1.92041015625,3.2294921875,3.970703125,4.890625,6.150390625,1.6591796875,2.1806640625,3.30859375,4.43994140625,4.94921875,6.77978515625,1.6396484375,2.33984375,3.1806640625,4.58984375,4.6201171875,6.75v-24.5400390625h9.2998046875v41.580078125h-7.859375Z"/><path d="M598.814453125,326.7197265625c-4.3603515625,0-7.5107421875,1.2099609375-9.4501953125,3.6298828125-1.9404296875,2.42041015625-2.91015625,5.72998046875-2.91015625,9.93017578125,0,2.0400390625.240234375,3.890625.720703125,5.5498046875.4794921875,1.66015625,1.19921875,3.08984375,2.1591796875,4.2900390625s2.16015625,2.1298828125,3.6005859375,2.7900390625c1.439453125.66015625,3.1201171875.98974609375,5.0400390625.98974609375,1.0390625,0,1.9287109375-.01953125,2.669921875-.0595703125.7392578125-.03955078125,1.3896484375-.1201171875,1.9501953125-.240234375v-14.4599609375h9.359375v20.580078125c-1.1201171875.4404296875-2.919921875.91015625-5.3994140625,1.40966796875-2.48046875.5-5.541015625.75-9.1806640625.75-3.1201171875,0-5.9501953125-.47998046875-8.4892578125-1.43994140625-2.541015625-.9599609375-4.7099609375-2.359375-6.5107421875-4.19970703125-1.7998046875-1.83935546875-3.1904296875-4.099609375-4.169921875-6.7802734375-.98046875-2.67919921875-1.4697265625-5.7392578125-1.4697265625-9.1796875,0-3.47998046875.5400390625-6.56005859375,1.6201171875-9.240234375,1.080078125-2.67919921875,2.5595703125-4.94970703125,4.439453125-6.81005859375,1.8798828125-1.85986328125,4.08984375-3.27001953125,6.630859375-4.22998046875,2.5390625-.9599609375,5.25-1.43994140625,8.1298828125-1.43994140625,1.958984375,0,3.7294921875.13037109375,5.3095703125.39013671875,1.580078125.2607421875,2.9404296875.560546875,4.080078125.89990234375,1.1396484375.34033203125,2.0791015625.68994140625,2.8203125,1.0498046875.7392578125.3603515625,1.26953125.640625,1.58984375.84033203125l-2.7001953125,7.5c-1.2802734375-.6796875-2.7509765625-1.26953125-4.41015625-1.77001953125-1.66015625-.5-3.470703125-.75-5.4296875-.75Z"/><path d="M650.8935546875,319.51953125v7.97998046875h-12.5400390625v33.60009765625h-9.359375v-33.60009765625h-12.5400390625v-7.97998046875h34.439453125Z"/><path d="M695.115234375,340.27978515625c0,3.560546875-.53125,6.68994140625-1.5908203125,9.3896484375-1.0595703125,2.7001953125-2.509765625,4.96044921875-4.349609375,6.7802734375-1.83984375,1.8203125-4.0302734375,3.1904296875-6.5703125,4.10986328125-2.5400390625.919921875-5.2705078125,1.3798828125-8.189453125,1.3798828125-2.8408203125,0-5.5205078125-.4599609375-8.0400390625-1.3798828125-2.5205078125-.91943359375-4.720703125-2.28955078125-6.6005859375-4.10986328125-1.8798828125-1.81982421875-3.359375-4.080078125-4.439453125-6.7802734375-1.080078125-2.69970703125-1.6201171875-5.8291015625-1.6201171875-9.3896484375,0-3.56005859375.5595703125-6.68994140625,1.6796875-9.39013671875s2.6298828125-4.9697265625,4.5302734375-6.81005859375c1.8994140625-1.83935546875,4.099609375-3.21923828125,6.599609375-4.14013671875,2.5-.91943359375,5.130859375-1.3798828125,7.890625-1.3798828125,2.83984375,0,5.51953125.46044921875,8.0400390625,1.3798828125,2.51953125.9208984375,4.71875,2.30078125,6.599609375,4.14013671875,1.8798828125,1.84033203125,3.3603515625,4.10986328125,4.4404296875,6.81005859375s1.6201171875,5.830078125,1.6201171875,9.39013671875ZM663.375,340.27978515625c0,2.0400390625.2490234375,3.88037109375.75,5.52001953125.5,1.640625,1.2197265625,3.05029296875,2.16015625,4.22998046875.939453125,1.18017578125,2.08984375,2.09033203125,3.44921875,2.72998046875,1.359375.64013671875,2.919921875.9599609375,4.6806640625.9599609375,1.71875,0,3.26953125-.31982421875,4.6494140625-.9599609375,1.380859375-.6396484375,2.5400390625-1.5498046875,3.48046875-2.72998046875.939453125-1.1796875,1.6591796875-2.58935546875,2.16015625-4.22998046875.4990234375-1.6396484375.75-3.47998046875.75-5.52001953125s-.2509765625-3.8896484375-.75-5.55029296875c-.5009765625-1.6591796875-1.220703125-3.07958984375-2.16015625-4.259765625-.9404296875-1.1796875-2.099609375-2.08984375-3.48046875-2.72998046875-1.3798828125-.6396484375-2.9306640625-.9599609375-4.6494140625-.9599609375-1.7607421875,0-3.3212890625.32958984375-4.6806640625.98974609375s-2.509765625,1.58056640625-3.44921875,2.76025390625c-.9404296875,1.18017578125-1.66015625,2.6005859375-2.16015625,4.259765625-.5009765625,1.66015625-.75,3.490234375-.75,5.490234375Z"/><path d="M730.814453125,361.099609375c-2.6806640625-4.759765625-5.580078125-9.45947265625-8.7001953125-14.10009765625-3.1201171875-4.6396484375-6.4404296875-9.01953125-9.9599609375-13.14013671875v27.240234375h-9.240234375v-41.580078125h7.6201171875c1.3203125,1.3203125,2.779296875,2.93994140625,4.3798828125,4.85986328125,1.599609375,1.92041015625,3.2294921875,3.970703125,4.890625,6.150390625,1.6591796875,2.1806640625,3.30859375,4.43994140625,4.94921875,6.77978515625,1.6396484375,2.33984375,3.1806640625,4.58984375,4.6201171875,6.75v-24.5400390625h9.2998046875v41.580078125h-7.859375Z"/></svg>